<svg xmlns="http://www.w3.org/2000/svg" xmlns:xlink="http://www.w3.org/1999/xlink" width="1344" zoomAndPan="magnify" viewBox="0 0 1008 92.999996" height="124" preserveAspectRatio="xMidYMid meet" version="1.0"><defs><g/></defs><g fill="#347480" fill-opacity="1"><g transform="translate(6.773459, 72.856943)"><g><path d="M 21.296875 -45.015625 C 22.390625 -45.015625 23.769531 -44.910156 25.4375 -44.703125 C 27.113281 -44.503906 28.859375 -43.972656 30.671875 -43.109375 C 32.492188 -42.242188 34.15625 -40.769531 35.65625 -38.6875 L 35.65625 -67.515625 L 52.109375 -67.515625 L 52.109375 0 L 35.65625 0 L 35.65625 -5.890625 C 34.15625 -3.867188 32.492188 -2.410156 30.671875 -1.515625 C 28.859375 -0.617188 27.113281 -0.0703125 25.4375 0.125 C 23.769531 0.332031 22.390625 0.4375 21.296875 0.4375 C 17.953125 0.4375 14.847656 -0.382812 11.984375 -2.03125 C 9.128906 -3.675781 6.847656 -6.1875 5.140625 -9.5625 C 3.441406 -12.9375 2.59375 -17.191406 2.59375 -22.328125 C 2.59375 -27.179688 3.441406 -31.296875 5.140625 -34.671875 C 6.847656 -38.046875 9.128906 -40.613281 11.984375 -42.375 C 14.847656 -44.132812 17.953125 -45.015625 21.296875 -45.015625 Z M 27.359375 -12.296875 C 30.066406 -12.296875 32.125 -13.242188 33.53125 -15.140625 C 34.945312 -17.046875 35.65625 -19.441406 35.65625 -22.328125 C 35.65625 -25.210938 34.945312 -27.59375 33.53125 -29.46875 C 32.125 -31.34375 30.066406 -32.28125 27.359375 -32.28125 C 24.703125 -32.28125 22.648438 -31.34375 21.203125 -29.46875 C 19.765625 -27.59375 19.046875 -25.210938 19.046875 -22.328125 C 19.046875 -19.441406 19.765625 -17.046875 21.203125 -15.140625 C 22.648438 -13.242188 24.703125 -12.296875 27.359375 -12.296875 Z M 27.359375 -12.296875 "/></g></g></g><g fill="#347480" fill-opacity="1"><g transform="translate(60.870146, 72.856943)"><g><path d="M 20.25 -59.03125 C 20.25 -57.007812 19.5 -55.304688 18 -53.921875 C 16.5 -52.535156 14.625 -51.84375 12.375 -51.84375 C 10.238281 -51.84375 8.390625 -52.535156 6.828125 -53.921875 C 5.273438 -55.304688 4.5 -57.007812 4.5 -59.03125 C 4.5 -61 5.273438 -62.675781 6.828125 -64.0625 C 8.390625 -65.445312 10.238281 -66.140625 12.375 -66.140625 C 14.625 -66.140625 16.5 -65.445312 18 -64.0625 C 19.5 -62.675781 20.25 -61 20.25 -59.03125 Z M 20.34375 0 L 4.0625 0 L 4.0625 -44.578125 L 20.34375 -44.578125 Z M 20.34375 0 "/></g></g></g><g fill="#347480" fill-opacity="1"><g transform="translate(84.586136, 72.856943)"><g><path d="M 21.546875 0 L 0.265625 -44.578125 L 16.359375 -44.578125 L 26.65625 -21.375 L 37.046875 -44.578125 L 52.96875 -44.578125 L 31.9375 0 Z M 21.546875 0 "/></g></g></g><g fill="#347480" fill-opacity="1"><g transform="translate(138.423156, 72.856943)"><g><path d="M 25.109375 -45.015625 C 29.203125 -45.015625 33.050781 -44.191406 36.65625 -42.546875 C 40.257812 -40.898438 43.1875 -38.390625 45.4375 -35.015625 C 47.695312 -31.640625 48.828125 -27.351562 48.828125 -22.15625 C 48.828125 -16.96875 47.695312 -12.695312 45.4375 -9.34375 C 43.1875 -6 40.257812 -3.53125 36.65625 -1.9375 C 33.050781 -0.351562 29.203125 0.4375 25.109375 0.4375 C 21.003906 0.4375 17.148438 -0.351562 13.546875 -1.9375 C 9.941406 -3.53125 7.023438 -6 4.796875 -9.34375 C 2.578125 -12.695312 1.46875 -16.96875 1.46875 -22.15625 C 1.46875 -27.351562 2.578125 -31.640625 4.796875 -35.015625 C 7.023438 -38.390625 9.941406 -40.898438 13.546875 -42.546875 C 17.148438 -44.191406 21.003906 -45.015625 25.109375 -45.015625 Z M 25.109375 -32.203125 C 23.140625 -32.203125 21.632812 -31.722656 20.59375 -30.765625 C 19.5625 -29.816406 18.84375 -28.59375 18.4375 -27.09375 C 18.03125 -25.59375 17.828125 -23.945312 17.828125 -22.15625 C 17.828125 -20.425781 18.03125 -18.8125 18.4375 -17.3125 C 18.84375 -15.8125 19.5625 -14.597656 20.59375 -13.671875 C 21.632812 -12.753906 23.140625 -12.296875 25.109375 -12.296875 C 27.117188 -12.296875 28.644531 -12.753906 29.6875 -13.671875 C 30.726562 -14.597656 31.4375 -15.8125 31.8125 -17.3125 C 32.1875 -18.8125 32.375 -20.425781 32.375 -22.15625 C 32.375 -23.945312 32.1875 -25.59375 31.8125 -27.09375 C 31.4375 -28.59375 30.726562 -29.816406 29.6875 -30.765625 C 28.644531 -31.722656 27.117188 -32.203125 25.109375 -32.203125 Z M 25.109375 -32.203125 "/></g></g></g><g fill="#347480" fill-opacity="1"><g transform="translate(188.365215, 72.856943)"><g><path d="M 35.0625 -29.4375 C 34.769531 -29.71875 34.046875 -30.25 32.890625 -31.03125 C 31.734375 -31.8125 30.234375 -32.203125 28.390625 -32.203125 C 24.703125 -32.203125 22.265625 -30.929688 21.078125 -28.390625 C 19.890625 -25.847656 19.296875 -21.722656 19.296875 -16.015625 L 19.296875 0 L 2.859375 0 L 2.859375 -44.578125 L 19.296875 -44.578125 L 19.296875 -37.3125 C 20.109375 -40.019531 21.347656 -41.976562 23.015625 -43.1875 C 24.691406 -44.40625 27.03125 -45.015625 30.03125 -45.015625 C 31.644531 -45.015625 33.03125 -44.722656 34.1875 -44.140625 C 35.34375 -43.566406 36.269531 -42.847656 36.96875 -41.984375 Z M 35.0625 -29.4375 "/></g></g></g><g fill="#347480" fill-opacity="1"><g transform="translate(226.189617, 72.856943)"><g><path d="M 43.625 -9.265625 C 41.664062 -6.265625 39.253906 -3.894531 36.390625 -2.15625 C 33.535156 -0.425781 29.628906 0.4375 24.671875 0.4375 C 20.515625 0.4375 16.71875 -0.570312 13.28125 -2.59375 C 9.851562 -4.613281 7.113281 -7.335938 5.0625 -10.765625 C 3.007812 -14.203125 1.984375 -18 1.984375 -22.15625 C 1.984375 -25.269531 2.578125 -28.210938 3.765625 -30.984375 C 4.953125 -33.753906 6.582031 -36.191406 8.65625 -38.296875 C 10.726562 -40.410156 13.132812 -42.054688 15.875 -43.234375 C 18.625 -44.421875 21.554688 -45.015625 24.671875 -45.015625 C 29.628906 -45.015625 33.535156 -44.144531 36.390625 -42.40625 C 39.253906 -40.675781 41.664062 -38.3125 43.625 -35.3125 L 34.1875 -26.921875 C 33.269531 -28.648438 32.316406 -29.875 31.328125 -30.59375 C 30.347656 -31.320312 29.410156 -31.769531 28.515625 -31.9375 C 27.628906 -32.113281 26.835938 -32.203125 26.140625 -32.203125 C 23.484375 -32.203125 21.535156 -31.21875 20.296875 -29.25 C 19.054688 -27.289062 18.4375 -24.925781 18.4375 -22.15625 C 18.4375 -19.445312 19.054688 -17.125 20.296875 -15.1875 C 21.535156 -13.257812 23.484375 -12.296875 26.140625 -12.296875 C 26.835938 -12.296875 27.628906 -12.363281 28.515625 -12.5 C 29.410156 -12.644531 30.347656 -13.09375 31.328125 -13.84375 C 32.316406 -14.59375 33.269531 -15.863281 34.1875 -17.65625 Z M 43.625 -9.265625 "/></g></g></g><g fill="#347480" fill-opacity="1"><g transform="translate(270.419083, 72.856943)"><g><path d="M 48.296875 -17.484375 L 20 -17.921875 C 20 -16.066406 20.832031 -14.664062 22.5 -13.71875 C 24.175781 -12.769531 25.992188 -12.296875 27.953125 -12.296875 C 29.222656 -12.296875 30.679688 -12.566406 32.328125 -13.109375 C 33.972656 -13.660156 35.257812 -14.484375 36.1875 -15.578125 L 45.96875 -6.671875 C 43.3125 -4.128906 40.410156 -2.304688 37.265625 -1.203125 C 34.117188 -0.109375 30.640625 0.4375 26.828125 0.4375 C 21.984375 0.4375 17.816406 -0.613281 14.328125 -2.71875 C 10.835938 -4.832031 8.15625 -7.648438 6.28125 -11.171875 C 4.40625 -14.691406 3.46875 -18.554688 3.46875 -22.765625 C 3.46875 -26.972656 4.347656 -30.75 6.109375 -34.09375 C 7.867188 -37.445312 10.390625 -40.101562 13.671875 -42.0625 C 16.960938 -44.03125 20.914062 -45.015625 25.53125 -45.015625 C 30.269531 -45.015625 34.335938 -44.019531 37.734375 -42.03125 C 41.140625 -40.039062 43.75 -37.328125 45.5625 -33.890625 C 47.382812 -30.453125 48.296875 -26.539062 48.296875 -22.15625 Z M 31.859375 -26.578125 C 31.859375 -28.242188 31.265625 -29.597656 30.078125 -30.640625 C 28.898438 -31.679688 27.382812 -32.203125 25.53125 -32.203125 C 23.800781 -32.203125 22.429688 -31.722656 21.421875 -30.765625 C 20.410156 -29.816406 19.90625 -28.421875 19.90625 -26.578125 Z M 31.859375 -26.578125 "/></g></g></g><g fill="#347480" fill-opacity="1"><g transform="translate(319.841809, 72.856943)"><g/></g></g><g fill="#347480" fill-opacity="1"><g transform="translate(348.66453, 72.856943)"><g><path d="M 35.140625 -44.578125 L 51.5 -44.578125 L 51.5 -5.28125 C 51.5 -1.238281 50.820312 2.164062 49.46875 4.9375 C 48.113281 7.707031 46.296875 9.941406 44.015625 11.640625 C 41.734375 13.347656 39.191406 14.578125 36.390625 15.328125 C 33.597656 16.078125 30.757812 16.453125 27.875 16.453125 C 27.125 16.453125 25.535156 16.453125 23.109375 16.453125 C 20.679688 16.453125 17.664062 16.117188 14.0625 15.453125 C 10.457031 14.785156 6.460938 13.5 2.078125 11.59375 L 9.265625 1.03125 C 12.203125 2.019531 14.632812 2.703125 16.5625 3.078125 C 18.5 3.453125 20.117188 3.648438 21.421875 3.671875 C 22.722656 3.703125 23.894531 3.71875 24.9375 3.71875 C 26.195312 3.71875 27.617188 3.488281 29.203125 3.03125 C 30.796875 2.570312 32.179688 1.660156 33.359375 0.296875 C 34.546875 -1.054688 35.140625 -3.085938 35.140625 -5.796875 C 33.640625 -3.773438 31.96875 -2.332031 30.125 -1.46875 C 28.28125 -0.601562 26.519531 -0.0703125 24.84375 0.125 C 23.164062 0.332031 21.78125 0.4375 20.6875 0.4375 C 17.34375 0.4375 14.238281 -0.441406 11.375 -2.203125 C 8.519531 -3.960938 6.238281 -6.53125 4.53125 -9.90625 C 2.832031 -13.28125 1.984375 -17.394531 1.984375 -22.25 C 1.984375 -27.4375 2.832031 -31.703125 4.53125 -35.046875 C 6.238281 -38.398438 8.519531 -40.898438 11.375 -42.546875 C 14.238281 -44.191406 17.34375 -45.015625 20.6875 -45.015625 C 21.78125 -45.015625 23.164062 -44.910156 24.84375 -44.703125 C 26.519531 -44.503906 28.28125 -43.957031 30.125 -43.0625 C 31.96875 -42.164062 33.640625 -40.707031 35.140625 -38.6875 Z M 26.75 -12.296875 C 29.457031 -12.296875 31.53125 -13.21875 32.96875 -15.0625 C 34.414062 -16.90625 35.140625 -19.300781 35.140625 -22.25 C 35.140625 -25.132812 34.414062 -27.515625 32.96875 -29.390625 C 31.53125 -31.265625 29.457031 -32.203125 26.75 -32.203125 C 24.09375 -32.203125 22.039062 -31.265625 20.59375 -29.390625 C 19.15625 -27.515625 18.4375 -25.132812 18.4375 -22.25 C 18.4375 -19.300781 19.15625 -16.90625 20.59375 -15.0625 C 22.039062 -13.21875 24.09375 -12.296875 26.75 -12.296875 Z M 26.75 -12.296875 "/></g></g></g><g fill="#347480" fill-opacity="1"><g transform="translate(402.761205, 72.856943)"><g><path d="M 2.859375 -44.578125 L 18.265625 -44.578125 L 18.265625 -17.921875 C 18.265625 -15.316406 18.695312 -13.46875 19.5625 -12.375 C 20.425781 -11.28125 21.722656 -10.734375 23.453125 -10.734375 C 25.359375 -10.734375 26.703125 -11.28125 27.484375 -12.375 C 28.265625 -13.46875 28.65625 -15.316406 28.65625 -17.921875 L 28.65625 -44.578125 L 44.0625 -44.578125 L 44.0625 0 L 28.65625 0 L 28.65625 -3.984375 C 27.789062 -2.890625 26.675781 -2.007812 25.3125 -1.34375 C 23.957031 -0.675781 22.613281 -0.210938 21.28125 0.046875 C 19.957031 0.304688 18.863281 0.4375 18 0.4375 C 12.519531 0.4375 8.640625 -1.148438 6.359375 -4.328125 C 4.078125 -7.503906 2.9375 -12.148438 2.9375 -18.265625 Z M 2.859375 -44.578125 "/></g></g></g><g fill="#347480" fill-opacity="1"><g transform="translate(448.894853, 72.856943)"><g><path d="M 20.25 -59.03125 C 20.25 -57.007812 19.5 -55.304688 18 -53.921875 C 16.5 -52.535156 14.625 -51.84375 12.375 -51.84375 C 10.238281 -51.84375 8.390625 -52.535156 6.828125 -53.921875 C 5.273438 -55.304688 4.5 -57.007812 4.5 -59.03125 C 4.5 -61 5.273438 -62.675781 6.828125 -64.0625 C 8.390625 -65.445312 10.238281 -66.140625 12.375 -66.140625 C 14.625 -66.140625 16.5 -65.445312 18 -64.0625 C 19.5 -62.675781 20.25 -61 20.25 -59.03125 Z M 20.34375 0 L 4.0625 0 L 4.0625 -44.578125 L 20.34375 -44.578125 Z M 20.34375 0 "/></g></g></g><g fill="#347480" fill-opacity="1"><g transform="translate(472.610854, 72.856943)"><g><path d="M 21.296875 -45.015625 C 22.390625 -45.015625 23.769531 -44.910156 25.4375 -44.703125 C 27.113281 -44.503906 28.859375 -43.972656 30.671875 -43.109375 C 32.492188 -42.242188 34.15625 -40.769531 35.65625 -38.6875 L 35.65625 -67.515625 L 52.109375 -67.515625 L 52.109375 0 L 35.65625 0 L 35.65625 -5.890625 C 34.15625 -3.867188 32.492188 -2.410156 30.671875 -1.515625 C 28.859375 -0.617188 27.113281 -0.0703125 25.4375 0.125 C 23.769531 0.332031 22.390625 0.4375 21.296875 0.4375 C 17.953125 0.4375 14.847656 -0.382812 11.984375 -2.03125 C 9.128906 -3.675781 6.847656 -6.1875 5.140625 -9.5625 C 3.441406 -12.9375 2.59375 -17.191406 2.59375 -22.328125 C 2.59375 -27.179688 3.441406 -31.296875 5.140625 -34.671875 C 6.847656 -38.046875 9.128906 -40.613281 11.984375 -42.375 C 14.847656 -44.132812 17.953125 -45.015625 21.296875 -45.015625 Z M 27.359375 -12.296875 C 30.066406 -12.296875 32.125 -13.242188 33.53125 -15.140625 C 34.945312 -17.046875 35.65625 -19.441406 35.65625 -22.328125 C 35.65625 -25.210938 34.945312 -27.59375 33.53125 -29.46875 C 32.125 -31.34375 30.066406 -32.28125 27.359375 -32.28125 C 24.703125 -32.28125 22.648438 -31.34375 21.203125 -29.46875 C 19.765625 -27.59375 19.046875 -25.210938 19.046875 -22.328125 C 19.046875 -19.441406 19.765625 -17.046875 21.203125 -15.140625 C 22.648438 -13.242188 24.703125 -12.296875 27.359375 -12.296875 Z M 27.359375 -12.296875 "/></g></g></g><g fill="#347480" fill-opacity="1"><g transform="translate(526.707529, 72.856943)"><g><path d="M 48.296875 -17.484375 L 20 -17.921875 C 20 -16.066406 20.832031 -14.664062 22.5 -13.71875 C 24.175781 -12.769531 25.992188 -12.296875 27.953125 -12.296875 C 29.222656 -12.296875 30.679688 -12.566406 32.328125 -13.109375 C 33.972656 -13.660156 35.257812 -14.484375 36.1875 -15.578125 L 45.96875 -6.671875 C 43.3125 -4.128906 40.410156 -2.304688 37.265625 -1.203125 C 34.117188 -0.109375 30.640625 0.4375 26.828125 0.4375 C 21.984375 0.4375 17.816406 -0.613281 14.328125 -2.71875 C 10.835938 -4.832031 8.15625 -7.648438 6.28125 -11.171875 C 4.40625 -14.691406 3.46875 -18.554688 3.46875 -22.765625 C 3.46875 -26.972656 4.347656 -30.75 6.109375 -34.09375 C 7.867188 -37.445312 10.390625 -40.101562 13.671875 -42.0625 C 16.960938 -44.03125 20.914062 -45.015625 25.53125 -45.015625 C 30.269531 -45.015625 34.335938 -44.019531 37.734375 -42.03125 C 41.140625 -40.039062 43.75 -37.328125 45.5625 -33.890625 C 47.382812 -30.453125 48.296875 -26.539062 48.296875 -22.15625 Z M 31.859375 -26.578125 C 31.859375 -28.242188 31.265625 -29.597656 30.078125 -30.640625 C 28.898438 -31.679688 27.382812 -32.203125 25.53125 -32.203125 C 23.800781 -32.203125 22.429688 -31.722656 21.421875 -30.765625 C 20.410156 -29.816406 19.90625 -28.421875 19.90625 -26.578125 Z M 31.859375 -26.578125 "/></g></g></g><g fill="#68ada7" fill-opacity="1"><g transform="translate(576.140598, 72.856943)"><g/></g></g><g fill="#68ada7" fill-opacity="1"><g transform="translate(604.963308, 72.856943)"><g><path d="M 49.515625 0 L 33.0625 0 L 33.328125 -0.34375 L 33.328125 -17.75 C 33.328125 -20.75 33.210938 -23.316406 32.984375 -25.453125 C 32.753906 -27.585938 32.144531 -29.242188 31.15625 -30.421875 C 30.175781 -31.609375 28.5625 -32.203125 26.3125 -32.203125 C 23.882812 -32.203125 22.195312 -31.609375 21.25 -30.421875 C 20.300781 -29.242188 19.738281 -27.585938 19.5625 -25.453125 C 19.382812 -23.316406 19.296875 -20.75 19.296875 -17.75 L 19.296875 0 L 2.859375 0 L 2.859375 -44.578125 L 19.296875 -44.578125 L 19.296875 -37.734375 C 20.453125 -39.640625 21.984375 -41.328125 23.890625 -42.796875 C 25.796875 -44.273438 28.421875 -45.015625 31.765625 -45.015625 C 35.691406 -45.015625 38.707031 -44.078125 40.8125 -42.203125 C 42.914062 -40.328125 44.257812 -37.859375 44.84375 -34.796875 C 46.164062 -37.859375 48.351562 -40.328125 51.40625 -42.203125 C 54.46875 -44.078125 58.050781 -45.015625 62.15625 -45.015625 C 65.4375 -45.015625 68.421875 -44.40625 71.109375 -43.1875 C 73.796875 -41.976562 75.945312 -40.117188 77.5625 -37.609375 C 79.175781 -35.097656 79.984375 -31.878906 79.984375 -27.953125 L 79.984375 0 L 63.53125 0 L 63.53125 -17.75 C 63.53125 -20.75 63.457031 -23.316406 63.3125 -25.453125 C 63.175781 -27.585938 62.628906 -29.242188 61.671875 -30.421875 C 60.722656 -31.609375 59.007812 -32.203125 56.53125 -32.203125 C 54.445312 -32.203125 52.914062 -31.609375 51.9375 -30.421875 C 50.957031 -29.242188 50.304688 -27.585938 49.984375 -25.453125 C 49.671875 -23.316406 49.515625 -20.75 49.515625 -17.75 Z M 49.515625 0 "/></g></g></g><g fill="#68ada7" fill-opacity="1"><g transform="translate(686.930613, 72.856943)"><g><path d="M 27.53125 -45.015625 C 33.875 -45.015625 38.585938 -43.328125 41.671875 -39.953125 C 44.765625 -36.578125 46.3125 -31.742188 46.3125 -25.453125 L 46.3125 0 L 29.859375 0 L 29.859375 -4.84375 C 29.460938 -4.15625 28.875 -3.40625 28.09375 -2.59375 C 27.3125 -1.789062 26.171875 -1.082031 24.671875 -0.46875 C 23.171875 0.132812 21.0625 0.4375 18.34375 0.4375 C 13.445312 0.4375 9.882812 -0.773438 7.65625 -3.203125 C 5.4375 -5.628906 4.328125 -8.742188 4.328125 -12.546875 C 4.328125 -16.179688 5.132812 -19.050781 6.75 -21.15625 C 8.363281 -23.269531 10.65625 -24.769531 13.625 -25.65625 C 16.601562 -26.550781 20.054688 -27 23.984375 -27 L 29.859375 -27 C 29.859375 -28.507812 29.566406 -29.640625 28.984375 -30.390625 C 28.410156 -31.140625 27.734375 -31.628906 26.953125 -31.859375 C 26.179688 -32.085938 25.445312 -32.203125 24.75 -32.203125 C 23.71875 -32.203125 22.519531 -31.96875 21.15625 -31.5 C 19.800781 -31.039062 18.460938 -30.234375 17.140625 -29.078125 L 8.046875 -37.21875 C 10.066406 -39.300781 12.722656 -41.117188 16.015625 -42.671875 C 19.304688 -44.234375 23.144531 -45.015625 27.53125 -45.015625 Z M 29.859375 -14.796875 L 29.859375 -16.1875 L 26.484375 -16.1875 C 24.347656 -16.1875 22.863281 -15.953125 22.03125 -15.484375 C 21.195312 -15.023438 20.78125 -14.132812 20.78125 -12.8125 C 20.78125 -10.5625 22.191406 -9.4375 25.015625 -9.4375 C 27.035156 -9.4375 28.347656 -9.96875 28.953125 -11.03125 C 29.554688 -12.101562 29.859375 -13.359375 29.859375 -14.796875 Z M 29.859375 -14.796875 "/></g></g></g><g fill="#68ada7" fill-opacity="1"><g transform="translate(736.699567, 72.856943)"><g><path d="M 35.140625 -44.578125 L 51.5 -44.578125 L 51.5 -5.28125 C 51.5 -1.238281 50.820312 2.164062 49.46875 4.9375 C 48.113281 7.707031 46.296875 9.941406 44.015625 11.640625 C 41.734375 13.347656 39.191406 14.578125 36.390625 15.328125 C 33.597656 16.078125 30.757812 16.453125 27.875 16.453125 C 27.125 16.453125 25.535156 16.453125 23.109375 16.453125 C 20.679688 16.453125 17.664062 16.117188 14.0625 15.453125 C 10.457031 14.785156 6.460938 13.5 2.078125 11.59375 L 9.265625 1.03125 C 12.203125 2.019531 14.632812 2.703125 16.5625 3.078125 C 18.5 3.453125 20.117188 3.648438 21.421875 3.671875 C 22.722656 3.703125 23.894531 3.71875 24.9375 3.71875 C 26.195312 3.71875 27.617188 3.488281 29.203125 3.03125 C 30.796875 2.570312 32.179688 1.660156 33.359375 0.296875 C 34.546875 -1.054688 35.140625 -3.085938 35.140625 -5.796875 C 33.640625 -3.773438 31.96875 -2.332031 30.125 -1.46875 C 28.28125 -0.601562 26.519531 -0.0703125 24.84375 0.125 C 23.164062 0.332031 21.78125 0.4375 20.6875 0.4375 C 17.34375 0.4375 14.238281 -0.441406 11.375 -2.203125 C 8.519531 -3.960938 6.238281 -6.53125 4.53125 -9.90625 C 2.832031 -13.28125 1.984375 -17.394531 1.984375 -22.25 C 1.984375 -27.4375 2.832031 -31.703125 4.53125 -35.046875 C 6.238281 -38.398438 8.519531 -40.898438 11.375 -42.546875 C 14.238281 -44.191406 17.34375 -45.015625 20.6875 -45.015625 C 21.78125 -45.015625 23.164062 -44.910156 24.84375 -44.703125 C 26.519531 -44.503906 28.28125 -43.957031 30.125 -43.0625 C 31.96875 -42.164062 33.640625 -40.707031 35.140625 -38.6875 Z M 26.75 -12.296875 C 29.457031 -12.296875 31.53125 -13.21875 32.96875 -15.0625 C 34.414062 -16.90625 35.140625 -19.300781 35.140625 -22.25 C 35.140625 -25.132812 34.414062 -27.515625 32.96875 -29.390625 C 31.53125 -31.265625 29.457031 -32.203125 26.75 -32.203125 C 24.09375 -32.203125 22.039062 -31.265625 20.59375 -29.390625 C 19.15625 -27.515625 18.4375 -25.132812 18.4375 -22.25 C 18.4375 -19.300781 19.15625 -16.90625 20.59375 -15.0625 C 22.039062 -13.21875 24.09375 -12.296875 26.75 -12.296875 Z M 26.75 -12.296875 "/></g></g></g><g fill="#68ada7" fill-opacity="1"><g transform="translate(790.796265, 72.856943)"><g><path d="M 27.53125 -45.015625 C 33.875 -45.015625 38.585938 -43.328125 41.671875 -39.953125 C 44.765625 -36.578125 46.3125 -31.742188 46.3125 -25.453125 L 46.3125 0 L 29.859375 0 L 29.859375 -4.84375 C 29.460938 -4.15625 28.875 -3.40625 28.09375 -2.59375 C 27.3125 -1.789062 26.171875 -1.082031 24.671875 -0.46875 C 23.171875 0.132812 21.0625 0.4375 18.34375 0.4375 C 13.445312 0.4375 9.882812 -0.773438 7.65625 -3.203125 C 5.4375 -5.628906 4.328125 -8.742188 4.328125 -12.546875 C 4.328125 -16.179688 5.132812 -19.050781 6.75 -21.15625 C 8.363281 -23.269531 10.65625 -24.769531 13.625 -25.65625 C 16.601562 -26.550781 20.054688 -27 23.984375 -27 L 29.859375 -27 C 29.859375 -28.507812 29.566406 -29.640625 28.984375 -30.390625 C 28.410156 -31.140625 27.734375 -31.628906 26.953125 -31.859375 C 26.179688 -32.085938 25.445312 -32.203125 24.75 -32.203125 C 23.71875 -32.203125 22.519531 -31.96875 21.15625 -31.5 C 19.800781 -31.039062 18.460938 -30.234375 17.140625 -29.078125 L 8.046875 -37.21875 C 10.066406 -39.300781 12.722656 -41.117188 16.015625 -42.671875 C 19.304688 -44.234375 23.144531 -45.015625 27.53125 -45.015625 Z M 29.859375 -14.796875 L 29.859375 -16.1875 L 26.484375 -16.1875 C 24.347656 -16.1875 22.863281 -15.953125 22.03125 -15.484375 C 21.195312 -15.023438 20.78125 -14.132812 20.78125 -12.8125 C 20.78125 -10.5625 22.191406 -9.4375 25.015625 -9.4375 C 27.035156 -9.4375 28.347656 -9.96875 28.953125 -11.03125 C 29.554688 -12.101562 29.859375 -13.359375 29.859375 -14.796875 Z M 29.859375 -14.796875 "/></g></g></g><g fill="#68ada7" fill-opacity="1"><g transform="translate(840.565198, 72.856943)"><g><path d="M 39.640625 -31.421875 L 20 -12.71875 L 39.640625 -12.71875 L 39.640625 0 L 2.59375 0 L 2.59375 -13.59375 L 22.328125 -31.765625 L 2.59375 -31.765625 L 2.59375 -44.578125 L 39.640625 -44.578125 Z M 39.640625 -31.421875 "/></g></g></g><g fill="#68ada7" fill-opacity="1"><g transform="translate(881.938355, 72.856943)"><g><path d="M 20.25 -59.03125 C 20.25 -57.007812 19.5 -55.304688 18 -53.921875 C 16.5 -52.535156 14.625 -51.84375 12.375 -51.84375 C 10.238281 -51.84375 8.390625 -52.535156 6.828125 -53.921875 C 5.273438 -55.304688 4.5 -57.007812 4.5 -59.03125 C 4.5 -61 5.273438 -62.675781 6.828125 -64.0625 C 8.390625 -65.445312 10.238281 -66.140625 12.375 -66.140625 C 14.625 -66.140625 16.5 -65.445312 18 -64.0625 C 19.5 -62.675781 20.25 -61 20.25 -59.03125 Z M 20.34375 0 L 4.0625 0 L 4.0625 -44.578125 L 20.34375 -44.578125 Z M 20.34375 0 "/></g></g></g><g fill="#68ada7" fill-opacity="1"><g transform="translate(905.654334, 72.856943)"><g><path d="M 44.0625 0 L 28.65625 0 L 28.65625 -26.578125 C 28.65625 -29.171875 28.222656 -31.03125 27.359375 -32.15625 C 26.492188 -33.28125 25.191406 -33.84375 23.453125 -33.84375 C 21.609375 -33.84375 20.28125 -33.28125 19.46875 -32.15625 C 18.664062 -31.03125 18.265625 -29.171875 18.265625 -26.578125 L 18.265625 0 L 2.859375 0 L 2.859375 -44.578125 L 18.265625 -44.578125 L 18.265625 -40.59375 C 19.191406 -41.75 20.332031 -42.644531 21.6875 -43.28125 C 23.039062 -43.914062 24.394531 -44.363281 25.75 -44.625 C 27.101562 -44.882812 28.1875 -45.015625 29 -45.015625 C 34.476562 -45.015625 38.34375 -43.425781 40.59375 -40.25 C 42.84375 -37.070312 43.96875 -32.398438 43.96875 -26.234375 Z M 44.0625 0 "/></g></g></g><g fill="#68ada7" fill-opacity="1"><g transform="translate(951.788004, 72.856943)"><g><path d="M 48.296875 -17.484375 L 20 -17.921875 C 20 -16.066406 20.832031 -14.664062 22.5 -13.71875 C 24.175781 -12.769531 25.992188 -12.296875 27.953125 -12.296875 C 29.222656 -12.296875 30.679688 -12.566406 32.328125 -13.109375 C 33.972656 -13.660156 35.257812 -14.484375 36.1875 -15.578125 L 45.96875 -6.671875 C 43.3125 -4.128906 40.410156 -2.304688 37.265625 -1.203125 C 34.117188 -0.109375 30.640625 0.4375 26.828125 0.4375 C 21.984375 0.4375 17.816406 -0.613281 14.328125 -2.71875 C 10.835938 -4.832031 8.15625 -7.648438 6.28125 -11.171875 C 4.40625 -14.691406 3.46875 -18.554688 3.46875 -22.765625 C 3.46875 -26.972656 4.347656 -30.75 6.109375 -34.09375 C 7.867188 -37.445312 10.390625 -40.101562 13.671875 -42.0625 C 16.960938 -44.03125 20.914062 -45.015625 25.53125 -45.015625 C 30.269531 -45.015625 34.335938 -44.019531 37.734375 -42.03125 C 41.140625 -40.039062 43.75 -37.328125 45.5625 -33.890625 C 47.382812 -30.453125 48.296875 -26.539062 48.296875 -22.15625 Z M 31.859375 -26.578125 C 31.859375 -28.242188 31.265625 -29.597656 30.078125 -30.640625 C 28.898438 -31.679688 27.382812 -32.203125 25.53125 -32.203125 C 23.800781 -32.203125 22.429688 -31.722656 21.421875 -30.765625 C 20.410156 -29.816406 19.90625 -28.421875 19.90625 -26.578125 Z M 31.859375 -26.578125 "/></g></g></g></svg>