<svg xmlns="http://www.w3.org/2000/svg" xmlns:xlink="http://www.w3.org/1999/xlink" width="1344" zoomAndPan="magnify" viewBox="0 0 1008 119.999999" height="160" preserveAspectRatio="xMidYMid meet" version="1.0"><defs><g/><clipPath id="a558e1d9d3"><rect x="0" width="222" y="0" height="61"/></clipPath></defs><g fill="#347480" fill-opacity="1"><g transform="translate(6.773443, 98.593047)"><g><path d="M 21.296875 -45.015625 C 22.390625 -45.015625 23.769531 -44.910156 25.4375 -44.703125 C 27.113281 -44.503906 28.859375 -43.972656 30.671875 -43.109375 C 32.492188 -42.242188 34.15625 -40.769531 35.65625 -38.6875 L 35.65625 -67.515625 L 52.109375 -67.515625 L 52.109375 0 L 35.65625 0 L 35.65625 -5.890625 C 34.15625 -3.867188 32.492188 -2.410156 30.671875 -1.515625 C 28.859375 -0.617188 27.113281 -0.0703125 25.4375 0.125 C 23.769531 0.332031 22.390625 0.4375 21.296875 0.4375 C 17.953125 0.4375 14.847656 -0.382812 11.984375 -2.03125 C 9.128906 -3.675781 6.847656 -6.1875 5.140625 -9.5625 C 3.441406 -12.9375 2.59375 -17.191406 2.59375 -22.328125 C 2.59375 -27.179688 3.441406 -31.296875 5.140625 -34.671875 C 6.847656 -38.046875 9.128906 -40.613281 11.984375 -42.375 C 14.847656 -44.132812 17.953125 -45.015625 21.296875 -45.015625 Z M 27.359375 -12.296875 C 30.066406 -12.296875 32.125 -13.242188 33.53125 -15.140625 C 34.945312 -17.046875 35.65625 -19.441406 35.65625 -22.328125 C 35.65625 -25.210938 34.945312 -27.59375 33.53125 -29.46875 C 32.125 -31.34375 30.066406 -32.28125 27.359375 -32.28125 C 24.703125 -32.28125 22.648438 -31.34375 21.203125 -29.46875 C 19.765625 -27.59375 19.046875 -25.210938 19.046875 -22.328125 C 19.046875 -19.441406 19.765625 -17.046875 21.203125 -15.140625 C 22.648438 -13.242188 24.703125 -12.296875 27.359375 -12.296875 Z M 27.359375 -12.296875 "/></g></g></g><g fill="#347480" fill-opacity="1"><g transform="translate(60.870132, 98.593047)"><g><path d="M 20.25 -59.03125 C 20.25 -57.007812 19.5 -55.304688 18 -53.921875 C 16.5 -52.535156 14.625 -51.84375 12.375 -51.84375 C 10.238281 -51.84375 8.390625 -52.535156 6.828125 -53.921875 C 5.273438 -55.304688 4.5 -57.007812 4.5 -59.03125 C 4.5 -61 5.273438 -62.675781 6.828125 -64.0625 C 8.390625 -65.445312 10.238281 -66.140625 12.375 -66.140625 C 14.625 -66.140625 16.5 -65.445312 18 -64.0625 C 19.5 -62.675781 20.25 -61 20.25 -59.03125 Z M 20.34375 0 L 4.0625 0 L 4.0625 -44.578125 L 20.34375 -44.578125 Z M 20.34375 0 "/></g></g></g><g fill="#347480" fill-opacity="1"><g transform="translate(84.586123, 98.593047)"><g><path d="M 21.546875 0 L 0.265625 -44.578125 L 16.359375 -44.578125 L 26.65625 -21.375 L 37.046875 -44.578125 L 52.96875 -44.578125 L 31.9375 0 Z M 21.546875 0 "/></g></g></g><g fill="#347480" fill-opacity="1"><g transform="translate(138.423145, 98.593047)"><g><path d="M 25.109375 -45.015625 C 29.203125 -45.015625 33.050781 -44.191406 36.65625 -42.546875 C 40.257812 -40.898438 43.1875 -38.390625 45.4375 -35.015625 C 47.695312 -31.640625 48.828125 -27.351562 48.828125 -22.15625 C 48.828125 -16.96875 47.695312 -12.695312 45.4375 -9.34375 C 43.1875 -6 40.257812 -3.53125 36.65625 -1.9375 C 33.050781 -0.351562 29.203125 0.4375 25.109375 0.4375 C 21.003906 0.4375 17.148438 -0.351562 13.546875 -1.9375 C 9.941406 -3.53125 7.023438 -6 4.796875 -9.34375 C 2.578125 -12.695312 1.46875 -16.96875 1.46875 -22.15625 C 1.46875 -27.351562 2.578125 -31.640625 4.796875 -35.015625 C 7.023438 -38.390625 9.941406 -40.898438 13.546875 -42.546875 C 17.148438 -44.191406 21.003906 -45.015625 25.109375 -45.015625 Z M 25.109375 -32.203125 C 23.140625 -32.203125 21.632812 -31.722656 20.59375 -30.765625 C 19.5625 -29.816406 18.84375 -28.59375 18.4375 -27.09375 C 18.03125 -25.59375 17.828125 -23.945312 17.828125 -22.15625 C 17.828125 -20.425781 18.03125 -18.8125 18.4375 -17.3125 C 18.84375 -15.8125 19.5625 -14.597656 20.59375 -13.671875 C 21.632812 -12.753906 23.140625 -12.296875 25.109375 -12.296875 C 27.117188 -12.296875 28.644531 -12.753906 29.6875 -13.671875 C 30.726562 -14.597656 31.4375 -15.8125 31.8125 -17.3125 C 32.1875 -18.8125 32.375 -20.425781 32.375 -22.15625 C 32.375 -23.945312 32.1875 -25.59375 31.8125 -27.09375 C 31.4375 -28.59375 30.726562 -29.816406 29.6875 -30.765625 C 28.644531 -31.722656 27.117188 -32.203125 25.109375 -32.203125 Z M 25.109375 -32.203125 "/></g></g></g><g fill="#347480" fill-opacity="1"><g transform="translate(188.365205, 98.593047)"><g><path d="M 35.0625 -29.4375 C 34.769531 -29.71875 34.046875 -30.25 32.890625 -31.03125 C 31.734375 -31.8125 30.234375 -32.203125 28.390625 -32.203125 C 24.703125 -32.203125 22.265625 -30.929688 21.078125 -28.390625 C 19.890625 -25.847656 19.296875 -21.722656 19.296875 -16.015625 L 19.296875 0 L 2.859375 0 L 2.859375 -44.578125 L 19.296875 -44.578125 L 19.296875 -37.3125 C 20.109375 -40.019531 21.347656 -41.976562 23.015625 -43.1875 C 24.691406 -44.40625 27.03125 -45.015625 30.03125 -45.015625 C 31.644531 -45.015625 33.03125 -44.722656 34.1875 -44.140625 C 35.34375 -43.566406 36.269531 -42.847656 36.96875 -41.984375 Z M 35.0625 -29.4375 "/></g></g></g><g fill="#347480" fill-opacity="1"><g transform="translate(226.189609, 98.593047)"><g><path d="M 43.625 -9.265625 C 41.664062 -6.265625 39.253906 -3.894531 36.390625 -2.15625 C 33.535156 -0.425781 29.628906 0.4375 24.671875 0.4375 C 20.515625 0.4375 16.71875 -0.570312 13.28125 -2.59375 C 9.851562 -4.613281 7.113281 -7.335938 5.0625 -10.765625 C 3.007812 -14.203125 1.984375 -18 1.984375 -22.15625 C 1.984375 -25.269531 2.578125 -28.210938 3.765625 -30.984375 C 4.953125 -33.753906 6.582031 -36.191406 8.65625 -38.296875 C 10.726562 -40.410156 13.132812 -42.054688 15.875 -43.234375 C 18.625 -44.421875 21.554688 -45.015625 24.671875 -45.015625 C 29.628906 -45.015625 33.535156 -44.144531 36.390625 -42.40625 C 39.253906 -40.675781 41.664062 -38.3125 43.625 -35.3125 L 34.1875 -26.921875 C 33.269531 -28.648438 32.316406 -29.875 31.328125 -30.59375 C 30.347656 -31.320312 29.410156 -31.769531 28.515625 -31.9375 C 27.628906 -32.113281 26.835938 -32.203125 26.140625 -32.203125 C 23.484375 -32.203125 21.535156 -31.21875 20.296875 -29.25 C 19.054688 -27.289062 18.4375 -24.925781 18.4375 -22.15625 C 18.4375 -19.445312 19.054688 -17.125 20.296875 -15.1875 C 21.535156 -13.257812 23.484375 -12.296875 26.140625 -12.296875 C 26.835938 -12.296875 27.628906 -12.363281 28.515625 -12.5 C 29.410156 -12.644531 30.347656 -13.09375 31.328125 -13.84375 C 32.316406 -14.59375 33.269531 -15.863281 34.1875 -17.65625 Z M 43.625 -9.265625 "/></g></g></g><g fill="#347480" fill-opacity="1"><g transform="translate(270.419076, 98.593047)"><g><path d="M 48.296875 -17.484375 L 20 -17.921875 C 20 -16.066406 20.832031 -14.664062 22.5 -13.71875 C 24.175781 -12.769531 25.992188 -12.296875 27.953125 -12.296875 C 29.222656 -12.296875 30.679688 -12.566406 32.328125 -13.109375 C 33.972656 -13.660156 35.257812 -14.484375 36.1875 -15.578125 L 45.96875 -6.671875 C 43.3125 -4.128906 40.410156 -2.304688 37.265625 -1.203125 C 34.117188 -0.109375 30.640625 0.4375 26.828125 0.4375 C 21.984375 0.4375 17.816406 -0.613281 14.328125 -2.71875 C 10.835938 -4.832031 8.15625 -7.648438 6.28125 -11.171875 C 4.40625 -14.691406 3.46875 -18.554688 3.46875 -22.765625 C 3.46875 -26.972656 4.347656 -30.75 6.109375 -34.09375 C 7.867188 -37.445312 10.390625 -40.101562 13.671875 -42.0625 C 16.960938 -44.03125 20.914062 -45.015625 25.53125 -45.015625 C 30.269531 -45.015625 34.335938 -44.019531 37.734375 -42.03125 C 41.140625 -40.039062 43.75 -37.328125 45.5625 -33.890625 C 47.382812 -30.453125 48.296875 -26.539062 48.296875 -22.15625 Z M 31.859375 -26.578125 C 31.859375 -28.242188 31.265625 -29.597656 30.078125 -30.640625 C 28.898438 -31.679688 27.382812 -32.203125 25.53125 -32.203125 C 23.800781 -32.203125 22.429688 -31.722656 21.421875 -30.765625 C 20.410156 -29.816406 19.90625 -28.421875 19.90625 -26.578125 Z M 31.859375 -26.578125 "/></g></g></g><g fill="#347480" fill-opacity="1"><g transform="translate(319.841803, 98.593047)"><g/></g></g><g fill="#347480" fill-opacity="1"><g transform="translate(348.664525, 98.593047)"><g><path d="M 35.140625 -44.578125 L 51.5 -44.578125 L 51.5 -5.28125 C 51.5 -1.238281 50.820312 2.164062 49.46875 4.9375 C 48.113281 7.707031 46.296875 9.941406 44.015625 11.640625 C 41.734375 13.347656 39.191406 14.578125 36.390625 15.328125 C 33.597656 16.078125 30.757812 16.453125 27.875 16.453125 C 27.125 16.453125 25.535156 16.453125 23.109375 16.453125 C 20.679688 16.453125 17.664062 16.117188 14.0625 15.453125 C 10.457031 14.785156 6.460938 13.5 2.078125 11.59375 L 9.265625 1.03125 C 12.203125 2.019531 14.632812 2.703125 16.5625 3.078125 C 18.5 3.453125 20.117188 3.648438 21.421875 3.671875 C 22.722656 3.703125 23.894531 3.71875 24.9375 3.71875 C 26.195312 3.71875 27.617188 3.488281 29.203125 3.03125 C 30.796875 2.570312 32.179688 1.660156 33.359375 0.296875 C 34.546875 -1.054688 35.140625 -3.085938 35.140625 -5.796875 C 33.640625 -3.773438 31.96875 -2.332031 30.125 -1.46875 C 28.28125 -0.601562 26.519531 -0.0703125 24.84375 0.125 C 23.164062 0.332031 21.78125 0.4375 20.6875 0.4375 C 17.34375 0.4375 14.238281 -0.441406 11.375 -2.203125 C 8.519531 -3.960938 6.238281 -6.53125 4.53125 -9.90625 C 2.832031 -13.28125 1.984375 -17.394531 1.984375 -22.25 C 1.984375 -27.4375 2.832031 -31.703125 4.53125 -35.046875 C 6.238281 -38.398438 8.519531 -40.898438 11.375 -42.546875 C 14.238281 -44.191406 17.34375 -45.015625 20.6875 -45.015625 C 21.78125 -45.015625 23.164062 -44.910156 24.84375 -44.703125 C 26.519531 -44.503906 28.28125 -43.957031 30.125 -43.0625 C 31.96875 -42.164062 33.640625 -40.707031 35.140625 -38.6875 Z M 26.75 -12.296875 C 29.457031 -12.296875 31.53125 -13.21875 32.96875 -15.0625 C 34.414062 -16.90625 35.140625 -19.300781 35.140625 -22.25 C 35.140625 -25.132812 34.414062 -27.515625 32.96875 -29.390625 C 31.53125 -31.265625 29.457031 -32.203125 26.75 -32.203125 C 24.09375 -32.203125 22.039062 -31.265625 20.59375 -29.390625 C 19.15625 -27.515625 18.4375 -25.132812 18.4375 -22.25 C 18.4375 -19.300781 19.15625 -16.90625 20.59375 -15.0625 C 22.039062 -13.21875 24.09375 -12.296875 26.75 -12.296875 Z M 26.75 -12.296875 "/></g></g></g><g fill="#347480" fill-opacity="1"><g transform="translate(402.761201, 98.593047)"><g><path d="M 2.859375 -44.578125 L 18.265625 -44.578125 L 18.265625 -17.921875 C 18.265625 -15.316406 18.695312 -13.46875 19.5625 -12.375 C 20.425781 -11.28125 21.722656 -10.734375 23.453125 -10.734375 C 25.359375 -10.734375 26.703125 -11.28125 27.484375 -12.375 C 28.265625 -13.46875 28.65625 -15.316406 28.65625 -17.921875 L 28.65625 -44.578125 L 44.0625 -44.578125 L 44.0625 0 L 28.65625 0 L 28.65625 -3.984375 C 27.789062 -2.890625 26.675781 -2.007812 25.3125 -1.34375 C 23.957031 -0.675781 22.613281 -0.210938 21.28125 0.046875 C 19.957031 0.304688 18.863281 0.4375 18 0.4375 C 12.519531 0.4375 8.640625 -1.148438 6.359375 -4.328125 C 4.078125 -7.503906 2.9375 -12.148438 2.9375 -18.265625 Z M 2.859375 -44.578125 "/></g></g></g><g fill="#347480" fill-opacity="1"><g transform="translate(448.894851, 98.593047)"><g><path d="M 20.25 -59.03125 C 20.25 -57.007812 19.5 -55.304688 18 -53.921875 C 16.5 -52.535156 14.625 -51.84375 12.375 -51.84375 C 10.238281 -51.84375 8.390625 -52.535156 6.828125 -53.921875 C 5.273438 -55.304688 4.5 -57.007812 4.5 -59.03125 C 4.5 -61 5.273438 -62.675781 6.828125 -64.0625 C 8.390625 -65.445312 10.238281 -66.140625 12.375 -66.140625 C 14.625 -66.140625 16.5 -65.445312 18 -64.0625 C 19.5 -62.675781 20.25 -61 20.25 -59.03125 Z M 20.34375 0 L 4.0625 0 L 4.0625 -44.578125 L 20.34375 -44.578125 Z M 20.34375 0 "/></g></g></g><g fill="#347480" fill-opacity="1"><g transform="translate(472.610853, 98.593047)"><g><path d="M 21.296875 -45.015625 C 22.390625 -45.015625 23.769531 -44.910156 25.4375 -44.703125 C 27.113281 -44.503906 28.859375 -43.972656 30.671875 -43.109375 C 32.492188 -42.242188 34.15625 -40.769531 35.65625 -38.6875 L 35.65625 -67.515625 L 52.109375 -67.515625 L 52.109375 0 L 35.65625 0 L 35.65625 -5.890625 C 34.15625 -3.867188 32.492188 -2.410156 30.671875 -1.515625 C 28.859375 -0.617188 27.113281 -0.0703125 25.4375 0.125 C 23.769531 0.332031 22.390625 0.4375 21.296875 0.4375 C 17.953125 0.4375 14.847656 -0.382812 11.984375 -2.03125 C 9.128906 -3.675781 6.847656 -6.1875 5.140625 -9.5625 C 3.441406 -12.9375 2.59375 -17.191406 2.59375 -22.328125 C 2.59375 -27.179688 3.441406 -31.296875 5.140625 -34.671875 C 6.847656 -38.046875 9.128906 -40.613281 11.984375 -42.375 C 14.847656 -44.132812 17.953125 -45.015625 21.296875 -45.015625 Z M 27.359375 -12.296875 C 30.066406 -12.296875 32.125 -13.242188 33.53125 -15.140625 C 34.945312 -17.046875 35.65625 -19.441406 35.65625 -22.328125 C 35.65625 -25.210938 34.945312 -27.59375 33.53125 -29.46875 C 32.125 -31.34375 30.066406 -32.28125 27.359375 -32.28125 C 24.703125 -32.28125 22.648438 -31.34375 21.203125 -29.46875 C 19.765625 -27.59375 19.046875 -25.210938 19.046875 -22.328125 C 19.046875 -19.441406 19.765625 -17.046875 21.203125 -15.140625 C 22.648438 -13.242188 24.703125 -12.296875 27.359375 -12.296875 Z M 27.359375 -12.296875 "/></g></g></g><g fill="#347480" fill-opacity="1"><g transform="translate(526.70753, 98.593047)"><g><path d="M 48.296875 -17.484375 L 20 -17.921875 C 20 -16.066406 20.832031 -14.664062 22.5 -13.71875 C 24.175781 -12.769531 25.992188 -12.296875 27.953125 -12.296875 C 29.222656 -12.296875 30.679688 -12.566406 32.328125 -13.109375 C 33.972656 -13.660156 35.257812 -14.484375 36.1875 -15.578125 L 45.96875 -6.671875 C 43.3125 -4.128906 40.410156 -2.304688 37.265625 -1.203125 C 34.117188 -0.109375 30.640625 0.4375 26.828125 0.4375 C 21.984375 0.4375 17.816406 -0.613281 14.328125 -2.71875 C 10.835938 -4.832031 8.15625 -7.648438 6.28125 -11.171875 C 4.40625 -14.691406 3.46875 -18.554688 3.46875 -22.765625 C 3.46875 -26.972656 4.347656 -30.75 6.109375 -34.09375 C 7.867188 -37.445312 10.390625 -40.101562 13.671875 -42.0625 C 16.960938 -44.03125 20.914062 -45.015625 25.53125 -45.015625 C 30.269531 -45.015625 34.335938 -44.019531 37.734375 -42.03125 C 41.140625 -40.039062 43.75 -37.328125 45.5625 -33.890625 C 47.382812 -30.453125 48.296875 -26.539062 48.296875 -22.15625 Z M 31.859375 -26.578125 C 31.859375 -28.242188 31.265625 -29.597656 30.078125 -30.640625 C 28.898438 -31.679688 27.382812 -32.203125 25.53125 -32.203125 C 23.800781 -32.203125 22.429688 -31.722656 21.421875 -30.765625 C 20.410156 -29.816406 19.90625 -28.421875 19.90625 -26.578125 Z M 31.859375 -26.578125 "/></g></g></g><g fill="#68ada7" fill-opacity="1"><g transform="translate(576.1406, 98.593047)"><g/></g></g><g fill="#68ada7" fill-opacity="1"><g transform="translate(604.963311, 98.593047)"><g><path d="M 49.515625 0 L 33.0625 0 L 33.328125 -0.34375 L 33.328125 -17.75 C 33.328125 -20.75 33.210938 -23.316406 32.984375 -25.453125 C 32.753906 -27.585938 32.144531 -29.242188 31.15625 -30.421875 C 30.175781 -31.609375 28.5625 -32.203125 26.3125 -32.203125 C 23.882812 -32.203125 22.195312 -31.609375 21.25 -30.421875 C 20.300781 -29.242188 19.738281 -27.585938 19.5625 -25.453125 C 19.382812 -23.316406 19.296875 -20.75 19.296875 -17.75 L 19.296875 0 L 2.859375 0 L 2.859375 -44.578125 L 19.296875 -44.578125 L 19.296875 -37.734375 C 20.453125 -39.640625 21.984375 -41.328125 23.890625 -42.796875 C 25.796875 -44.273438 28.421875 -45.015625 31.765625 -45.015625 C 35.691406 -45.015625 38.707031 -44.078125 40.8125 -42.203125 C 42.914062 -40.328125 44.257812 -37.859375 44.84375 -34.796875 C 46.164062 -37.859375 48.351562 -40.328125 51.40625 -42.203125 C 54.46875 -44.078125 58.050781 -45.015625 62.15625 -45.015625 C 65.4375 -45.015625 68.421875 -44.40625 71.109375 -43.1875 C 73.796875 -41.976562 75.945312 -40.117188 77.5625 -37.609375 C 79.175781 -35.097656 79.984375 -31.878906 79.984375 -27.953125 L 79.984375 0 L 63.53125 0 L 63.53125 -17.75 C 63.53125 -20.75 63.457031 -23.316406 63.3125 -25.453125 C 63.175781 -27.585938 62.628906 -29.242188 61.671875 -30.421875 C 60.722656 -31.609375 59.007812 -32.203125 56.53125 -32.203125 C 54.445312 -32.203125 52.914062 -31.609375 51.9375 -30.421875 C 50.957031 -29.242188 50.304688 -27.585938 49.984375 -25.453125 C 49.671875 -23.316406 49.515625 -20.75 49.515625 -17.75 Z M 49.515625 0 "/></g></g></g><g fill="#68ada7" fill-opacity="1"><g transform="translate(686.930618, 98.593047)"><g><path d="M 27.53125 -45.015625 C 33.875 -45.015625 38.585938 -43.328125 41.671875 -39.953125 C 44.765625 -36.578125 46.3125 -31.742188 46.3125 -25.453125 L 46.3125 0 L 29.859375 0 L 29.859375 -4.84375 C 29.460938 -4.15625 28.875 -3.40625 28.09375 -2.59375 C 27.3125 -1.789062 26.171875 -1.082031 24.671875 -0.46875 C 23.171875 0.132812 21.0625 0.4375 18.34375 0.4375 C 13.445312 0.4375 9.882812 -0.773438 7.65625 -3.203125 C 5.4375 -5.628906 4.328125 -8.742188 4.328125 -12.546875 C 4.328125 -16.179688 5.132812 -19.050781 6.75 -21.15625 C 8.363281 -23.269531 10.65625 -24.769531 13.625 -25.65625 C 16.601562 -26.550781 20.054688 -27 23.984375 -27 L 29.859375 -27 C 29.859375 -28.507812 29.566406 -29.640625 28.984375 -30.390625 C 28.410156 -31.140625 27.734375 -31.628906 26.953125 -31.859375 C 26.179688 -32.085938 25.445312 -32.203125 24.75 -32.203125 C 23.71875 -32.203125 22.519531 -31.96875 21.15625 -31.5 C 19.800781 -31.039062 18.460938 -30.234375 17.140625 -29.078125 L 8.046875 -37.21875 C 10.066406 -39.300781 12.722656 -41.117188 16.015625 -42.671875 C 19.304688 -44.234375 23.144531 -45.015625 27.53125 -45.015625 Z M 29.859375 -14.796875 L 29.859375 -16.1875 L 26.484375 -16.1875 C 24.347656 -16.1875 22.863281 -15.953125 22.03125 -15.484375 C 21.195312 -15.023438 20.78125 -14.132812 20.78125 -12.8125 C 20.78125 -10.5625 22.191406 -9.4375 25.015625 -9.4375 C 27.035156 -9.4375 28.347656 -9.96875 28.953125 -11.03125 C 29.554688 -12.101562 29.859375 -13.359375 29.859375 -14.796875 Z M 29.859375 -14.796875 "/></g></g></g><g fill="#68ada7" fill-opacity="1"><g transform="translate(736.699574, 98.593047)"><g><path d="M 35.140625 -44.578125 L 51.5 -44.578125 L 51.5 -5.28125 C 51.5 -1.238281 50.820312 2.164062 49.46875 4.9375 C 48.113281 7.707031 46.296875 9.941406 44.015625 11.640625 C 41.734375 13.347656 39.191406 14.578125 36.390625 15.328125 C 33.597656 16.078125 30.757812 16.453125 27.875 16.453125 C 27.125 16.453125 25.535156 16.453125 23.109375 16.453125 C 20.679688 16.453125 17.664062 16.117188 14.0625 15.453125 C 10.457031 14.785156 6.460938 13.5 2.078125 11.59375 L 9.265625 1.03125 C 12.203125 2.019531 14.632812 2.703125 16.5625 3.078125 C 18.5 3.453125 20.117188 3.648438 21.421875 3.671875 C 22.722656 3.703125 23.894531 3.71875 24.9375 3.71875 C 26.195312 3.71875 27.617188 3.488281 29.203125 3.03125 C 30.796875 2.570312 32.179688 1.660156 33.359375 0.296875 C 34.546875 -1.054688 35.140625 -3.085938 35.140625 -5.796875 C 33.640625 -3.773438 31.96875 -2.332031 30.125 -1.46875 C 28.28125 -0.601562 26.519531 -0.0703125 24.84375 0.125 C 23.164062 0.332031 21.78125 0.4375 20.6875 0.4375 C 17.34375 0.4375 14.238281 -0.441406 11.375 -2.203125 C 8.519531 -3.960938 6.238281 -6.53125 4.53125 -9.90625 C 2.832031 -13.28125 1.984375 -17.394531 1.984375 -22.25 C 1.984375 -27.4375 2.832031 -31.703125 4.53125 -35.046875 C 6.238281 -38.398438 8.519531 -40.898438 11.375 -42.546875 C 14.238281 -44.191406 17.34375 -45.015625 20.6875 -45.015625 C 21.78125 -45.015625 23.164062 -44.910156 24.84375 -44.703125 C 26.519531 -44.503906 28.28125 -43.957031 30.125 -43.0625 C 31.96875 -42.164062 33.640625 -40.707031 35.140625 -38.6875 Z M 26.75 -12.296875 C 29.457031 -12.296875 31.53125 -13.21875 32.96875 -15.0625 C 34.414062 -16.90625 35.140625 -19.300781 35.140625 -22.25 C 35.140625 -25.132812 34.414062 -27.515625 32.96875 -29.390625 C 31.53125 -31.265625 29.457031 -32.203125 26.75 -32.203125 C 24.09375 -32.203125 22.039062 -31.265625 20.59375 -29.390625 C 19.15625 -27.515625 18.4375 -25.132812 18.4375 -22.25 C 18.4375 -19.300781 19.15625 -16.90625 20.59375 -15.0625 C 22.039062 -13.21875 24.09375 -12.296875 26.75 -12.296875 Z M 26.75 -12.296875 "/></g></g></g><g fill="#68ada7" fill-opacity="1"><g transform="translate(790.796274, 98.593047)"><g><path d="M 27.53125 -45.015625 C 33.875 -45.015625 38.585938 -43.328125 41.671875 -39.953125 C 44.765625 -36.578125 46.3125 -31.742188 46.3125 -25.453125 L 46.3125 0 L 29.859375 0 L 29.859375 -4.84375 C 29.460938 -4.15625 28.875 -3.40625 28.09375 -2.59375 C 27.3125 -1.789062 26.171875 -1.082031 24.671875 -0.46875 C 23.171875 0.132812 21.0625 0.4375 18.34375 0.4375 C 13.445312 0.4375 9.882812 -0.773438 7.65625 -3.203125 C 5.4375 -5.628906 4.328125 -8.742188 4.328125 -12.546875 C 4.328125 -16.179688 5.132812 -19.050781 6.75 -21.15625 C 8.363281 -23.269531 10.65625 -24.769531 13.625 -25.65625 C 16.601562 -26.550781 20.054688 -27 23.984375 -27 L 29.859375 -27 C 29.859375 -28.507812 29.566406 -29.640625 28.984375 -30.390625 C 28.410156 -31.140625 27.734375 -31.628906 26.953125 -31.859375 C 26.179688 -32.085938 25.445312 -32.203125 24.75 -32.203125 C 23.71875 -32.203125 22.519531 -31.96875 21.15625 -31.5 C 19.800781 -31.039062 18.460938 -30.234375 17.140625 -29.078125 L 8.046875 -37.21875 C 10.066406 -39.300781 12.722656 -41.117188 16.015625 -42.671875 C 19.304688 -44.234375 23.144531 -45.015625 27.53125 -45.015625 Z M 29.859375 -14.796875 L 29.859375 -16.1875 L 26.484375 -16.1875 C 24.347656 -16.1875 22.863281 -15.953125 22.03125 -15.484375 C 21.195312 -15.023438 20.78125 -14.132812 20.78125 -12.8125 C 20.78125 -10.5625 22.191406 -9.4375 25.015625 -9.4375 C 27.035156 -9.4375 28.347656 -9.96875 28.953125 -11.03125 C 29.554688 -12.101562 29.859375 -13.359375 29.859375 -14.796875 Z M 29.859375 -14.796875 "/></g></g></g><g fill="#68ada7" fill-opacity="1"><g transform="translate(840.565208, 98.593047)"><g><path d="M 39.640625 -31.421875 L 20 -12.71875 L 39.640625 -12.71875 L 39.640625 0 L 2.59375 0 L 2.59375 -13.59375 L 22.328125 -31.765625 L 2.59375 -31.765625 L 2.59375 -44.578125 L 39.640625 -44.578125 Z M 39.640625 -31.421875 "/></g></g></g><g fill="#68ada7" fill-opacity="1"><g transform="translate(881.938367, 98.593047)"><g><path d="M 20.25 -59.03125 C 20.25 -57.007812 19.5 -55.304688 18 -53.921875 C 16.5 -52.535156 14.625 -51.84375 12.375 -51.84375 C 10.238281 -51.84375 8.390625 -52.535156 6.828125 -53.921875 C 5.273438 -55.304688 4.5 -57.007812 4.5 -59.03125 C 4.5 -61 5.273438 -62.675781 6.828125 -64.0625 C 8.390625 -65.445312 10.238281 -66.140625 12.375 -66.140625 C 14.625 -66.140625 16.5 -65.445312 18 -64.0625 C 19.5 -62.675781 20.25 -61 20.25 -59.03125 Z M 20.34375 0 L 4.0625 0 L 4.0625 -44.578125 L 20.34375 -44.578125 Z M 20.34375 0 "/></g></g></g><g fill="#68ada7" fill-opacity="1"><g transform="translate(905.654346, 98.593047)"><g><path d="M 44.0625 0 L 28.65625 0 L 28.65625 -26.578125 C 28.65625 -29.171875 28.222656 -31.03125 27.359375 -32.15625 C 26.492188 -33.28125 25.191406 -33.84375 23.453125 -33.84375 C 21.609375 -33.84375 20.28125 -33.28125 19.46875 -32.15625 C 18.664062 -31.03125 18.265625 -29.171875 18.265625 -26.578125 L 18.265625 0 L 2.859375 0 L 2.859375 -44.578125 L 18.265625 -44.578125 L 18.265625 -40.59375 C 19.191406 -41.75 20.332031 -42.644531 21.6875 -43.28125 C 23.039062 -43.914062 24.394531 -44.363281 25.75 -44.625 C 27.101562 -44.882812 28.1875 -45.015625 29 -45.015625 C 34.476562 -45.015625 38.34375 -43.425781 40.59375 -40.25 C 42.84375 -37.070312 43.96875 -32.398438 43.96875 -26.234375 Z M 44.0625 0 "/></g></g></g><g fill="#68ada7" fill-opacity="1"><g transform="translate(951.788018, 98.593047)"><g><path d="M 48.296875 -17.484375 L 20 -17.921875 C 20 -16.066406 20.832031 -14.664062 22.5 -13.71875 C 24.175781 -12.769531 25.992188 -12.296875 27.953125 -12.296875 C 29.222656 -12.296875 30.679688 -12.566406 32.328125 -13.109375 C 33.972656 -13.660156 35.257812 -14.484375 36.1875 -15.578125 L 45.96875 -6.671875 C 43.3125 -4.128906 40.410156 -2.304688 37.265625 -1.203125 C 34.117188 -0.109375 30.640625 0.4375 26.828125 0.4375 C 21.984375 0.4375 17.816406 -0.613281 14.328125 -2.71875 C 10.835938 -4.832031 8.15625 -7.648438 6.28125 -11.171875 C 4.40625 -14.691406 3.46875 -18.554688 3.46875 -22.765625 C 3.46875 -26.972656 4.347656 -30.75 6.109375 -34.09375 C 7.867188 -37.445312 10.390625 -40.101562 13.671875 -42.0625 C 16.960938 -44.03125 20.914062 -45.015625 25.53125 -45.015625 C 30.269531 -45.015625 34.335938 -44.019531 37.734375 -42.03125 C 41.140625 -40.039062 43.75 -37.328125 45.5625 -33.890625 C 47.382812 -30.453125 48.296875 -26.539062 48.296875 -22.15625 Z M 31.859375 -26.578125 C 31.859375 -28.242188 31.265625 -29.597656 30.078125 -30.640625 C 28.898438 -31.679688 27.382812 -32.203125 25.53125 -32.203125 C 23.800781 -32.203125 22.429688 -31.722656 21.421875 -30.765625 C 20.410156 -29.816406 19.90625 -28.421875 19.90625 -26.578125 Z M 31.859375 -26.578125 "/></g></g></g><g transform="matrix(1, 0, 0, 1, 85, 0.000000000000001943)"><g clip-path="url(#a558e1d9d3)"><g fill="#357381" fill-opacity="1"><g transform="translate(2.031151, 50.866305)"><g><path d="M 20.59375 -28.28125 C 22.953125 -28.28125 25.113281 -27.667969 27.078125 -26.445312 C 29.039062 -25.226562 30.597656 -23.46875 31.753906 -21.171875 C 32.886719 -18.925781 33.453125 -16.230469 33.453125 -13.085938 C 33.453125 -9.777344 32.886719 -6.996094 31.753906 -4.75 C 30.585938 -2.433594 29.011719 -0.699219 27.03125 0.453125 C 25.078125 1.589844 22.933594 2.15625 20.59375 2.15625 C 19.875 2.15625 18.988281 2.09375 17.933594 1.964844 C 16.738281 1.820312 15.511719 1.4375 14.25 0.820312 C 12.910156 0.160156 11.710938 -0.886719 10.648438 -2.316406 L 12.175781 -3.449219 L 14.078125 -3.449219 L 14.078125 1.902344 L 0.632812 1.902344 L 0.632812 -41.46875 L 14.078125 -41.46875 L 14.078125 -22.675781 L 12.175781 -22.675781 L 10.632812 -23.789062 C 11.703125 -25.269531 12.914062 -26.332031 14.273438 -26.980469 C 15.527344 -27.578125 16.746094 -27.945312 17.933594 -28.089844 C 18.988281 -28.21875 19.875 -28.28125 20.59375 -28.28125 Z M 20.59375 -24.476562 C 20.027344 -24.476562 19.292969 -24.421875 18.386719 -24.3125 C 17.613281 -24.21875 16.789062 -23.960938 15.910156 -23.542969 C 15.136719 -23.175781 14.40625 -22.515625 13.71875 -21.5625 L 10.273438 -16.792969 L 10.273438 -39.566406 L 12.175781 -39.566406 L 12.175781 -37.664062 L 2.535156 -37.664062 L 2.535156 -39.566406 L 4.4375 -39.566406 L 4.4375 0 L 2.535156 0 L 2.535156 -1.902344 L 12.175781 -1.902344 L 12.175781 0 L 10.273438 0 L 10.273438 -9.199219 L 13.703125 -4.582031 C 14.398438 -3.648438 15.140625 -2.984375 15.929688 -2.59375 C 16.804688 -2.164062 17.621094 -1.90625 18.386719 -1.8125 C 19.292969 -1.703125 20.027344 -1.648438 20.59375 -1.648438 C 22.25 -1.648438 23.757812 -2.042969 25.117188 -2.835938 C 26.449219 -3.609375 27.527344 -4.820312 28.355469 -6.460938 C 29.21875 -8.171875 29.648438 -10.378906 29.648438 -13.085938 C 29.648438 -15.625 29.21875 -17.75 28.355469 -19.460938 C 27.519531 -21.121094 26.421875 -22.371094 25.070312 -23.214844 C 23.71875 -24.054688 22.226562 -24.476562 20.59375 -24.476562 Z M 17.042969 -9.105469 C 17.996094 -9.105469 18.695312 -9.40625 19.144531 -10.011719 C 19.722656 -10.789062 20.011719 -11.816406 20.011719 -13.085938 C 20.011719 -14.355469 19.726562 -15.367188 19.152344 -16.128906 C 18.703125 -16.722656 18 -17.019531 17.042969 -17.019531 C 16.113281 -17.019531 15.414062 -16.71875 14.949219 -16.113281 C 14.367188 -15.355469 14.078125 -14.347656 14.078125 -13.085938 C 14.078125 -11.824219 14.371094 -10.800781 14.960938 -10.027344 C 15.425781 -9.414062 16.117188 -9.105469 17.042969 -9.105469 Z M 17.042969 -5.300781 C 14.859375 -5.300781 13.152344 -6.109375 11.925781 -7.726562 C 10.824219 -9.183594 10.273438 -10.96875 10.273438 -13.085938 C 10.273438 -15.210938 10.828125 -16.992188 11.933594 -18.433594 C 13.160156 -20.027344 14.863281 -20.824219 17.042969 -20.824219 C 19.265625 -20.824219 20.980469 -20.023438 22.191406 -18.417969 C 23.273438 -16.980469 23.816406 -15.203125 23.816406 -13.085938 C 23.816406 -10.976562 23.277344 -9.195312 22.199219 -7.742188 C 20.988281 -6.113281 19.273438 -5.300781 17.042969 -5.300781 Z M 17.042969 -5.300781 "/></g></g></g><g fill="#357381" fill-opacity="1"><g transform="translate(38.90751, 50.866305)"><g><path d="M 16.132812 -28.28125 C 20.410156 -28.28125 23.644531 -27.085938 25.828125 -24.695312 C 27.972656 -22.351562 29.042969 -19.09375 29.042969 -14.914062 L 29.042969 1.902344 L 15.597656 1.902344 L 15.597656 -2.839844 L 17.5 -2.839844 L 19.144531 -1.882812 C 18.832031 -1.34375 18.394531 -0.785156 17.832031 -0.203125 C 17.1875 0.464844 16.300781 1.027344 15.167969 1.484375 C 14.0625 1.933594 12.589844 2.15625 10.753906 2.15625 C 7.320312 2.15625 4.765625 1.242188 3.085938 -0.589844 C 1.453125 -2.375 0.632812 -4.628906 0.632812 -7.355469 C 0.632812 -9.917969 1.238281 -11.984375 2.449219 -13.5625 C 3.644531 -15.121094 5.308594 -16.21875 7.441406 -16.863281 C 9.363281 -17.441406 11.566406 -17.730469 14.050781 -17.730469 L 17.5 -17.730469 L 17.5 -15.828125 L 15.597656 -15.828125 C 15.597656 -16.105469 15.574219 -16.332031 15.53125 -16.507812 C 15.511719 -16.585938 15.496094 -16.632812 15.484375 -16.644531 C 15.398438 -16.757812 15.324219 -16.824219 15.261719 -16.84375 C 14.980469 -16.925781 14.730469 -16.96875 14.507812 -16.96875 C 14.109375 -16.96875 13.613281 -16.867188 13.015625 -16.664062 C 12.457031 -16.472656 11.882812 -16.121094 11.292969 -15.609375 L 10.027344 -14.507812 L 1.972656 -21.71875 L 3.355469 -23.140625 C 4.695312 -24.519531 6.4375 -25.714844 8.570312 -26.726562 C 10.753906 -27.761719 13.277344 -28.28125 16.132812 -28.28125 Z M 16.132812 -24.476562 C 13.847656 -24.476562 11.867188 -24.082031 10.199219 -23.289062 C 8.476562 -22.472656 7.105469 -21.539062 6.082031 -20.488281 L 4.71875 -21.8125 L 5.988281 -23.230469 L 11.3125 -18.460938 L 10.042969 -17.042969 L 8.796875 -18.480469 C 9.761719 -19.320312 10.757812 -19.914062 11.789062 -20.265625 C 12.785156 -20.605469 13.6875 -20.773438 14.507812 -20.773438 C 15.097656 -20.773438 15.710938 -20.679688 16.34375 -20.492188 C 17.191406 -20.238281 17.914062 -19.730469 18.5 -18.964844 C 19.101562 -18.183594 19.402344 -17.136719 19.402344 -15.828125 L 19.402344 -13.925781 L 14.050781 -13.925781 C 11.9375 -13.925781 10.101562 -13.6875 8.539062 -13.21875 C 7.1875 -12.8125 6.164062 -12.15625 5.464844 -11.246094 C 4.78125 -10.351562 4.4375 -9.054688 4.4375 -7.355469 C 4.4375 -5.617188 4.921875 -4.21875 5.890625 -3.164062 C 6.816406 -2.152344 8.4375 -1.648438 10.753906 -1.648438 C 12.097656 -1.648438 13.09375 -1.78125 13.746094 -2.042969 C 14.375 -2.296875 14.824219 -2.5625 15.089844 -2.84375 C 15.441406 -3.207031 15.699219 -3.523438 15.859375 -3.800781 L 19.402344 -9.878906 L 19.402344 0 L 17.5 0 L 17.5 -1.902344 L 27.140625 -1.902344 L 27.140625 0 L 25.238281 0 L 25.238281 -14.914062 C 25.238281 -18.109375 24.5 -20.511719 23.019531 -22.125 C 21.589844 -23.691406 19.292969 -24.476562 16.132812 -24.476562 Z M 15.597656 -8.675781 L 15.597656 -9.484375 L 17.5 -9.484375 L 17.5 -7.582031 L 15.523438 -7.582031 C 14.996094 -7.582031 14.5625 -7.558594 14.222656 -7.503906 C 14.007812 -7.472656 13.878906 -7.441406 13.828125 -7.414062 C 13.945312 -7.480469 14.03125 -7.566406 14.082031 -7.679688 C 14.085938 -7.691406 14.089844 -7.699219 14.09375 -7.707031 C 14.09375 -7.703125 14.089844 -7.699219 14.089844 -7.691406 C 14.082031 -7.644531 14.078125 -7.582031 14.078125 -7.507812 C 14.078125 -7.457031 14.078125 -7.414062 14.085938 -7.378906 C 14.0625 -7.429688 14.027344 -7.476562 13.980469 -7.511719 C 13.972656 -7.519531 13.964844 -7.523438 13.964844 -7.523438 C 13.988281 -7.511719 14.019531 -7.503906 14.0625 -7.492188 C 14.210938 -7.453125 14.410156 -7.433594 14.660156 -7.433594 C 15.003906 -7.433594 15.253906 -7.464844 15.410156 -7.527344 L 15.40625 -7.519531 C 15.367188 -7.488281 15.339844 -7.449219 15.3125 -7.40625 C 15.503906 -7.742188 15.597656 -8.164062 15.597656 -8.675781 Z M 19.402344 -8.675781 C 19.402344 -7.492188 19.144531 -6.445312 18.621094 -5.527344 C 17.902344 -4.261719 16.582031 -3.625 14.660156 -3.625 C 13.386719 -3.625 12.371094 -3.929688 11.609375 -4.535156 C 10.71875 -5.246094 10.273438 -6.238281 10.273438 -7.507812 C 10.273438 -8.179688 10.394531 -8.773438 10.636719 -9.289062 C 10.933594 -9.925781 11.382812 -10.410156 11.992188 -10.746094 C 12.765625 -11.175781 13.945312 -11.386719 15.523438 -11.386719 L 19.402344 -11.386719 Z M 19.402344 -8.675781 "/></g></g></g><g fill="#357381" fill-opacity="1"><g transform="translate(72.740491, 50.866305)"><g><path d="M 27.160156 -4.386719 C 25.851562 -2.386719 24.238281 -0.804688 22.316406 0.359375 C 20.339844 1.558594 17.71875 2.15625 14.457031 2.15625 C 11.675781 2.15625 9.132812 1.476562 6.820312 0.117188 C 4.53125 -1.230469 2.699219 -3.050781 1.332031 -5.339844 C -0.046875 -7.652344 -0.734375 -10.203125 -0.734375 -12.984375 C -0.734375 -15.070312 -0.339844 -17.046875 0.457031 -18.90625 C 1.246094 -20.753906 2.332031 -22.378906 3.71875 -23.78125 C 5.109375 -25.191406 6.722656 -26.292969 8.554688 -27.085938 C 10.402344 -27.882812 12.367188 -28.28125 14.457031 -28.28125 C 17.71875 -28.28125 20.339844 -27.679688 22.316406 -26.484375 C 24.238281 -25.320312 25.851562 -23.738281 27.160156 -21.738281 L 28.054688 -20.367188 L 19.496094 -12.746094 L 18.359375 -14.882812 C 17.953125 -15.640625 17.578125 -16.148438 17.234375 -16.398438 C 16.890625 -16.652344 16.597656 -16.804688 16.351562 -16.851562 C 15.949219 -16.929688 15.605469 -16.96875 15.320312 -16.96875 C 14.84375 -16.96875 14.453125 -16.890625 14.152344 -16.742188 C 13.894531 -16.609375 13.679688 -16.40625 13.503906 -16.128906 C 12.972656 -15.289062 12.707031 -14.242188 12.707031 -12.984375 C 12.707031 -11.769531 12.96875 -10.75 13.496094 -9.929688 C 13.671875 -9.660156 13.886719 -9.460938 14.144531 -9.332031 C 14.445312 -9.179688 14.839844 -9.105469 15.320312 -9.105469 C 15.625 -9.105469 15.988281 -9.140625 16.410156 -9.207031 C 16.621094 -9.242188 16.886719 -9.382812 17.207031 -9.628906 C 17.554688 -9.894531 17.9375 -10.425781 18.347656 -11.222656 L 19.472656 -13.398438 L 28.054688 -5.757812 Z M 23.972656 -6.46875 L 25.566406 -5.429688 L 24.300781 -4.007812 L 18.773438 -8.925781 L 20.039062 -10.347656 L 21.726562 -9.476562 C 21.054688 -8.175781 20.320312 -7.21875 19.519531 -6.605469 C 18.691406 -5.972656 17.855469 -5.585938 17.019531 -5.453125 C 16.394531 -5.351562 15.828125 -5.300781 15.320312 -5.300781 C 14.246094 -5.300781 13.289062 -5.507812 12.449219 -5.925781 C 11.566406 -6.363281 10.847656 -7.011719 10.292969 -7.875 C 9.367188 -9.320312 8.902344 -11.023438 8.902344 -12.984375 C 8.902344 -14.976562 9.363281 -16.703125 10.289062 -18.164062 C 10.839844 -19.035156 11.558594 -19.691406 12.441406 -20.136719 C 13.28125 -20.5625 14.242188 -20.773438 15.320312 -20.773438 C 15.847656 -20.773438 16.433594 -20.710938 17.074219 -20.585938 C 17.878906 -20.429688 18.683594 -20.058594 19.492188 -19.464844 C 20.296875 -18.871094 21.039062 -17.941406 21.714844 -16.671875 L 20.039062 -15.777344 L 18.773438 -17.199219 L 24.300781 -22.117188 L 25.566406 -20.695312 L 23.972656 -19.65625 C 22.980469 -21.171875 21.773438 -22.363281 20.34375 -23.230469 C 18.972656 -24.058594 17.011719 -24.476562 14.457031 -24.476562 C 12.894531 -24.476562 11.429688 -24.179688 10.0625 -23.589844 C 8.683594 -22.996094 7.472656 -22.167969 6.425781 -21.109375 C 5.378906 -20.046875 4.554688 -18.816406 3.957031 -17.414062 C 3.363281 -16.027344 3.070312 -14.554688 3.070312 -12.984375 C 3.070312 -10.902344 3.578125 -9.003906 4.601562 -7.289062 C 5.636719 -5.558594 7.019531 -4.179688 8.75 -3.160156 C 10.464844 -2.152344 12.367188 -1.648438 14.457031 -1.648438 C 17.011719 -1.648438 18.972656 -2.0625 20.34375 -2.894531 C 21.773438 -3.761719 22.980469 -4.953125 23.972656 -6.46875 Z M 23.972656 -6.46875 "/></g></g></g><g fill="#357381" fill-opacity="1"><g transform="translate(103.327203, 50.866305)"><g><path d="M 13.617188 -8.902344 L 12.90625 -8.296875 L 11.667969 -9.738281 L 13.570312 -9.738281 L 13.570312 1.902344 L 0.125 1.902344 L 0.125 -41.46875 L 13.570312 -41.46875 L 13.570312 -18.71875 L 11.667969 -18.71875 L 10.410156 -20.148438 L 19.371094 -28.027344 L 37.734375 -28.027344 L 21.046875 -13.238281 L 19.785156 -14.660156 L 21.234375 -15.890625 L 36.320312 1.902344 L 20.109375 1.902344 L 10.914062 -9.128906 L 12.378906 -10.347656 Z M 12.605469 -13.046875 L 22.460938 -1.21875 L 21 0 L 21 -1.902344 L 32.210938 -1.902344 L 32.210938 0 L 30.761719 1.230469 L 17.128906 -14.847656 L 31.457031 -27.546875 L 32.71875 -26.125 L 32.71875 -24.222656 L 20.089844 -24.222656 L 20.089844 -26.125 L 21.34375 -24.695312 L 9.765625 -14.511719 L 9.765625 -39.566406 L 11.667969 -39.566406 L 11.667969 -37.664062 L 2.027344 -37.664062 L 2.027344 -39.566406 L 3.929688 -39.566406 L 3.929688 0 L 2.027344 0 L 2.027344 -1.902344 L 11.667969 -1.902344 L 11.667969 0 L 9.765625 0 L 9.765625 -10.613281 L 11.140625 -11.792969 Z M 12.605469 -13.046875 "/></g></g></g><g fill="#357381" fill-opacity="1"><g transform="translate(140.710799, 50.866305)"><g/></g></g><g fill="#357381" fill-opacity="1"><g transform="translate(162.268831, 50.866305)"><g><path d="M 20.875 -6.949219 L 20.875 -0.332031 L 20.132812 0.238281 C 19.527344 0.703125 18.636719 1.140625 17.460938 1.542969 C 16.28125 1.953125 14.738281 2.15625 12.835938 2.15625 C 10.972656 2.15625 9.257812 1.804688 7.691406 1.101562 C 5.976562 0.332031 4.625 -0.984375 3.644531 -2.839844 C 2.71875 -4.589844 2.257812 -6.921875 2.257812 -9.839844 L 2.257812 -18.617188 L 4.160156 -18.617188 L 4.160156 -16.714844 L -0.378906 -16.714844 L -0.378906 -28.027344 L 4.160156 -28.027344 L 4.160156 -26.125 L 2.257812 -26.125 L 2.257812 -35.027344 L 15.648438 -35.027344 L 15.648438 -26.125 L 13.746094 -26.125 L 13.746094 -28.027344 L 20.875 -28.027344 L 20.875 -16.714844 L 13.746094 -16.714844 L 13.746094 -18.617188 L 15.648438 -18.617188 L 15.648438 -10.09375 C 15.648438 -9.519531 15.765625 -9.097656 15.996094 -8.828125 C 16.230469 -8.558594 16.511719 -8.398438 16.84375 -8.347656 C 17.21875 -8.292969 17.625 -8.382812 18.066406 -8.621094 L 20.875 -10.144531 Z M 17.070312 -6.949219 L 18.972656 -6.949219 L 19.878906 -5.277344 C 18.695312 -4.636719 17.496094 -4.40625 16.28125 -4.585938 C 15.023438 -4.773438 13.96875 -5.359375 13.121094 -6.339844 C 12.269531 -7.320312 11.84375 -8.574219 11.84375 -10.09375 L 11.84375 -20.519531 L 18.972656 -20.519531 L 18.972656 -18.617188 L 17.070312 -18.617188 L 17.070312 -26.125 L 18.972656 -26.125 L 18.972656 -24.222656 L 11.84375 -24.222656 L 11.84375 -33.125 L 13.746094 -33.125 L 13.746094 -31.222656 L 4.160156 -31.222656 L 4.160156 -33.125 L 6.0625 -33.125 L 6.0625 -24.222656 L 1.523438 -24.222656 L 1.523438 -26.125 L 3.425781 -26.125 L 3.425781 -18.617188 L 1.523438 -18.617188 L 1.523438 -20.519531 L 6.0625 -20.519531 L 6.0625 -9.839844 C 6.0625 -7.550781 6.378906 -5.8125 7.007812 -4.617188 C 7.582031 -3.53125 8.328125 -2.78125 9.25 -2.371094 C 10.320312 -1.890625 11.515625 -1.648438 12.835938 -1.648438 C 14.3125 -1.648438 15.441406 -1.785156 16.222656 -2.050781 C 17.007812 -2.324219 17.535156 -2.5625 17.8125 -2.777344 L 18.972656 -1.269531 L 17.070312 -1.269531 Z M 17.070312 -6.949219 "/></g></g></g><g fill="#357381" fill-opacity="1"><g transform="translate(186.920967, 50.866305)"><g><path d="M 14.710938 -28.28125 C 17.386719 -28.28125 19.90625 -27.742188 22.273438 -26.664062 C 24.714844 -25.550781 26.695312 -23.851562 28.214844 -21.574219 C 29.746094 -19.277344 30.511719 -16.414062 30.511719 -12.984375 C 30.511719 -9.554688 29.746094 -6.699219 28.210938 -4.417969 C 26.6875 -2.152344 24.699219 -0.476562 22.25 0.601562 C 19.890625 1.636719 17.378906 2.15625 14.710938 2.15625 C 12.042969 2.15625 9.53125 1.636719 7.171875 0.601562 C 4.71875 -0.480469 2.738281 -2.15625 1.230469 -4.425781 C -0.285156 -6.707031 -1.039062 -9.558594 -1.039062 -12.984375 C -1.039062 -16.410156 -0.285156 -19.269531 1.226562 -21.566406 C 2.730469 -23.847656 4.703125 -25.546875 7.148438 -26.664062 C 9.515625 -27.742188 12.035156 -28.28125 14.710938 -28.28125 Z M 14.710938 -24.476562 C 12.585938 -24.476562 10.589844 -24.050781 8.726562 -23.203125 C 6.945312 -22.390625 5.503906 -21.148438 4.40625 -19.472656 C 3.3125 -17.8125 2.765625 -15.648438 2.765625 -12.984375 C 2.765625 -10.324219 3.308594 -8.171875 4.398438 -6.53125 C 5.496094 -4.878906 6.933594 -3.664062 8.703125 -2.882812 C 10.574219 -2.058594 12.578125 -1.648438 14.710938 -1.648438 C 16.84375 -1.648438 18.847656 -2.058594 20.71875 -2.882812 C 22.492188 -3.664062 23.9375 -4.882812 25.054688 -6.539062 C 26.15625 -8.179688 26.707031 -10.328125 26.707031 -12.984375 C 26.707031 -15.644531 26.15625 -17.804688 25.050781 -19.464844 C 23.929688 -21.140625 22.480469 -22.386719 20.695312 -23.203125 C 18.832031 -24.050781 16.835938 -24.476562 14.710938 -24.476562 Z M 14.710938 -16.96875 C 14.054688 -16.96875 13.605469 -16.855469 13.359375 -16.632812 C 13.023438 -16.324219 12.78125 -15.90625 12.640625 -15.382812 C 12.449219 -14.664062 12.351562 -13.867188 12.351562 -12.984375 C 12.351562 -12.140625 12.449219 -11.355469 12.640625 -10.640625 C 12.78125 -10.128906 13.011719 -9.726562 13.335938 -9.4375 C 13.585938 -9.214844 14.042969 -9.105469 14.710938 -9.105469 C 15.414062 -9.105469 15.886719 -9.214844 16.136719 -9.4375 C 16.453125 -9.71875 16.671875 -10.109375 16.796875 -10.605469 C 16.980469 -11.335938 17.070312 -12.128906 17.070312 -12.984375 C 17.070312 -13.878906 16.980469 -14.6875 16.796875 -15.417969 C 16.667969 -15.925781 16.441406 -16.332031 16.113281 -16.632812 C 15.867188 -16.855469 15.402344 -16.96875 14.710938 -16.96875 Z M 14.710938 -20.773438 C 16.386719 -20.773438 17.710938 -20.328125 18.683594 -19.4375 C 19.574219 -18.621094 20.175781 -17.589844 20.488281 -16.339844 C 20.746094 -15.308594 20.875 -14.191406 20.875 -12.984375 C 20.875 -11.816406 20.746094 -10.714844 20.488281 -9.683594 C 20.171875 -8.425781 19.566406 -7.394531 18.664062 -6.59375 C 17.695312 -5.730469 16.375 -5.300781 14.710938 -5.300781 C 13.078125 -5.300781 11.777344 -5.730469 10.808594 -6.59375 C 9.917969 -7.386719 9.304688 -8.40625 8.96875 -9.652344 C 8.6875 -10.691406 8.546875 -11.804688 8.546875 -12.984375 C 8.546875 -14.203125 8.6875 -15.332031 8.96875 -16.371094 C 9.300781 -17.609375 9.90625 -18.628906 10.789062 -19.4375 C 11.761719 -20.328125 13.066406 -20.773438 14.710938 -20.773438 Z M 14.710938 -20.773438 "/></g></g></g><g fill="#ffffff" fill-opacity="1"><g transform="translate(2.031151, 50.866305)"><g><path d="M 20.59375 -26.375 C 22.59375 -26.375 24.421875 -25.859375 26.078125 -24.828125 C 27.734375 -23.796875 29.0625 -22.289062 30.0625 -20.3125 C 31.0625 -18.332031 31.5625 -15.925781 31.5625 -13.09375 C 31.5625 -10.082031 31.0625 -7.585938 30.0625 -5.609375 C 29.0625 -3.628906 27.734375 -2.15625 26.078125 -1.1875 C 24.421875 -0.226562 22.59375 0.25 20.59375 0.25 C 19.957031 0.25 19.144531 0.191406 18.15625 0.078125 C 17.175781 -0.0351562 16.15625 -0.351562 15.09375 -0.875 C 14.03125 -1.40625 13.054688 -2.265625 12.171875 -3.453125 L 12.171875 0 L 2.53125 0 L 2.53125 -39.578125 L 12.171875 -39.578125 L 12.171875 -22.671875 C 13.054688 -23.890625 14.03125 -24.753906 15.09375 -25.265625 C 16.15625 -25.773438 17.175781 -26.085938 18.15625 -26.203125 C 19.144531 -26.316406 19.957031 -26.375 20.59375 -26.375 Z M 17.046875 -7.203125 C 18.640625 -7.203125 19.847656 -7.757812 20.671875 -8.875 C 21.503906 -9.988281 21.921875 -11.394531 21.921875 -13.09375 C 21.921875 -14.78125 21.503906 -16.171875 20.671875 -17.265625 C 19.847656 -18.367188 18.640625 -18.921875 17.046875 -18.921875 C 15.492188 -18.921875 14.289062 -18.367188 13.4375 -17.265625 C 12.59375 -16.171875 12.171875 -14.78125 12.171875 -13.09375 C 12.171875 -11.394531 12.59375 -9.988281 13.4375 -8.875 C 14.289062 -7.757812 15.492188 -7.203125 17.046875 -7.203125 Z M 17.046875 -7.203125 "/></g></g></g><g fill="#ffffff" fill-opacity="1"><g transform="translate(38.90751, 50.866305)"><g><path d="M 16.140625 -26.375 C 19.859375 -26.375 22.617188 -25.382812 24.421875 -23.40625 C 26.234375 -21.4375 27.140625 -18.609375 27.140625 -14.921875 L 27.140625 0 L 17.5 0 L 17.5 -2.84375 C 17.257812 -2.4375 16.910156 -1.992188 16.453125 -1.515625 C 16.003906 -1.046875 15.335938 -0.632812 14.453125 -0.28125 C 13.578125 0.0703125 12.34375 0.25 10.75 0.25 C 7.875 0.25 5.785156 -0.457031 4.484375 -1.875 C 3.179688 -3.300781 2.53125 -5.128906 2.53125 -7.359375 C 2.53125 -9.484375 3.003906 -11.160156 3.953125 -12.390625 C 4.898438 -13.628906 6.242188 -14.507812 7.984375 -15.03125 C 9.734375 -15.5625 11.753906 -15.828125 14.046875 -15.828125 L 17.5 -15.828125 C 17.5 -16.703125 17.328125 -17.359375 16.984375 -17.796875 C 16.648438 -18.242188 16.253906 -18.535156 15.796875 -18.671875 C 15.347656 -18.804688 14.921875 -18.875 14.515625 -18.875 C 13.898438 -18.875 13.195312 -18.738281 12.40625 -18.46875 C 11.613281 -18.195312 10.828125 -17.722656 10.046875 -17.046875 L 4.71875 -21.8125 C 5.90625 -23.03125 7.460938 -24.09375 9.390625 -25 C 11.316406 -25.914062 13.566406 -26.375 16.140625 -26.375 Z M 17.5 -8.671875 L 17.5 -9.484375 L 15.53125 -9.484375 C 14.269531 -9.484375 13.394531 -9.347656 12.90625 -9.078125 C 12.414062 -8.804688 12.171875 -8.285156 12.171875 -7.515625 C 12.171875 -6.191406 13 -5.53125 14.65625 -5.53125 C 15.84375 -5.53125 16.613281 -5.84375 16.96875 -6.46875 C 17.320312 -7.09375 17.5 -7.828125 17.5 -8.671875 Z M 17.5 -8.671875 "/></g></g></g><g fill="#ffffff" fill-opacity="1"><g transform="translate(72.740491, 50.866305)"><g><path d="M 25.5625 -5.421875 C 24.414062 -3.671875 23.003906 -2.285156 21.328125 -1.265625 C 19.660156 -0.253906 17.367188 0.25 14.453125 0.25 C 12.023438 0.25 9.800781 -0.335938 7.78125 -1.515625 C 5.769531 -2.703125 4.164062 -4.300781 2.96875 -6.3125 C 1.769531 -8.320312 1.171875 -10.546875 1.171875 -12.984375 C 1.171875 -14.816406 1.515625 -16.539062 2.203125 -18.15625 C 2.898438 -19.78125 3.859375 -21.207031 5.078125 -22.4375 C 6.296875 -23.675781 7.707031 -24.640625 9.3125 -25.328125 C 10.914062 -26.023438 12.628906 -26.375 14.453125 -26.375 C 17.367188 -26.375 19.660156 -25.867188 21.328125 -24.859375 C 23.003906 -23.847656 24.414062 -22.460938 25.5625 -20.703125 L 20.046875 -15.78125 C 19.503906 -16.789062 18.941406 -17.503906 18.359375 -17.921875 C 17.785156 -18.347656 17.238281 -18.613281 16.71875 -18.71875 C 16.195312 -18.820312 15.734375 -18.875 15.328125 -18.875 C 13.765625 -18.875 12.617188 -18.296875 11.890625 -17.140625 C 11.171875 -15.992188 10.8125 -14.609375 10.8125 -12.984375 C 10.8125 -11.398438 11.171875 -10.039062 11.890625 -8.90625 C 12.617188 -7.769531 13.765625 -7.203125 15.328125 -7.203125 C 15.734375 -7.203125 16.195312 -7.242188 16.71875 -7.328125 C 17.238281 -7.410156 17.785156 -7.671875 18.359375 -8.109375 C 18.941406 -8.554688 19.503906 -9.300781 20.046875 -10.34375 Z M 25.5625 -5.421875 "/></g></g></g><g fill="#ffffff" fill-opacity="1"><g transform="translate(103.327203, 50.866305)"><g><path d="M 12.375 -10.34375 L 11.671875 -9.734375 L 11.671875 0 L 2.03125 0 L 2.03125 -39.578125 L 11.671875 -39.578125 L 11.671875 -18.71875 L 20.09375 -26.125 L 32.71875 -26.125 L 19.78125 -14.65625 L 32.21875 0 L 21 0 Z M 12.375 -10.34375 "/></g></g></g><g fill="#ffffff" fill-opacity="1"><g transform="translate(140.710799, 50.866305)"><g/></g></g><g fill="#ffffff" fill-opacity="1"><g transform="translate(162.268831, 50.866305)"><g><path d="M 18.96875 -6.953125 L 18.96875 -1.265625 C 18.53125 -0.929688 17.820312 -0.59375 16.84375 -0.25 C 15.863281 0.0820312 14.523438 0.25 12.828125 0.25 C 11.242188 0.25 9.789062 -0.0390625 8.46875 -0.625 C 7.15625 -1.21875 6.109375 -2.25 5.328125 -3.71875 C 4.546875 -5.195312 4.15625 -7.238281 4.15625 -9.84375 L 4.15625 -18.625 L 1.515625 -18.625 L 1.515625 -26.125 L 4.15625 -26.125 L 4.15625 -33.125 L 13.75 -33.125 L 13.75 -26.125 L 18.96875 -26.125 L 18.96875 -18.625 L 13.75 -18.625 L 13.75 -10.09375 C 13.75 -9.039062 14.019531 -8.203125 14.5625 -7.578125 C 15.101562 -6.953125 15.769531 -6.582031 16.5625 -6.46875 C 17.351562 -6.351562 18.15625 -6.515625 18.96875 -6.953125 Z M 18.96875 -6.953125 "/></g></g></g><g fill="#ffffff" fill-opacity="1"><g transform="translate(186.920967, 50.866305)"><g><path d="M 14.71875 -26.375 C 17.113281 -26.375 19.367188 -25.890625 21.484375 -24.921875 C 23.597656 -23.960938 25.3125 -22.492188 26.625 -20.515625 C 27.945312 -18.535156 28.609375 -16.023438 28.609375 -12.984375 C 28.609375 -9.941406 27.945312 -7.4375 26.625 -5.46875 C 25.3125 -3.507812 23.597656 -2.066406 21.484375 -1.140625 C 19.367188 -0.210938 17.113281 0.25 14.71875 0.25 C 12.3125 0.25 10.050781 -0.210938 7.9375 -1.140625 C 5.820312 -2.066406 4.113281 -3.507812 2.8125 -5.46875 C 1.507812 -7.4375 0.859375 -9.941406 0.859375 -12.984375 C 0.859375 -16.023438 1.507812 -18.535156 2.8125 -20.515625 C 4.113281 -22.492188 5.820312 -23.960938 7.9375 -24.921875 C 10.050781 -25.890625 12.3125 -26.375 14.71875 -26.375 Z M 14.71875 -18.875 C 13.5625 -18.875 12.675781 -18.59375 12.0625 -18.03125 C 11.457031 -17.476562 11.035156 -16.757812 10.796875 -15.875 C 10.566406 -15 10.453125 -14.035156 10.453125 -12.984375 C 10.453125 -11.972656 10.566406 -11.023438 10.796875 -10.140625 C 11.035156 -9.265625 11.457031 -8.554688 12.0625 -8.015625 C 12.675781 -7.472656 13.5625 -7.203125 14.71875 -7.203125 C 15.894531 -7.203125 16.785156 -7.472656 17.390625 -8.015625 C 18.003906 -8.554688 18.421875 -9.265625 18.640625 -10.140625 C 18.859375 -11.023438 18.96875 -11.972656 18.96875 -12.984375 C 18.96875 -14.035156 18.859375 -15 18.640625 -15.875 C 18.421875 -16.757812 18.003906 -17.476562 17.390625 -18.03125 C 16.785156 -18.59375 15.894531 -18.875 14.71875 -18.875 Z M 14.71875 -18.875 "/></g></g></g></g></g></svg>