<svg xmlns="http://www.w3.org/2000/svg" xmlns:xlink="http://www.w3.org/1999/xlink" width="1344" zoomAndPan="magnify" viewBox="0 0 1008 119.999999" height="160" preserveAspectRatio="xMidYMid meet" version="1.0"><defs><g/><clipPath id="52bfa4f81b"><path d="M 0.0390625 9 L 34 9 L 34 44 L 0.0390625 44 Z M 0.0390625 9 " clip-rule="nonzero"/></clipPath><clipPath id="a987fb47c9"><rect x="0" width="370" y="0" height="50"/></clipPath></defs><g fill="#347480" fill-opacity="1"><g transform="translate(6.773443, 98.593047)"><g><path d="M 21.296875 -45.015625 C 22.390625 -45.015625 23.769531 -44.910156 25.4375 -44.703125 C 27.113281 -44.503906 28.859375 -43.972656 30.671875 -43.109375 C 32.492188 -42.242188 34.15625 -40.769531 35.65625 -38.6875 L 35.65625 -67.515625 L 52.109375 -67.515625 L 52.109375 0 L 35.65625 0 L 35.65625 -5.890625 C 34.15625 -3.867188 32.492188 -2.410156 30.671875 -1.515625 C 28.859375 -0.617188 27.113281 -0.0703125 25.4375 0.125 C 23.769531 0.332031 22.390625 0.4375 21.296875 0.4375 C 17.953125 0.4375 14.847656 -0.382812 11.984375 -2.03125 C 9.128906 -3.675781 6.847656 -6.1875 5.140625 -9.5625 C 3.441406 -12.9375 2.59375 -17.191406 2.59375 -22.328125 C 2.59375 -27.179688 3.441406 -31.296875 5.140625 -34.671875 C 6.847656 -38.046875 9.128906 -40.613281 11.984375 -42.375 C 14.847656 -44.132812 17.953125 -45.015625 21.296875 -45.015625 Z M 27.359375 -12.296875 C 30.066406 -12.296875 32.125 -13.242188 33.53125 -15.140625 C 34.945312 -17.046875 35.65625 -19.441406 35.65625 -22.328125 C 35.65625 -25.210938 34.945312 -27.59375 33.53125 -29.46875 C 32.125 -31.34375 30.066406 -32.28125 27.359375 -32.28125 C 24.703125 -32.28125 22.648438 -31.34375 21.203125 -29.46875 C 19.765625 -27.59375 19.046875 -25.210938 19.046875 -22.328125 C 19.046875 -19.441406 19.765625 -17.046875 21.203125 -15.140625 C 22.648438 -13.242188 24.703125 -12.296875 27.359375 -12.296875 Z M 27.359375 -12.296875 "/></g></g></g><g fill="#347480" fill-opacity="1"><g transform="translate(60.870132, 98.593047)"><g><path d="M 20.25 -59.03125 C 20.25 -57.007812 19.5 -55.304688 18 -53.921875 C 16.5 -52.535156 14.625 -51.84375 12.375 -51.84375 C 10.238281 -51.84375 8.390625 -52.535156 6.828125 -53.921875 C 5.273438 -55.304688 4.5 -57.007812 4.5 -59.03125 C 4.5 -61 5.273438 -62.675781 6.828125 -64.0625 C 8.390625 -65.445312 10.238281 -66.140625 12.375 -66.140625 C 14.625 -66.140625 16.5 -65.445312 18 -64.0625 C 19.5 -62.675781 20.25 -61 20.25 -59.03125 Z M 20.34375 0 L 4.0625 0 L 4.0625 -44.578125 L 20.34375 -44.578125 Z M 20.34375 0 "/></g></g></g><g fill="#347480" fill-opacity="1"><g transform="translate(84.586123, 98.593047)"><g><path d="M 21.546875 0 L 0.265625 -44.578125 L 16.359375 -44.578125 L 26.65625 -21.375 L 37.046875 -44.578125 L 52.96875 -44.578125 L 31.9375 0 Z M 21.546875 0 "/></g></g></g><g fill="#347480" fill-opacity="1"><g transform="translate(138.423145, 98.593047)"><g><path d="M 25.109375 -45.015625 C 29.203125 -45.015625 33.050781 -44.191406 36.65625 -42.546875 C 40.257812 -40.898438 43.1875 -38.390625 45.4375 -35.015625 C 47.695312 -31.640625 48.828125 -27.351562 48.828125 -22.15625 C 48.828125 -16.96875 47.695312 -12.695312 45.4375 -9.34375 C 43.1875 -6 40.257812 -3.53125 36.65625 -1.9375 C 33.050781 -0.351562 29.203125 0.4375 25.109375 0.4375 C 21.003906 0.4375 17.148438 -0.351562 13.546875 -1.9375 C 9.941406 -3.53125 7.023438 -6 4.796875 -9.34375 C 2.578125 -12.695312 1.46875 -16.96875 1.46875 -22.15625 C 1.46875 -27.351562 2.578125 -31.640625 4.796875 -35.015625 C 7.023438 -38.390625 9.941406 -40.898438 13.546875 -42.546875 C 17.148438 -44.191406 21.003906 -45.015625 25.109375 -45.015625 Z M 25.109375 -32.203125 C 23.140625 -32.203125 21.632812 -31.722656 20.59375 -30.765625 C 19.5625 -29.816406 18.84375 -28.59375 18.4375 -27.09375 C 18.03125 -25.59375 17.828125 -23.945312 17.828125 -22.15625 C 17.828125 -20.425781 18.03125 -18.8125 18.4375 -17.3125 C 18.84375 -15.8125 19.5625 -14.597656 20.59375 -13.671875 C 21.632812 -12.753906 23.140625 -12.296875 25.109375 -12.296875 C 27.117188 -12.296875 28.644531 -12.753906 29.6875 -13.671875 C 30.726562 -14.597656 31.4375 -15.8125 31.8125 -17.3125 C 32.1875 -18.8125 32.375 -20.425781 32.375 -22.15625 C 32.375 -23.945312 32.1875 -25.59375 31.8125 -27.09375 C 31.4375 -28.59375 30.726562 -29.816406 29.6875 -30.765625 C 28.644531 -31.722656 27.117188 -32.203125 25.109375 -32.203125 Z M 25.109375 -32.203125 "/></g></g></g><g fill="#347480" fill-opacity="1"><g transform="translate(188.365205, 98.593047)"><g><path d="M 35.0625 -29.4375 C 34.769531 -29.71875 34.046875 -30.25 32.890625 -31.03125 C 31.734375 -31.8125 30.234375 -32.203125 28.390625 -32.203125 C 24.703125 -32.203125 22.265625 -30.929688 21.078125 -28.390625 C 19.890625 -25.847656 19.296875 -21.722656 19.296875 -16.015625 L 19.296875 0 L 2.859375 0 L 2.859375 -44.578125 L 19.296875 -44.578125 L 19.296875 -37.3125 C 20.109375 -40.019531 21.347656 -41.976562 23.015625 -43.1875 C 24.691406 -44.40625 27.03125 -45.015625 30.03125 -45.015625 C 31.644531 -45.015625 33.03125 -44.722656 34.1875 -44.140625 C 35.34375 -43.566406 36.269531 -42.847656 36.96875 -41.984375 Z M 35.0625 -29.4375 "/></g></g></g><g fill="#347480" fill-opacity="1"><g transform="translate(226.189609, 98.593047)"><g><path d="M 43.625 -9.265625 C 41.664062 -6.265625 39.253906 -3.894531 36.390625 -2.15625 C 33.535156 -0.425781 29.628906 0.4375 24.671875 0.4375 C 20.515625 0.4375 16.71875 -0.570312 13.28125 -2.59375 C 9.851562 -4.613281 7.113281 -7.335938 5.0625 -10.765625 C 3.007812 -14.203125 1.984375 -18 1.984375 -22.15625 C 1.984375 -25.269531 2.578125 -28.210938 3.765625 -30.984375 C 4.953125 -33.753906 6.582031 -36.191406 8.65625 -38.296875 C 10.726562 -40.410156 13.132812 -42.054688 15.875 -43.234375 C 18.625 -44.421875 21.554688 -45.015625 24.671875 -45.015625 C 29.628906 -45.015625 33.535156 -44.144531 36.390625 -42.40625 C 39.253906 -40.675781 41.664062 -38.3125 43.625 -35.3125 L 34.1875 -26.921875 C 33.269531 -28.648438 32.316406 -29.875 31.328125 -30.59375 C 30.347656 -31.320312 29.410156 -31.769531 28.515625 -31.9375 C 27.628906 -32.113281 26.835938 -32.203125 26.140625 -32.203125 C 23.484375 -32.203125 21.535156 -31.21875 20.296875 -29.25 C 19.054688 -27.289062 18.4375 -24.925781 18.4375 -22.15625 C 18.4375 -19.445312 19.054688 -17.125 20.296875 -15.1875 C 21.535156 -13.257812 23.484375 -12.296875 26.140625 -12.296875 C 26.835938 -12.296875 27.628906 -12.363281 28.515625 -12.5 C 29.410156 -12.644531 30.347656 -13.09375 31.328125 -13.84375 C 32.316406 -14.59375 33.269531 -15.863281 34.1875 -17.65625 Z M 43.625 -9.265625 "/></g></g></g><g fill="#347480" fill-opacity="1"><g transform="translate(270.419076, 98.593047)"><g><path d="M 48.296875 -17.484375 L 20 -17.921875 C 20 -16.066406 20.832031 -14.664062 22.5 -13.71875 C 24.175781 -12.769531 25.992188 -12.296875 27.953125 -12.296875 C 29.222656 -12.296875 30.679688 -12.566406 32.328125 -13.109375 C 33.972656 -13.660156 35.257812 -14.484375 36.1875 -15.578125 L 45.96875 -6.671875 C 43.3125 -4.128906 40.410156 -2.304688 37.265625 -1.203125 C 34.117188 -0.109375 30.640625 0.4375 26.828125 0.4375 C 21.984375 0.4375 17.816406 -0.613281 14.328125 -2.71875 C 10.835938 -4.832031 8.15625 -7.648438 6.28125 -11.171875 C 4.40625 -14.691406 3.46875 -18.554688 3.46875 -22.765625 C 3.46875 -26.972656 4.347656 -30.75 6.109375 -34.09375 C 7.867188 -37.445312 10.390625 -40.101562 13.671875 -42.0625 C 16.960938 -44.03125 20.914062 -45.015625 25.53125 -45.015625 C 30.269531 -45.015625 34.335938 -44.019531 37.734375 -42.03125 C 41.140625 -40.039062 43.75 -37.328125 45.5625 -33.890625 C 47.382812 -30.453125 48.296875 -26.539062 48.296875 -22.15625 Z M 31.859375 -26.578125 C 31.859375 -28.242188 31.265625 -29.597656 30.078125 -30.640625 C 28.898438 -31.679688 27.382812 -32.203125 25.53125 -32.203125 C 23.800781 -32.203125 22.429688 -31.722656 21.421875 -30.765625 C 20.410156 -29.816406 19.90625 -28.421875 19.90625 -26.578125 Z M 31.859375 -26.578125 "/></g></g></g><g fill="#347480" fill-opacity="1"><g transform="translate(319.841803, 98.593047)"><g/></g></g><g fill="#347480" fill-opacity="1"><g transform="translate(348.664525, 98.593047)"><g><path d="M 35.140625 -44.578125 L 51.5 -44.578125 L 51.5 -5.28125 C 51.5 -1.238281 50.820312 2.164062 49.46875 4.9375 C 48.113281 7.707031 46.296875 9.941406 44.015625 11.640625 C 41.734375 13.347656 39.191406 14.578125 36.390625 15.328125 C 33.597656 16.078125 30.757812 16.453125 27.875 16.453125 C 27.125 16.453125 25.535156 16.453125 23.109375 16.453125 C 20.679688 16.453125 17.664062 16.117188 14.0625 15.453125 C 10.457031 14.785156 6.460938 13.5 2.078125 11.59375 L 9.265625 1.03125 C 12.203125 2.019531 14.632812 2.703125 16.5625 3.078125 C 18.5 3.453125 20.117188 3.648438 21.421875 3.671875 C 22.722656 3.703125 23.894531 3.71875 24.9375 3.71875 C 26.195312 3.71875 27.617188 3.488281 29.203125 3.03125 C 30.796875 2.570312 32.179688 1.660156 33.359375 0.296875 C 34.546875 -1.054688 35.140625 -3.085938 35.140625 -5.796875 C 33.640625 -3.773438 31.96875 -2.332031 30.125 -1.46875 C 28.28125 -0.601562 26.519531 -0.0703125 24.84375 0.125 C 23.164062 0.332031 21.78125 0.4375 20.6875 0.4375 C 17.34375 0.4375 14.238281 -0.441406 11.375 -2.203125 C 8.519531 -3.960938 6.238281 -6.53125 4.53125 -9.90625 C 2.832031 -13.28125 1.984375 -17.394531 1.984375 -22.25 C 1.984375 -27.4375 2.832031 -31.703125 4.53125 -35.046875 C 6.238281 -38.398438 8.519531 -40.898438 11.375 -42.546875 C 14.238281 -44.191406 17.34375 -45.015625 20.6875 -45.015625 C 21.78125 -45.015625 23.164062 -44.910156 24.84375 -44.703125 C 26.519531 -44.503906 28.28125 -43.957031 30.125 -43.0625 C 31.96875 -42.164062 33.640625 -40.707031 35.140625 -38.6875 Z M 26.75 -12.296875 C 29.457031 -12.296875 31.53125 -13.21875 32.96875 -15.0625 C 34.414062 -16.90625 35.140625 -19.300781 35.140625 -22.25 C 35.140625 -25.132812 34.414062 -27.515625 32.96875 -29.390625 C 31.53125 -31.265625 29.457031 -32.203125 26.75 -32.203125 C 24.09375 -32.203125 22.039062 -31.265625 20.59375 -29.390625 C 19.15625 -27.515625 18.4375 -25.132812 18.4375 -22.25 C 18.4375 -19.300781 19.15625 -16.90625 20.59375 -15.0625 C 22.039062 -13.21875 24.09375 -12.296875 26.75 -12.296875 Z M 26.75 -12.296875 "/></g></g></g><g fill="#347480" fill-opacity="1"><g transform="translate(402.761201, 98.593047)"><g><path d="M 2.859375 -44.578125 L 18.265625 -44.578125 L 18.265625 -17.921875 C 18.265625 -15.316406 18.695312 -13.46875 19.5625 -12.375 C 20.425781 -11.28125 21.722656 -10.734375 23.453125 -10.734375 C 25.359375 -10.734375 26.703125 -11.28125 27.484375 -12.375 C 28.265625 -13.46875 28.65625 -15.316406 28.65625 -17.921875 L 28.65625 -44.578125 L 44.0625 -44.578125 L 44.0625 0 L 28.65625 0 L 28.65625 -3.984375 C 27.789062 -2.890625 26.675781 -2.007812 25.3125 -1.34375 C 23.957031 -0.675781 22.613281 -0.210938 21.28125 0.046875 C 19.957031 0.304688 18.863281 0.4375 18 0.4375 C 12.519531 0.4375 8.640625 -1.148438 6.359375 -4.328125 C 4.078125 -7.503906 2.9375 -12.148438 2.9375 -18.265625 Z M 2.859375 -44.578125 "/></g></g></g><g fill="#347480" fill-opacity="1"><g transform="translate(448.894851, 98.593047)"><g><path d="M 20.25 -59.03125 C 20.25 -57.007812 19.5 -55.304688 18 -53.921875 C 16.5 -52.535156 14.625 -51.84375 12.375 -51.84375 C 10.238281 -51.84375 8.390625 -52.535156 6.828125 -53.921875 C 5.273438 -55.304688 4.5 -57.007812 4.5 -59.03125 C 4.5 -61 5.273438 -62.675781 6.828125 -64.0625 C 8.390625 -65.445312 10.238281 -66.140625 12.375 -66.140625 C 14.625 -66.140625 16.5 -65.445312 18 -64.0625 C 19.5 -62.675781 20.25 -61 20.25 -59.03125 Z M 20.34375 0 L 4.0625 0 L 4.0625 -44.578125 L 20.34375 -44.578125 Z M 20.34375 0 "/></g></g></g><g fill="#347480" fill-opacity="1"><g transform="translate(472.610853, 98.593047)"><g><path d="M 21.296875 -45.015625 C 22.390625 -45.015625 23.769531 -44.910156 25.4375 -44.703125 C 27.113281 -44.503906 28.859375 -43.972656 30.671875 -43.109375 C 32.492188 -42.242188 34.15625 -40.769531 35.65625 -38.6875 L 35.65625 -67.515625 L 52.109375 -67.515625 L 52.109375 0 L 35.65625 0 L 35.65625 -5.890625 C 34.15625 -3.867188 32.492188 -2.410156 30.671875 -1.515625 C 28.859375 -0.617188 27.113281 -0.0703125 25.4375 0.125 C 23.769531 0.332031 22.390625 0.4375 21.296875 0.4375 C 17.953125 0.4375 14.847656 -0.382812 11.984375 -2.03125 C 9.128906 -3.675781 6.847656 -6.1875 5.140625 -9.5625 C 3.441406 -12.9375 2.59375 -17.191406 2.59375 -22.328125 C 2.59375 -27.179688 3.441406 -31.296875 5.140625 -34.671875 C 6.847656 -38.046875 9.128906 -40.613281 11.984375 -42.375 C 14.847656 -44.132812 17.953125 -45.015625 21.296875 -45.015625 Z M 27.359375 -12.296875 C 30.066406 -12.296875 32.125 -13.242188 33.53125 -15.140625 C 34.945312 -17.046875 35.65625 -19.441406 35.65625 -22.328125 C 35.65625 -25.210938 34.945312 -27.59375 33.53125 -29.46875 C 32.125 -31.34375 30.066406 -32.28125 27.359375 -32.28125 C 24.703125 -32.28125 22.648438 -31.34375 21.203125 -29.46875 C 19.765625 -27.59375 19.046875 -25.210938 19.046875 -22.328125 C 19.046875 -19.441406 19.765625 -17.046875 21.203125 -15.140625 C 22.648438 -13.242188 24.703125 -12.296875 27.359375 -12.296875 Z M 27.359375 -12.296875 "/></g></g></g><g fill="#347480" fill-opacity="1"><g transform="translate(526.70753, 98.593047)"><g><path d="M 48.296875 -17.484375 L 20 -17.921875 C 20 -16.066406 20.832031 -14.664062 22.5 -13.71875 C 24.175781 -12.769531 25.992188 -12.296875 27.953125 -12.296875 C 29.222656 -12.296875 30.679688 -12.566406 32.328125 -13.109375 C 33.972656 -13.660156 35.257812 -14.484375 36.1875 -15.578125 L 45.96875 -6.671875 C 43.3125 -4.128906 40.410156 -2.304688 37.265625 -1.203125 C 34.117188 -0.109375 30.640625 0.4375 26.828125 0.4375 C 21.984375 0.4375 17.816406 -0.613281 14.328125 -2.71875 C 10.835938 -4.832031 8.15625 -7.648438 6.28125 -11.171875 C 4.40625 -14.691406 3.46875 -18.554688 3.46875 -22.765625 C 3.46875 -26.972656 4.347656 -30.75 6.109375 -34.09375 C 7.867188 -37.445312 10.390625 -40.101562 13.671875 -42.0625 C 16.960938 -44.03125 20.914062 -45.015625 25.53125 -45.015625 C 30.269531 -45.015625 34.335938 -44.019531 37.734375 -42.03125 C 41.140625 -40.039062 43.75 -37.328125 45.5625 -33.890625 C 47.382812 -30.453125 48.296875 -26.539062 48.296875 -22.15625 Z M 31.859375 -26.578125 C 31.859375 -28.242188 31.265625 -29.597656 30.078125 -30.640625 C 28.898438 -31.679688 27.382812 -32.203125 25.53125 -32.203125 C 23.800781 -32.203125 22.429688 -31.722656 21.421875 -30.765625 C 20.410156 -29.816406 19.90625 -28.421875 19.90625 -26.578125 Z M 31.859375 -26.578125 "/></g></g></g><g fill="#68ada7" fill-opacity="1"><g transform="translate(576.1406, 98.593047)"><g/></g></g><g fill="#68ada7" fill-opacity="1"><g transform="translate(604.963311, 98.593047)"><g><path d="M 49.515625 0 L 33.0625 0 L 33.328125 -0.34375 L 33.328125 -17.75 C 33.328125 -20.75 33.210938 -23.316406 32.984375 -25.453125 C 32.753906 -27.585938 32.144531 -29.242188 31.15625 -30.421875 C 30.175781 -31.609375 28.5625 -32.203125 26.3125 -32.203125 C 23.882812 -32.203125 22.195312 -31.609375 21.25 -30.421875 C 20.300781 -29.242188 19.738281 -27.585938 19.5625 -25.453125 C 19.382812 -23.316406 19.296875 -20.75 19.296875 -17.75 L 19.296875 0 L 2.859375 0 L 2.859375 -44.578125 L 19.296875 -44.578125 L 19.296875 -37.734375 C 20.453125 -39.640625 21.984375 -41.328125 23.890625 -42.796875 C 25.796875 -44.273438 28.421875 -45.015625 31.765625 -45.015625 C 35.691406 -45.015625 38.707031 -44.078125 40.8125 -42.203125 C 42.914062 -40.328125 44.257812 -37.859375 44.84375 -34.796875 C 46.164062 -37.859375 48.351562 -40.328125 51.40625 -42.203125 C 54.46875 -44.078125 58.050781 -45.015625 62.15625 -45.015625 C 65.4375 -45.015625 68.421875 -44.40625 71.109375 -43.1875 C 73.796875 -41.976562 75.945312 -40.117188 77.5625 -37.609375 C 79.175781 -35.097656 79.984375 -31.878906 79.984375 -27.953125 L 79.984375 0 L 63.53125 0 L 63.53125 -17.75 C 63.53125 -20.75 63.457031 -23.316406 63.3125 -25.453125 C 63.175781 -27.585938 62.628906 -29.242188 61.671875 -30.421875 C 60.722656 -31.609375 59.007812 -32.203125 56.53125 -32.203125 C 54.445312 -32.203125 52.914062 -31.609375 51.9375 -30.421875 C 50.957031 -29.242188 50.304688 -27.585938 49.984375 -25.453125 C 49.671875 -23.316406 49.515625 -20.75 49.515625 -17.75 Z M 49.515625 0 "/></g></g></g><g fill="#68ada7" fill-opacity="1"><g transform="translate(686.930618, 98.593047)"><g><path d="M 27.53125 -45.015625 C 33.875 -45.015625 38.585938 -43.328125 41.671875 -39.953125 C 44.765625 -36.578125 46.3125 -31.742188 46.3125 -25.453125 L 46.3125 0 L 29.859375 0 L 29.859375 -4.84375 C 29.460938 -4.15625 28.875 -3.40625 28.09375 -2.59375 C 27.3125 -1.789062 26.171875 -1.082031 24.671875 -0.46875 C 23.171875 0.132812 21.0625 0.4375 18.34375 0.4375 C 13.445312 0.4375 9.882812 -0.773438 7.65625 -3.203125 C 5.4375 -5.628906 4.328125 -8.742188 4.328125 -12.546875 C 4.328125 -16.179688 5.132812 -19.050781 6.75 -21.15625 C 8.363281 -23.269531 10.65625 -24.769531 13.625 -25.65625 C 16.601562 -26.550781 20.054688 -27 23.984375 -27 L 29.859375 -27 C 29.859375 -28.507812 29.566406 -29.640625 28.984375 -30.390625 C 28.410156 -31.140625 27.734375 -31.628906 26.953125 -31.859375 C 26.179688 -32.085938 25.445312 -32.203125 24.75 -32.203125 C 23.71875 -32.203125 22.519531 -31.96875 21.15625 -31.5 C 19.800781 -31.039062 18.460938 -30.234375 17.140625 -29.078125 L 8.046875 -37.21875 C 10.066406 -39.300781 12.722656 -41.117188 16.015625 -42.671875 C 19.304688 -44.234375 23.144531 -45.015625 27.53125 -45.015625 Z M 29.859375 -14.796875 L 29.859375 -16.1875 L 26.484375 -16.1875 C 24.347656 -16.1875 22.863281 -15.953125 22.03125 -15.484375 C 21.195312 -15.023438 20.78125 -14.132812 20.78125 -12.8125 C 20.78125 -10.5625 22.191406 -9.4375 25.015625 -9.4375 C 27.035156 -9.4375 28.347656 -9.96875 28.953125 -11.03125 C 29.554688 -12.101562 29.859375 -13.359375 29.859375 -14.796875 Z M 29.859375 -14.796875 "/></g></g></g><g fill="#68ada7" fill-opacity="1"><g transform="translate(736.699574, 98.593047)"><g><path d="M 35.140625 -44.578125 L 51.5 -44.578125 L 51.5 -5.28125 C 51.5 -1.238281 50.820312 2.164062 49.46875 4.9375 C 48.113281 7.707031 46.296875 9.941406 44.015625 11.640625 C 41.734375 13.347656 39.191406 14.578125 36.390625 15.328125 C 33.597656 16.078125 30.757812 16.453125 27.875 16.453125 C 27.125 16.453125 25.535156 16.453125 23.109375 16.453125 C 20.679688 16.453125 17.664062 16.117188 14.0625 15.453125 C 10.457031 14.785156 6.460938 13.5 2.078125 11.59375 L 9.265625 1.03125 C 12.203125 2.019531 14.632812 2.703125 16.5625 3.078125 C 18.5 3.453125 20.117188 3.648438 21.421875 3.671875 C 22.722656 3.703125 23.894531 3.71875 24.9375 3.71875 C 26.195312 3.71875 27.617188 3.488281 29.203125 3.03125 C 30.796875 2.570312 32.179688 1.660156 33.359375 0.296875 C 34.546875 -1.054688 35.140625 -3.085938 35.140625 -5.796875 C 33.640625 -3.773438 31.96875 -2.332031 30.125 -1.46875 C 28.28125 -0.601562 26.519531 -0.0703125 24.84375 0.125 C 23.164062 0.332031 21.78125 0.4375 20.6875 0.4375 C 17.34375 0.4375 14.238281 -0.441406 11.375 -2.203125 C 8.519531 -3.960938 6.238281 -6.53125 4.53125 -9.90625 C 2.832031 -13.28125 1.984375 -17.394531 1.984375 -22.25 C 1.984375 -27.4375 2.832031 -31.703125 4.53125 -35.046875 C 6.238281 -38.398438 8.519531 -40.898438 11.375 -42.546875 C 14.238281 -44.191406 17.34375 -45.015625 20.6875 -45.015625 C 21.78125 -45.015625 23.164062 -44.910156 24.84375 -44.703125 C 26.519531 -44.503906 28.28125 -43.957031 30.125 -43.0625 C 31.96875 -42.164062 33.640625 -40.707031 35.140625 -38.6875 Z M 26.75 -12.296875 C 29.457031 -12.296875 31.53125 -13.21875 32.96875 -15.0625 C 34.414062 -16.90625 35.140625 -19.300781 35.140625 -22.25 C 35.140625 -25.132812 34.414062 -27.515625 32.96875 -29.390625 C 31.53125 -31.265625 29.457031 -32.203125 26.75 -32.203125 C 24.09375 -32.203125 22.039062 -31.265625 20.59375 -29.390625 C 19.15625 -27.515625 18.4375 -25.132812 18.4375 -22.25 C 18.4375 -19.300781 19.15625 -16.90625 20.59375 -15.0625 C 22.039062 -13.21875 24.09375 -12.296875 26.75 -12.296875 Z M 26.75 -12.296875 "/></g></g></g><g fill="#68ada7" fill-opacity="1"><g transform="translate(790.796274, 98.593047)"><g><path d="M 27.53125 -45.015625 C 33.875 -45.015625 38.585938 -43.328125 41.671875 -39.953125 C 44.765625 -36.578125 46.3125 -31.742188 46.3125 -25.453125 L 46.3125 0 L 29.859375 0 L 29.859375 -4.84375 C 29.460938 -4.15625 28.875 -3.40625 28.09375 -2.59375 C 27.3125 -1.789062 26.171875 -1.082031 24.671875 -0.46875 C 23.171875 0.132812 21.0625 0.4375 18.34375 0.4375 C 13.445312 0.4375 9.882812 -0.773438 7.65625 -3.203125 C 5.4375 -5.628906 4.328125 -8.742188 4.328125 -12.546875 C 4.328125 -16.179688 5.132812 -19.050781 6.75 -21.15625 C 8.363281 -23.269531 10.65625 -24.769531 13.625 -25.65625 C 16.601562 -26.550781 20.054688 -27 23.984375 -27 L 29.859375 -27 C 29.859375 -28.507812 29.566406 -29.640625 28.984375 -30.390625 C 28.410156 -31.140625 27.734375 -31.628906 26.953125 -31.859375 C 26.179688 -32.085938 25.445312 -32.203125 24.75 -32.203125 C 23.71875 -32.203125 22.519531 -31.96875 21.15625 -31.5 C 19.800781 -31.039062 18.460938 -30.234375 17.140625 -29.078125 L 8.046875 -37.21875 C 10.066406 -39.300781 12.722656 -41.117188 16.015625 -42.671875 C 19.304688 -44.234375 23.144531 -45.015625 27.53125 -45.015625 Z M 29.859375 -14.796875 L 29.859375 -16.1875 L 26.484375 -16.1875 C 24.347656 -16.1875 22.863281 -15.953125 22.03125 -15.484375 C 21.195312 -15.023438 20.78125 -14.132812 20.78125 -12.8125 C 20.78125 -10.5625 22.191406 -9.4375 25.015625 -9.4375 C 27.035156 -9.4375 28.347656 -9.96875 28.953125 -11.03125 C 29.554688 -12.101562 29.859375 -13.359375 29.859375 -14.796875 Z M 29.859375 -14.796875 "/></g></g></g><g fill="#68ada7" fill-opacity="1"><g transform="translate(840.565208, 98.593047)"><g><path d="M 39.640625 -31.421875 L 20 -12.71875 L 39.640625 -12.71875 L 39.640625 0 L 2.59375 0 L 2.59375 -13.59375 L 22.328125 -31.765625 L 2.59375 -31.765625 L 2.59375 -44.578125 L 39.640625 -44.578125 Z M 39.640625 -31.421875 "/></g></g></g><g fill="#68ada7" fill-opacity="1"><g transform="translate(881.938367, 98.593047)"><g><path d="M 20.25 -59.03125 C 20.25 -57.007812 19.5 -55.304688 18 -53.921875 C 16.5 -52.535156 14.625 -51.84375 12.375 -51.84375 C 10.238281 -51.84375 8.390625 -52.535156 6.828125 -53.921875 C 5.273438 -55.304688 4.5 -57.007812 4.5 -59.03125 C 4.5 -61 5.273438 -62.675781 6.828125 -64.0625 C 8.390625 -65.445312 10.238281 -66.140625 12.375 -66.140625 C 14.625 -66.140625 16.5 -65.445312 18 -64.0625 C 19.5 -62.675781 20.25 -61 20.25 -59.03125 Z M 20.34375 0 L 4.0625 0 L 4.0625 -44.578125 L 20.34375 -44.578125 Z M 20.34375 0 "/></g></g></g><g fill="#68ada7" fill-opacity="1"><g transform="translate(905.654346, 98.593047)"><g><path d="M 44.0625 0 L 28.65625 0 L 28.65625 -26.578125 C 28.65625 -29.171875 28.222656 -31.03125 27.359375 -32.15625 C 26.492188 -33.28125 25.191406 -33.84375 23.453125 -33.84375 C 21.609375 -33.84375 20.28125 -33.28125 19.46875 -32.15625 C 18.664062 -31.03125 18.265625 -29.171875 18.265625 -26.578125 L 18.265625 0 L 2.859375 0 L 2.859375 -44.578125 L 18.265625 -44.578125 L 18.265625 -40.59375 C 19.191406 -41.75 20.332031 -42.644531 21.6875 -43.28125 C 23.039062 -43.914062 24.394531 -44.363281 25.75 -44.625 C 27.101562 -44.882812 28.1875 -45.015625 29 -45.015625 C 34.476562 -45.015625 38.34375 -43.425781 40.59375 -40.25 C 42.84375 -37.070312 43.96875 -32.398438 43.96875 -26.234375 Z M 44.0625 0 "/></g></g></g><g fill="#68ada7" fill-opacity="1"><g transform="translate(951.788018, 98.593047)"><g><path d="M 48.296875 -17.484375 L 20 -17.921875 C 20 -16.066406 20.832031 -14.664062 22.5 -13.71875 C 24.175781 -12.769531 25.992188 -12.296875 27.953125 -12.296875 C 29.222656 -12.296875 30.679688 -12.566406 32.328125 -13.109375 C 33.972656 -13.660156 35.257812 -14.484375 36.1875 -15.578125 L 45.96875 -6.671875 C 43.3125 -4.128906 40.410156 -2.304688 37.265625 -1.203125 C 34.117188 -0.109375 30.640625 0.4375 26.828125 0.4375 C 21.984375 0.4375 17.816406 -0.613281 14.328125 -2.71875 C 10.835938 -4.832031 8.15625 -7.648438 6.28125 -11.171875 C 4.40625 -14.691406 3.46875 -18.554688 3.46875 -22.765625 C 3.46875 -26.972656 4.347656 -30.75 6.109375 -34.09375 C 7.867188 -37.445312 10.390625 -40.101562 13.671875 -42.0625 C 16.960938 -44.03125 20.914062 -45.015625 25.53125 -45.015625 C 30.269531 -45.015625 34.335938 -44.019531 37.734375 -42.03125 C 41.140625 -40.039062 43.75 -37.328125 45.5625 -33.890625 C 47.382812 -30.453125 48.296875 -26.539062 48.296875 -22.15625 Z M 31.859375 -26.578125 C 31.859375 -28.242188 31.265625 -29.597656 30.078125 -30.640625 C 28.898438 -31.679688 27.382812 -32.203125 25.53125 -32.203125 C 23.800781 -32.203125 22.429688 -31.722656 21.421875 -30.765625 C 20.410156 -29.816406 19.90625 -28.421875 19.90625 -26.578125 Z M 31.859375 -26.578125 "/></g></g></g><g transform="matrix(1, 0, 0, 1, 83, 9)"><g clip-path="url(#a987fb47c9)"><g clip-path="url(#52bfa4f81b)"><g fill="#357381" fill-opacity="1"><g transform="translate(0.907995, 41.504406)"><g><path d="M 31.765625 -6.519531 C 30.867188 -4.746094 29.648438 -3.234375 28.113281 -1.988281 C 26.609375 -0.761719 24.945312 0.164062 23.125 0.785156 C 21.316406 1.402344 19.484375 1.710938 17.625 1.710938 C 15.308594 1.710938 13.101562 1.285156 11.003906 0.433594 C 8.914062 -0.414062 7.050781 -1.597656 5.410156 -3.121094 C 3.765625 -4.648438 2.46875 -6.429688 1.527344 -8.460938 C 0.578125 -10.511719 0.101562 -12.722656 0.101562 -15.089844 C 0.101562 -17.457031 0.578125 -19.667969 1.527344 -21.722656 C 2.46875 -23.75 3.765625 -25.53125 5.410156 -27.0625 C 7.050781 -28.582031 8.914062 -29.765625 11.003906 -30.613281 C 13.101562 -31.464844 15.308594 -31.890625 17.625 -31.890625 C 19.480469 -31.890625 21.308594 -31.589844 23.113281 -30.988281 C 24.933594 -30.382812 26.597656 -29.472656 28.109375 -28.257812 C 29.65625 -27.015625 30.882812 -25.445312 31.785156 -23.546875 L 32.363281 -22.328125 L 24.402344 -17.375 L 23.648438 -18.820312 C 23.34375 -19.414062 22.90625 -19.996094 22.34375 -20.574219 C 21.800781 -21.125 21.148438 -21.574219 20.378906 -21.925781 C 19.636719 -22.265625 18.761719 -22.433594 17.746094 -22.433594 C 16.257812 -22.433594 15.011719 -22.125 14.007812 -21.511719 C 13.007812 -20.898438 12.242188 -20.054688 11.714844 -18.988281 C 11.160156 -17.871094 10.886719 -16.570312 10.886719 -15.089844 C 10.886719 -13.632812 11.164062 -12.339844 11.71875 -11.207031 C 12.246094 -10.128906 13.007812 -9.28125 14.007812 -8.671875 C 15.011719 -8.054688 16.257812 -7.746094 17.746094 -7.746094 C 18.753906 -7.746094 19.628906 -7.917969 20.363281 -8.265625 C 21.136719 -8.632812 21.796875 -9.09375 22.34375 -9.648438 C 22.917969 -10.234375 23.363281 -10.808594 23.671875 -11.359375 L 24.449219 -12.746094 L 32.390625 -7.746094 Z M 29.078125 -7.886719 L 30.421875 -7.203125 L 29.617188 -5.925781 L 24.1875 -9.347656 L 24.988281 -10.625 L 26.304688 -9.886719 C 25.867188 -9.097656 25.261719 -8.316406 24.496094 -7.535156 C 23.699219 -6.722656 22.75 -6.054688 21.648438 -5.535156 C 20.507812 -4.996094 19.207031 -4.726562 17.746094 -4.726562 C 15.691406 -4.726562 13.921875 -5.183594 12.429688 -6.097656 C 10.933594 -7.015625 9.792969 -8.273438 9.007812 -9.878906 C 8.246094 -11.429688 7.867188 -13.167969 7.867188 -15.089844 C 7.867188 -17.042969 8.246094 -18.789062 9.007812 -20.328125 C 9.796875 -21.914062 10.9375 -23.167969 12.429688 -24.082031 C 13.921875 -24.996094 15.691406 -25.453125 17.746094 -25.453125 C 19.199219 -25.453125 20.496094 -25.191406 21.632812 -24.671875 C 22.742188 -24.164062 23.695312 -23.503906 24.496094 -22.6875 C 25.273438 -21.894531 25.882812 -21.070312 26.328125 -20.210938 L 24.988281 -19.515625 L 24.191406 -20.796875 L 29.625 -24.179688 L 30.421875 -22.898438 L 29.058594 -22.25 C 28.355469 -23.730469 27.40625 -24.949219 26.21875 -25.90625 C 24.988281 -26.894531 23.636719 -27.632812 22.160156 -28.125 C 20.664062 -28.625 19.152344 -28.871094 17.625 -28.871094 C 15.703125 -28.871094 13.871094 -28.519531 12.136719 -27.816406 C 10.390625 -27.109375 8.832031 -26.117188 7.464844 -24.847656 C 6.109375 -23.589844 5.042969 -22.121094 4.265625 -20.453125 C 3.5 -18.800781 3.117188 -17.015625 3.117188 -15.089844 C 3.117188 -13.167969 3.5 -11.378906 4.265625 -9.730469 C 5.042969 -8.058594 6.109375 -6.589844 7.464844 -5.332031 C 8.832031 -4.0625 10.390625 -3.074219 12.136719 -2.363281 C 13.871094 -1.660156 15.703125 -1.308594 17.625 -1.308594 C 19.148438 -1.308594 20.65625 -1.5625 22.148438 -2.070312 C 23.628906 -2.578125 24.980469 -3.328125 26.210938 -4.328125 C 27.414062 -5.308594 28.367188 -6.496094 29.078125 -7.886719 Z M 29.078125 -7.886719 "/></g></g></g></g><g fill="#357381" fill-opacity="1"><g transform="translate(36.237207, 41.504406)"><g><path d="M 17.625 -31.890625 C 20.082031 -31.890625 22.359375 -31.511719 24.457031 -30.753906 C 26.578125 -29.988281 28.4375 -28.875 30.035156 -27.410156 C 31.644531 -25.933594 32.890625 -24.152344 33.78125 -22.058594 C 34.667969 -19.980469 35.109375 -17.65625 35.109375 -15.089844 C 35.109375 -12.523438 34.667969 -10.203125 33.78125 -8.121094 C 32.890625 -6.03125 31.644531 -4.246094 30.035156 -2.769531 C 28.4375 -1.304688 26.578125 -0.191406 24.457031 0.574219 C 22.359375 1.332031 20.082031 1.710938 17.625 1.710938 C 14.351562 1.710938 11.394531 1.039062 8.753906 -0.304688 C 6.070312 -1.667969 3.957031 -3.621094 2.414062 -6.15625 C 0.871094 -8.691406 0.101562 -11.667969 0.101562 -15.089844 C 0.101562 -18.539062 0.871094 -21.523438 2.414062 -24.046875 C 3.957031 -26.570312 6.070312 -28.511719 8.753906 -29.875 C 11.394531 -31.21875 14.351562 -31.890625 17.625 -31.890625 Z M 17.625 -28.871094 C 14.835938 -28.871094 12.332031 -28.308594 10.121094 -27.1875 C 7.945312 -26.082031 6.234375 -24.507812 4.988281 -22.472656 C 3.742188 -20.433594 3.117188 -17.972656 3.117188 -15.089844 C 3.117188 -12.234375 3.742188 -9.777344 4.992188 -7.726562 C 6.238281 -5.675781 7.949219 -4.101562 10.121094 -2.996094 C 12.332031 -1.871094 14.835938 -1.308594 17.625 -1.308594 C 19.730469 -1.308594 21.664062 -1.625 23.429688 -2.265625 C 25.171875 -2.894531 26.695312 -3.804688 27.992188 -4.996094 C 29.28125 -6.175781 30.285156 -7.613281 31.003906 -9.304688 C 31.730469 -11.003906 32.09375 -12.933594 32.09375 -15.089844 C 32.09375 -17.246094 31.730469 -19.175781 31.003906 -20.878906 C 30.285156 -22.570312 29.28125 -24.003906 27.992188 -25.183594 C 26.695312 -26.375 25.171875 -27.289062 23.429688 -27.917969 C 21.664062 -28.554688 19.730469 -28.871094 17.625 -28.871094 Z M 17.625 -22.433594 C 15.542969 -22.433594 13.902344 -21.796875 12.714844 -20.519531 C 11.496094 -19.214844 10.886719 -17.402344 10.886719 -15.089844 C 10.886719 -12.753906 11.492188 -10.9375 12.707031 -9.644531 C 13.898438 -8.378906 15.539062 -7.746094 17.625 -7.746094 C 19.710938 -7.746094 21.351562 -8.378906 22.542969 -9.644531 C 23.757812 -10.9375 24.367188 -12.753906 24.367188 -15.089844 C 24.367188 -17.402344 23.75 -19.210938 22.523438 -20.515625 C 21.316406 -21.792969 19.6875 -22.433594 17.625 -22.433594 Z M 17.625 -25.453125 C 20.554688 -25.453125 22.921875 -24.496094 24.71875 -22.582031 C 26.496094 -20.695312 27.382812 -18.199219 27.382812 -15.089844 C 27.382812 -11.957031 26.503906 -9.449219 24.742188 -7.578125 C 22.953125 -5.679688 20.582031 -4.726562 17.625 -4.726562 C 14.667969 -4.726562 12.296875 -5.679688 10.511719 -7.578125 C 8.75 -9.449219 7.867188 -11.957031 7.867188 -15.089844 C 7.867188 -18.195312 8.746094 -20.691406 10.507812 -22.578125 C 12.292969 -24.496094 14.667969 -25.453125 17.625 -25.453125 Z M 17.625 -25.453125 "/></g></g></g><g fill="#357381" fill-opacity="1"><g transform="translate(75.026845, 41.504406)"><g><path d="M 38.773438 -30.179688 L 38.773438 1.507812 L 28.027344 1.507812 L 28.027344 -14.285156 L 29.535156 -14.285156 L 30.882812 -13.601562 L 23.179688 1.507812 L 16.496094 1.507812 L 8.835938 -13.601562 L 10.179688 -14.285156 L 11.691406 -14.285156 L 11.691406 1.507812 L 0.90625 1.507812 L 0.90625 -31.691406 L 11.027344 -31.691406 L 21.183594 -11.667969 L 19.839844 -10.984375 L 18.492188 -11.667969 L 28.652344 -31.691406 L 38.773438 -31.691406 Z M 35.753906 -30.179688 L 37.261719 -30.179688 L 37.261719 -28.671875 L 29.578125 -28.671875 L 29.578125 -30.179688 L 30.921875 -29.496094 L 19.839844 -7.648438 L 8.753906 -29.496094 L 10.101562 -30.179688 L 10.101562 -28.671875 L 2.414062 -28.671875 L 2.414062 -30.179688 L 3.921875 -30.179688 L 3.921875 0 L 2.414062 0 L 2.414062 -1.507812 L 10.179688 -1.507812 L 10.179688 0 L 8.671875 0 L 8.671875 -14.285156 L 11.527344 -14.96875 L 18.769531 -0.683594 L 17.425781 0 L 17.425781 -1.507812 L 22.253906 -1.507812 L 22.253906 0 L 20.910156 -0.683594 L 28.191406 -14.972656 L 31.046875 -14.285156 L 31.046875 0 L 29.535156 0 L 29.535156 -1.507812 L 37.261719 -1.507812 L 37.261719 0 L 35.753906 0 Z M 35.753906 -30.179688 "/></g></g></g><g fill="#357381" fill-opacity="1"><g transform="translate(118.001192, 41.504406)"><g><path d="M 0.90625 -31.691406 L 11.691406 -31.691406 L 11.691406 1.507812 L 0.90625 1.507812 Z M 3.921875 -28.671875 L 3.921875 -1.507812 L 8.671875 -1.507812 L 8.671875 -28.671875 Z M 3.921875 -28.671875 "/></g></g></g><g fill="#357381" fill-opacity="1"><g transform="translate(133.493275, 41.504406)"><g><path d="M 29.578125 1.507812 L 21.261719 1.507812 L 8.9375 -16.324219 L 10.179688 -17.183594 L 11.691406 -17.183594 L 11.691406 1.507812 L 0.90625 1.507812 L 0.90625 -31.691406 L 10.6875 -31.691406 L 23.089844 -13.859375 L 21.851562 -12.996094 L 20.339844 -12.996094 L 20.339844 -31.691406 L 31.085938 -31.691406 L 31.085938 1.507812 Z M 29.578125 -1.507812 L 29.578125 0 L 28.066406 0 L 28.066406 -30.179688 L 29.578125 -30.179688 L 29.578125 -28.671875 L 21.851562 -28.671875 L 21.851562 -30.179688 L 23.359375 -30.179688 L 23.359375 -8.183594 L 8.660156 -29.320312 L 9.898438 -30.179688 L 9.898438 -28.671875 L 2.414062 -28.671875 L 2.414062 -30.179688 L 3.921875 -30.179688 L 3.921875 0 L 2.414062 0 L 2.414062 -1.507812 L 10.179688 -1.507812 L 10.179688 0 L 8.671875 0 L 8.671875 -22.023438 L 23.292969 -0.859375 L 22.050781 0 L 22.050781 -1.507812 Z M 29.578125 -1.507812 "/></g></g></g><g fill="#357381" fill-opacity="1"><g transform="translate(169.063907, 41.504406)"><g><path d="M 35.511719 -17.625 L 35.511719 1.507812 L 24.769531 1.507812 L 24.769531 -4.347656 L 26.277344 -4.347656 L 27.609375 -3.636719 C 27.085938 -2.65625 26.308594 -1.738281 25.273438 -0.871094 C 24.253906 -0.0234375 23.035156 0.664062 21.613281 1.191406 C 20.183594 1.726562 18.585938 1.992188 16.820312 1.992188 C 14.59375 1.992188 12.492188 1.554688 10.515625 0.675781 C 8.550781 -0.195312 6.816406 -1.414062 5.3125 -2.976562 C 3.8125 -4.535156 2.636719 -6.34375 1.785156 -8.394531 C 0.929688 -10.457031 0.503906 -12.691406 0.503906 -15.089844 C 0.503906 -17.476562 0.960938 -19.707031 1.878906 -21.777344 C 2.789062 -23.832031 4.039062 -25.632812 5.628906 -27.179688 C 7.214844 -28.722656 9.050781 -29.925781 11.132812 -30.789062 C 13.222656 -31.65625 15.453125 -32.09375 17.828125 -32.09375 C 20.316406 -32.09375 22.785156 -31.5625 25.230469 -30.5 C 27.683594 -29.433594 29.828125 -27.878906 31.664062 -25.839844 L 32.617188 -24.777344 L 25.132812 -17.234375 L 24.15625 -18.980469 C 23.863281 -19.5 23.394531 -20.046875 22.746094 -20.617188 C 22.082031 -21.199219 21.308594 -21.6875 20.429688 -22.082031 C 19.605469 -22.453125 18.738281 -22.636719 17.828125 -22.636719 C 16.628906 -22.636719 15.625 -22.417969 14.8125 -21.988281 C 13.992188 -21.550781 13.328125 -20.972656 12.824219 -20.257812 C 12.277344 -19.484375 11.882812 -18.660156 11.632812 -17.777344 C 11.375 -16.867188 11.246094 -15.96875 11.246094 -15.089844 C 11.246094 -13.75 11.480469 -12.476562 11.949219 -11.269531 C 12.382812 -10.160156 13.078125 -9.25 14.039062 -8.535156 C 14.964844 -7.847656 16.226562 -7.503906 17.828125 -7.503906 C 19.0625 -7.503906 20.191406 -7.699219 21.210938 -8.089844 C 22.160156 -8.453125 22.910156 -8.96875 23.464844 -9.636719 C 23.957031 -10.230469 24.203125 -10.972656 24.203125 -11.871094 L 25.714844 -11.871094 L 25.714844 -10.363281 L 17.765625 -10.363281 L 17.765625 -19.132812 L 35.511719 -19.132812 Z M 32.496094 -17.625 L 34.003906 -17.625 L 34.003906 -16.117188 L 19.277344 -16.117188 L 19.277344 -17.625 L 20.785156 -17.625 L 20.785156 -11.871094 L 19.277344 -11.871094 L 19.277344 -13.378906 L 27.222656 -13.378906 L 27.222656 -11.871094 C 27.222656 -10.246094 26.746094 -8.859375 25.789062 -7.707031 C 24.894531 -6.632812 23.730469 -5.820312 22.289062 -5.269531 C 20.921875 -4.746094 19.433594 -4.488281 17.828125 -4.488281 C 15.5625 -4.488281 13.699219 -5.027344 12.238281 -6.113281 C 10.8125 -7.171875 9.777344 -8.527344 9.136719 -10.179688 C 8.53125 -11.734375 8.230469 -13.371094 8.230469 -15.089844 C 8.230469 -16.25 8.394531 -17.417969 8.726562 -18.597656 C 9.070312 -19.8125 9.613281 -20.945312 10.355469 -21.996094 C 11.136719 -23.105469 12.152344 -23.988281 13.394531 -24.652344 C 14.648438 -25.320312 16.125 -25.652344 17.828125 -25.652344 C 19.167969 -25.652344 20.445312 -25.382812 21.664062 -24.839844 C 22.820312 -24.320312 23.847656 -23.667969 24.738281 -22.882812 C 25.644531 -22.085938 26.328125 -21.277344 26.789062 -20.457031 L 25.472656 -19.71875 L 24.402344 -20.78125 L 29.472656 -25.890625 L 30.542969 -24.828125 L 29.421875 -23.820312 C 27.878906 -25.535156 26.078125 -26.839844 24.027344 -27.730469 C 21.964844 -28.625 19.898438 -29.074219 17.828125 -29.074219 C 15.855469 -29.074219 14.007812 -28.71875 12.289062 -28.003906 C 10.5625 -27.285156 9.042969 -26.289062 7.730469 -25.015625 C 6.421875 -23.742188 5.390625 -22.253906 4.640625 -20.554688 C 3.894531 -18.871094 3.519531 -17.050781 3.519531 -15.089844 C 3.519531 -13.089844 3.871094 -11.246094 4.574219 -9.550781 C 5.277344 -7.847656 6.25 -6.355469 7.484375 -5.070312 C 8.71875 -3.789062 10.136719 -2.796875 11.738281 -2.082031 C 13.328125 -1.378906 15.023438 -1.027344 16.820312 -1.027344 C 18.222656 -1.027344 19.46875 -1.230469 20.558594 -1.636719 C 21.660156 -2.046875 22.585938 -2.5625 23.339844 -3.191406 C 24.074219 -3.804688 24.609375 -4.425781 24.945312 -5.054688 L 27.785156 -4.347656 L 27.785156 0 L 26.277344 0 L 26.277344 -1.507812 L 34.003906 -1.507812 L 34.003906 0 L 32.496094 0 Z M 32.496094 -17.625 "/></g></g></g><g fill="#357381" fill-opacity="1"><g transform="translate(208.376636, 41.504406)"><g/></g></g><g fill="#357381" fill-opacity="1"><g transform="translate(225.478211, 41.504406)"><g><path d="M 15.386719 -20.21875 C 17.777344 -19.382812 19.824219 -18.488281 21.523438 -17.53125 C 23.347656 -16.507812 24.75 -15.292969 25.742188 -13.886719 C 26.78125 -12.40625 27.304688 -10.621094 27.304688 -8.53125 C 27.304688 -6.214844 26.707031 -4.25 25.519531 -2.644531 C 24.359375 -1.078125 22.839844 0.09375 20.957031 0.871094 C 19.152344 1.617188 17.167969 1.992188 15.011719 1.992188 C 12.050781 1.964844 9.3125 1.453125 6.789062 0.457031 C 4.234375 -0.550781 2.007812 -2.0625 0.109375 -4.074219 L -0.902344 -5.152344 L 6.152344 -12.09375 L 7.191406 -11.300781 C 7.769531 -10.863281 8.457031 -10.316406 9.261719 -9.660156 C 9.96875 -9.085938 10.78125 -8.570312 11.699219 -8.109375 C 12.507812 -7.707031 13.382812 -7.503906 14.324219 -7.503906 L 14.367188 -7.503906 C 15.0625 -7.484375 15.660156 -7.628906 16.160156 -7.929688 C 16.300781 -8.015625 16.398438 -8.113281 16.457031 -8.21875 C 16.523438 -8.347656 16.558594 -8.515625 16.558594 -8.730469 C 16.558594 -9.144531 16.429688 -9.445312 16.171875 -9.640625 C 15.632812 -10.046875 14.910156 -10.421875 14 -10.757812 C 12.921875 -11.160156 11.773438 -11.636719 10.5625 -12.1875 C 9.816406 -12.519531 8.953125 -12.941406 7.972656 -13.449219 C 6.945312 -13.984375 5.949219 -14.621094 4.980469 -15.359375 C 3.941406 -16.152344 3.074219 -17.085938 2.390625 -18.164062 C 1.640625 -19.335938 1.265625 -20.671875 1.265625 -22.171875 C 1.265625 -24.0625 1.667969 -25.671875 2.472656 -27 C 3.261719 -28.300781 4.300781 -29.335938 5.59375 -30.09375 C 6.800781 -30.804688 8.097656 -31.316406 9.484375 -31.632812 C 10.828125 -31.9375 12.132812 -32.09375 13.398438 -32.09375 C 15.300781 -32.09375 17.109375 -31.867188 18.832031 -31.417969 C 20.546875 -30.972656 22.113281 -30.367188 23.535156 -29.597656 C 24.976562 -28.816406 26.179688 -27.945312 27.144531 -26.980469 L 28.164062 -25.960938 L 21.785156 -19.007812 L 20.6875 -19.851562 C 20.382812 -20.085938 19.847656 -20.433594 19.078125 -20.902344 C 18.339844 -21.347656 17.472656 -21.757812 16.476562 -22.125 C 15.558594 -22.464844 14.628906 -22.636719 13.683594 -22.636719 L 13.683594 -25.652344 C 13.601562 -25.652344 13.519531 -25.648438 13.4375 -25.632812 C 13.324219 -25.613281 13.21875 -25.585938 13.113281 -25.542969 C 12.914062 -25.460938 12.738281 -25.339844 12.589844 -25.183594 C 12.410156 -24.992188 12.289062 -24.773438 12.222656 -24.519531 C 12.140625 -24.203125 12.160156 -23.890625 12.285156 -23.585938 C 12.484375 -23.085938 12.84375 -22.78125 13.367188 -22.667969 C 13.421875 -22.65625 13.476562 -22.648438 13.535156 -22.644531 C 13.554688 -22.640625 13.570312 -22.640625 13.585938 -22.640625 C 13.574219 -22.640625 13.554688 -22.640625 13.523438 -22.640625 C 13.449219 -22.644531 13.335938 -22.648438 13.175781 -22.65625 C 12.96875 -22.664062 12.707031 -22.640625 12.390625 -22.582031 C 12.242188 -22.554688 12.117188 -22.488281 12.003906 -22.386719 C 12.023438 -22.40625 12.039062 -22.421875 12.050781 -22.441406 L 12.050781 -22.4375 C 12.023438 -22.363281 12.011719 -22.246094 12.011719 -22.09375 C 12.011719 -22.054688 12.039062 -21.953125 12.085938 -21.789062 C 12.070312 -21.851562 12.046875 -21.898438 12.023438 -21.9375 C 12.027344 -21.929688 12.039062 -21.914062 12.0625 -21.890625 C 12.167969 -21.785156 12.328125 -21.65625 12.546875 -21.503906 C 13.046875 -21.160156 14 -20.726562 15.410156 -20.207031 Z M 14.367188 -17.375 C 12.71875 -17.984375 11.542969 -18.53125 10.832031 -19.019531 C 9.941406 -19.632812 9.394531 -20.265625 9.199219 -20.910156 C 9.0625 -21.359375 8.992188 -21.753906 8.992188 -22.09375 C 8.992188 -23.179688 9.316406 -24.019531 9.964844 -24.613281 C 10.5 -25.101562 11.121094 -25.414062 11.835938 -25.546875 C 12.375 -25.648438 12.867188 -25.691406 13.300781 -25.671875 C 13.464844 -25.664062 13.585938 -25.660156 13.660156 -25.65625 C 13.703125 -25.65625 13.734375 -25.652344 13.753906 -25.652344 C 13.78125 -25.652344 13.808594 -25.648438 13.835938 -25.648438 C 13.890625 -25.640625 13.945312 -25.632812 14 -25.621094 C 14.527344 -25.507812 14.886719 -25.203125 15.085938 -24.707031 C 15.207031 -24.398438 15.230469 -24.089844 15.148438 -23.769531 C 15.082031 -23.515625 14.960938 -23.296875 14.78125 -23.105469 C 14.632812 -22.949219 14.457031 -22.828125 14.257812 -22.746094 C 14.152344 -22.707031 14.042969 -22.675781 13.933594 -22.65625 C 13.851562 -22.640625 13.765625 -22.636719 13.683594 -22.636719 L 13.683594 -25.652344 C 14.988281 -25.652344 16.269531 -25.421875 17.527344 -24.957031 C 18.703125 -24.519531 19.742188 -24.03125 20.640625 -23.484375 C 21.507812 -22.957031 22.136719 -22.542969 22.53125 -22.242188 L 21.609375 -21.046875 L 20.496094 -22.066406 L 24.964844 -26.933594 L 26.078125 -25.914062 L 25.007812 -24.847656 C 24.253906 -25.601562 23.285156 -26.300781 22.097656 -26.941406 C 20.890625 -27.59375 19.546875 -28.113281 18.070312 -28.5 C 16.597656 -28.882812 15.042969 -29.074219 13.398438 -29.074219 C 12.359375 -29.074219 11.277344 -28.945312 10.15625 -28.6875 C 9.070312 -28.441406 8.0625 -28.042969 7.121094 -27.492188 C 6.269531 -26.988281 5.578125 -26.304688 5.054688 -25.4375 C 4.542969 -24.589844 4.285156 -23.5 4.285156 -22.171875 C 4.285156 -21.257812 4.503906 -20.464844 4.933594 -19.785156 C 5.429688 -19.011719 6.054688 -18.335938 6.808594 -17.761719 C 7.640625 -17.128906 8.492188 -16.582031 9.371094 -16.125 C 10.292969 -15.644531 11.109375 -15.246094 11.8125 -14.933594 C 12.960938 -14.414062 14.039062 -13.964844 15.054688 -13.585938 C 16.238281 -13.148438 17.21875 -12.632812 17.992188 -12.050781 C 19.050781 -11.25 19.578125 -10.144531 19.578125 -8.730469 C 19.578125 -8.007812 19.421875 -7.363281 19.117188 -6.789062 C 18.796875 -6.199219 18.335938 -5.71875 17.726562 -5.351562 C 16.71875 -4.738281 15.574219 -4.453125 14.285156 -4.488281 L 14.324219 -5.996094 L 14.324219 -4.488281 C 12.90625 -4.488281 11.582031 -4.792969 10.351562 -5.410156 C 9.234375 -5.96875 8.234375 -6.605469 7.355469 -7.320312 C 6.578125 -7.953125 5.914062 -8.480469 5.363281 -8.898438 L 6.277344 -10.101562 L 7.335938 -9.023438 L 2.265625 -4.035156 L 1.207031 -5.109375 L 2.304688 -6.144531 C 3.894531 -4.457031 5.757812 -3.191406 7.898438 -2.351562 C 10.070312 -1.492188 12.441406 -1.050781 15.011719 -1.027344 C 16.769531 -1.027344 18.367188 -1.324219 19.804688 -1.917969 C 21.171875 -2.480469 22.265625 -3.320312 23.09375 -4.4375 C 23.886719 -5.511719 24.285156 -6.878906 24.285156 -8.53125 C 24.285156 -9.984375 23.949219 -11.191406 23.273438 -12.148438 C 22.546875 -13.183594 21.46875 -14.101562 20.046875 -14.902344 C 18.5 -15.769531 16.617188 -16.59375 14.390625 -17.367188 Z M 14.367188 -17.375 "/></g></g></g><g fill="#357381" fill-opacity="1"><g transform="translate(255.898433, 41.504406)"><g><path d="M 17.625 -31.890625 C 20.082031 -31.890625 22.359375 -31.511719 24.457031 -30.753906 C 26.578125 -29.988281 28.4375 -28.875 30.035156 -27.410156 C 31.644531 -25.933594 32.890625 -24.152344 33.78125 -22.058594 C 34.667969 -19.980469 35.109375 -17.65625 35.109375 -15.089844 C 35.109375 -12.523438 34.667969 -10.203125 33.78125 -8.121094 C 32.890625 -6.03125 31.644531 -4.246094 30.035156 -2.769531 C 28.4375 -1.304688 26.578125 -0.191406 24.457031 0.574219 C 22.359375 1.332031 20.082031 1.710938 17.625 1.710938 C 14.351562 1.710938 11.394531 1.039062 8.753906 -0.304688 C 6.070312 -1.667969 3.957031 -3.621094 2.414062 -6.15625 C 0.871094 -8.691406 0.101562 -11.667969 0.101562 -15.089844 C 0.101562 -18.539062 0.871094 -21.523438 2.414062 -24.046875 C 3.957031 -26.570312 6.070312 -28.511719 8.753906 -29.875 C 11.394531 -31.21875 14.351562 -31.890625 17.625 -31.890625 Z M 17.625 -28.871094 C 14.835938 -28.871094 12.332031 -28.308594 10.121094 -27.1875 C 7.945312 -26.082031 6.234375 -24.507812 4.988281 -22.472656 C 3.742188 -20.433594 3.117188 -17.972656 3.117188 -15.089844 C 3.117188 -12.234375 3.742188 -9.777344 4.992188 -7.726562 C 6.238281 -5.675781 7.949219 -4.101562 10.121094 -2.996094 C 12.332031 -1.871094 14.835938 -1.308594 17.625 -1.308594 C 19.730469 -1.308594 21.664062 -1.625 23.429688 -2.265625 C 25.171875 -2.894531 26.695312 -3.804688 27.992188 -4.996094 C 29.28125 -6.175781 30.285156 -7.613281 31.003906 -9.304688 C 31.730469 -11.003906 32.09375 -12.933594 32.09375 -15.089844 C 32.09375 -17.246094 31.730469 -19.175781 31.003906 -20.878906 C 30.285156 -22.570312 29.28125 -24.003906 27.992188 -25.183594 C 26.695312 -26.375 25.171875 -27.289062 23.429688 -27.917969 C 21.664062 -28.554688 19.730469 -28.871094 17.625 -28.871094 Z M 17.625 -22.433594 C 15.542969 -22.433594 13.902344 -21.796875 12.714844 -20.519531 C 11.496094 -19.214844 10.886719 -17.402344 10.886719 -15.089844 C 10.886719 -12.753906 11.492188 -10.9375 12.707031 -9.644531 C 13.898438 -8.378906 15.539062 -7.746094 17.625 -7.746094 C 19.710938 -7.746094 21.351562 -8.378906 22.542969 -9.644531 C 23.757812 -10.9375 24.367188 -12.753906 24.367188 -15.089844 C 24.367188 -17.402344 23.75 -19.210938 22.523438 -20.515625 C 21.316406 -21.792969 19.6875 -22.433594 17.625 -22.433594 Z M 17.625 -25.453125 C 20.554688 -25.453125 22.921875 -24.496094 24.71875 -22.582031 C 26.496094 -20.695312 27.382812 -18.199219 27.382812 -15.089844 C 27.382812 -11.957031 26.503906 -9.449219 24.742188 -7.578125 C 22.953125 -5.679688 20.582031 -4.726562 17.625 -4.726562 C 14.667969 -4.726562 12.296875 -5.679688 10.511719 -7.578125 C 8.75 -9.449219 7.867188 -11.957031 7.867188 -15.089844 C 7.867188 -18.195312 8.746094 -20.691406 10.507812 -22.578125 C 12.292969 -24.496094 14.667969 -25.453125 17.625 -25.453125 Z M 17.625 -25.453125 "/></g></g></g><g fill="#357381" fill-opacity="1"><g transform="translate(294.688071, 41.504406)"><g><path d="M 17.625 -31.890625 C 20.082031 -31.890625 22.359375 -31.511719 24.457031 -30.753906 C 26.578125 -29.988281 28.4375 -28.875 30.035156 -27.410156 C 31.644531 -25.933594 32.890625 -24.152344 33.78125 -22.058594 C 34.667969 -19.980469 35.109375 -17.65625 35.109375 -15.089844 C 35.109375 -12.523438 34.667969 -10.203125 33.78125 -8.121094 C 32.890625 -6.03125 31.644531 -4.246094 30.035156 -2.769531 C 28.4375 -1.304688 26.578125 -0.191406 24.457031 0.574219 C 22.359375 1.332031 20.082031 1.710938 17.625 1.710938 C 14.351562 1.710938 11.394531 1.039062 8.753906 -0.304688 C 6.070312 -1.667969 3.957031 -3.621094 2.414062 -6.15625 C 0.871094 -8.691406 0.101562 -11.667969 0.101562 -15.089844 C 0.101562 -18.539062 0.871094 -21.523438 2.414062 -24.046875 C 3.957031 -26.570312 6.070312 -28.511719 8.753906 -29.875 C 11.394531 -31.21875 14.351562 -31.890625 17.625 -31.890625 Z M 17.625 -28.871094 C 14.835938 -28.871094 12.332031 -28.308594 10.121094 -27.1875 C 7.945312 -26.082031 6.234375 -24.507812 4.988281 -22.472656 C 3.742188 -20.433594 3.117188 -17.972656 3.117188 -15.089844 C 3.117188 -12.234375 3.742188 -9.777344 4.992188 -7.726562 C 6.238281 -5.675781 7.949219 -4.101562 10.121094 -2.996094 C 12.332031 -1.871094 14.835938 -1.308594 17.625 -1.308594 C 19.730469 -1.308594 21.664062 -1.625 23.429688 -2.265625 C 25.171875 -2.894531 26.695312 -3.804688 27.992188 -4.996094 C 29.28125 -6.175781 30.285156 -7.613281 31.003906 -9.304688 C 31.730469 -11.003906 32.09375 -12.933594 32.09375 -15.089844 C 32.09375 -17.246094 31.730469 -19.175781 31.003906 -20.878906 C 30.285156 -22.570312 29.28125 -24.003906 27.992188 -25.183594 C 26.695312 -26.375 25.171875 -27.289062 23.429688 -27.917969 C 21.664062 -28.554688 19.730469 -28.871094 17.625 -28.871094 Z M 17.625 -22.433594 C 15.542969 -22.433594 13.902344 -21.796875 12.714844 -20.519531 C 11.496094 -19.214844 10.886719 -17.402344 10.886719 -15.089844 C 10.886719 -12.753906 11.492188 -10.9375 12.707031 -9.644531 C 13.898438 -8.378906 15.539062 -7.746094 17.625 -7.746094 C 19.710938 -7.746094 21.351562 -8.378906 22.542969 -9.644531 C 23.757812 -10.9375 24.367188 -12.753906 24.367188 -15.089844 C 24.367188 -17.402344 23.75 -19.210938 22.523438 -20.515625 C 21.316406 -21.792969 19.6875 -22.433594 17.625 -22.433594 Z M 17.625 -25.453125 C 20.554688 -25.453125 22.921875 -24.496094 24.71875 -22.582031 C 26.496094 -20.695312 27.382812 -18.199219 27.382812 -15.089844 C 27.382812 -11.957031 26.503906 -9.449219 24.742188 -7.578125 C 22.953125 -5.679688 20.582031 -4.726562 17.625 -4.726562 C 14.667969 -4.726562 12.296875 -5.679688 10.511719 -7.578125 C 8.75 -9.449219 7.867188 -11.957031 7.867188 -15.089844 C 7.867188 -18.195312 8.746094 -20.691406 10.507812 -22.578125 C 12.292969 -24.496094 14.667969 -25.453125 17.625 -25.453125 Z M 17.625 -25.453125 "/></g></g></g><g fill="#357381" fill-opacity="1"><g transform="translate(333.477709, 41.504406)"><g><path d="M 29.578125 1.507812 L 21.261719 1.507812 L 8.9375 -16.324219 L 10.179688 -17.183594 L 11.691406 -17.183594 L 11.691406 1.507812 L 0.90625 1.507812 L 0.90625 -31.691406 L 10.6875 -31.691406 L 23.089844 -13.859375 L 21.851562 -12.996094 L 20.339844 -12.996094 L 20.339844 -31.691406 L 31.085938 -31.691406 L 31.085938 1.507812 Z M 29.578125 -1.507812 L 29.578125 0 L 28.066406 0 L 28.066406 -30.179688 L 29.578125 -30.179688 L 29.578125 -28.671875 L 21.851562 -28.671875 L 21.851562 -30.179688 L 23.359375 -30.179688 L 23.359375 -8.183594 L 8.660156 -29.320312 L 9.898438 -30.179688 L 9.898438 -28.671875 L 2.414062 -28.671875 L 2.414062 -30.179688 L 3.921875 -30.179688 L 3.921875 0 L 2.414062 0 L 2.414062 -1.507812 L 10.179688 -1.507812 L 10.179688 0 L 8.671875 0 L 8.671875 -22.023438 L 23.292969 -0.859375 L 22.050781 0 L 22.050781 -1.507812 Z M 29.578125 -1.507812 "/></g></g></g><g fill="#ffffff" fill-opacity="1"><g transform="translate(0.907995, 41.504406)"><g><path d="M 30.421875 -7.203125 C 29.609375 -5.617188 28.519531 -4.269531 27.15625 -3.15625 C 25.789062 -2.039062 24.28125 -1.203125 22.625 -0.640625 C 20.976562 -0.078125 19.3125 0.203125 17.625 0.203125 C 15.5 0.203125 13.476562 -0.179688 11.5625 -0.953125 C 9.644531 -1.734375 7.9375 -2.820312 6.4375 -4.21875 C 4.9375 -5.613281 3.753906 -7.238281 2.890625 -9.09375 C 2.035156 -10.945312 1.609375 -12.945312 1.609375 -15.09375 C 1.609375 -17.238281 2.035156 -19.234375 2.890625 -21.078125 C 3.753906 -22.929688 4.9375 -24.554688 6.4375 -25.953125 C 7.9375 -27.347656 9.644531 -28.429688 11.5625 -29.203125 C 13.476562 -29.984375 15.5 -30.375 17.625 -30.375 C 19.3125 -30.375 20.976562 -30.097656 22.625 -29.546875 C 24.28125 -29.003906 25.789062 -28.179688 27.15625 -27.078125 C 28.519531 -25.972656 29.609375 -24.578125 30.421875 -22.890625 L 24.984375 -19.515625 C 24.609375 -20.234375 24.082031 -20.9375 23.40625 -21.625 C 22.738281 -22.3125 21.9375 -22.867188 21 -23.296875 C 20.0625 -23.722656 18.976562 -23.9375 17.75 -23.9375 C 15.976562 -23.9375 14.46875 -23.550781 13.21875 -22.78125 C 11.96875 -22.019531 11.015625 -20.972656 10.359375 -19.640625 C 9.703125 -18.316406 9.375 -16.800781 9.375 -15.09375 C 9.375 -13.394531 9.703125 -11.875 10.359375 -10.53125 C 11.015625 -9.195312 11.96875 -8.144531 13.21875 -7.375 C 14.46875 -6.613281 15.976562 -6.234375 17.75 -6.234375 C 18.976562 -6.234375 20.0625 -6.453125 21 -6.890625 C 21.9375 -7.335938 22.738281 -7.898438 23.40625 -8.578125 C 24.082031 -9.265625 24.609375 -9.945312 24.984375 -10.625 Z M 30.421875 -7.203125 "/></g></g></g><g fill="#ffffff" fill-opacity="1"><g transform="translate(36.237207, 41.504406)"><g><path d="M 17.625 -30.375 C 19.90625 -30.375 22.007812 -30.023438 23.9375 -29.328125 C 25.875 -28.628906 27.566406 -27.613281 29.015625 -26.28125 C 30.460938 -24.957031 31.585938 -23.347656 32.390625 -21.453125 C 33.191406 -19.566406 33.59375 -17.445312 33.59375 -15.09375 C 33.59375 -12.726562 33.191406 -10.597656 32.390625 -8.703125 C 31.585938 -6.816406 30.460938 -5.207031 29.015625 -3.875 C 27.566406 -2.550781 25.875 -1.539062 23.9375 -0.84375 C 22.007812 -0.144531 19.90625 0.203125 17.625 0.203125 C 14.59375 0.203125 11.863281 -0.410156 9.4375 -1.640625 C 7.007812 -2.878906 5.097656 -4.644531 3.703125 -6.9375 C 2.304688 -9.226562 1.609375 -11.945312 1.609375 -15.09375 C 1.609375 -18.25 2.304688 -20.96875 3.703125 -23.25 C 5.097656 -25.53125 7.007812 -27.285156 9.4375 -28.515625 C 11.863281 -29.753906 14.59375 -30.375 17.625 -30.375 Z M 17.625 -23.9375 C 15.101562 -23.9375 13.097656 -23.140625 11.609375 -21.546875 C 10.117188 -19.953125 9.375 -17.800781 9.375 -15.09375 C 9.375 -12.351562 10.117188 -10.191406 11.609375 -8.609375 C 13.097656 -7.023438 15.101562 -6.234375 17.625 -6.234375 C 20.144531 -6.234375 22.148438 -7.023438 23.640625 -8.609375 C 25.128906 -10.191406 25.875 -12.351562 25.875 -15.09375 C 25.875 -17.800781 25.117188 -19.953125 23.609375 -21.546875 C 22.109375 -23.140625 20.113281 -23.9375 17.625 -23.9375 Z M 17.625 -23.9375 "/></g></g></g><g fill="#ffffff" fill-opacity="1"><g transform="translate(75.026845, 41.504406)"><g><path d="M 37.25 -30.171875 L 37.25 0 L 29.53125 0 L 29.53125 -14.28125 L 22.25 0 L 17.421875 0 L 10.171875 -14.28125 L 10.171875 0 L 2.40625 0 L 2.40625 -30.171875 L 10.09375 -30.171875 L 19.828125 -10.984375 L 29.578125 -30.171875 Z M 37.25 -30.171875 "/></g></g></g><g fill="#ffffff" fill-opacity="1"><g transform="translate(118.001192, 41.504406)"><g><path d="M 10.171875 0 L 2.40625 0 L 2.40625 -30.171875 L 10.171875 -30.171875 Z M 10.171875 0 "/></g></g></g><g fill="#ffffff" fill-opacity="1"><g transform="translate(133.493275, 41.504406)"><g><path d="M 29.578125 0 L 22.046875 0 L 10.171875 -17.1875 L 10.171875 0 L 2.40625 0 L 2.40625 -30.171875 L 9.890625 -30.171875 L 21.84375 -13 L 21.84375 -30.171875 L 29.578125 -30.171875 Z M 29.578125 0 "/></g></g></g><g fill="#ffffff" fill-opacity="1"><g transform="translate(169.063907, 41.504406)"><g><path d="M 34 -17.625 L 34 0 L 26.265625 0 L 26.265625 -4.34375 C 25.835938 -3.539062 25.179688 -2.769531 24.296875 -2.03125 C 23.410156 -1.289062 22.335938 -0.6875 21.078125 -0.21875 C 19.816406 0.25 18.394531 0.484375 16.8125 0.484375 C 14.800781 0.484375 12.90625 0.0859375 11.125 -0.703125 C 9.34375 -1.492188 7.765625 -2.597656 6.390625 -4.015625 C 5.023438 -5.441406 3.953125 -7.09375 3.171875 -8.96875 C 2.398438 -10.84375 2.015625 -12.882812 2.015625 -15.09375 C 2.015625 -17.257812 2.425781 -19.28125 3.25 -21.15625 C 4.082031 -23.039062 5.222656 -24.6875 6.671875 -26.09375 C 8.117188 -27.5 9.796875 -28.597656 11.703125 -29.390625 C 13.609375 -30.179688 15.648438 -30.578125 17.828125 -30.578125 C 20.109375 -30.578125 22.375 -30.085938 24.625 -29.109375 C 26.875 -28.128906 28.84375 -26.703125 30.53125 -24.828125 L 25.46875 -19.71875 C 25.09375 -20.382812 24.515625 -21.054688 23.734375 -21.734375 C 22.960938 -22.421875 22.066406 -22.992188 21.046875 -23.453125 C 20.023438 -23.910156 18.953125 -24.140625 17.828125 -24.140625 C 16.378906 -24.140625 15.132812 -23.863281 14.09375 -23.3125 C 13.0625 -22.757812 12.222656 -22.023438 11.578125 -21.109375 C 10.941406 -20.203125 10.472656 -19.222656 10.171875 -18.171875 C 9.878906 -17.128906 9.734375 -16.101562 9.734375 -15.09375 C 9.734375 -13.5625 10 -12.101562 10.53125 -10.71875 C 11.070312 -9.34375 11.9375 -8.210938 13.125 -7.328125 C 14.320312 -6.441406 15.890625 -6 17.828125 -6 C 19.242188 -6 20.546875 -6.222656 21.734375 -6.671875 C 22.929688 -7.128906 23.890625 -7.796875 24.609375 -8.671875 C 25.335938 -9.546875 25.703125 -10.613281 25.703125 -11.875 L 19.265625 -11.875 L 19.265625 -17.625 Z M 34 -17.625 "/></g></g></g><g fill="#ffffff" fill-opacity="1"><g transform="translate(208.376636, 41.504406)"><g/></g></g><g fill="#ffffff" fill-opacity="1"><g transform="translate(225.478211, 41.504406)"><g><path d="M 14.890625 -18.796875 C 17.191406 -17.984375 19.15625 -17.117188 20.78125 -16.203125 C 22.40625 -15.296875 23.644531 -14.234375 24.5 -13.015625 C 25.363281 -11.796875 25.796875 -10.300781 25.796875 -8.53125 C 25.796875 -6.539062 25.296875 -4.875 24.296875 -3.53125 C 23.304688 -2.195312 22 -1.191406 20.375 -0.515625 C 18.75 0.148438 16.957031 0.484375 15 0.484375 C 12.238281 0.453125 9.6875 -0.0195312 7.34375 -0.9375 C 5 -1.863281 2.953125 -3.253906 1.203125 -5.109375 L 6.28125 -10.09375 C 6.84375 -9.664062 7.519531 -9.128906 8.3125 -8.484375 C 9.101562 -7.847656 10.003906 -7.273438 11.015625 -6.765625 C 12.035156 -6.253906 13.140625 -6 14.328125 -6 C 15.316406 -5.96875 16.1875 -6.179688 16.9375 -6.640625 C 17.6875 -7.097656 18.0625 -7.796875 18.0625 -8.734375 C 18.0625 -9.640625 17.734375 -10.34375 17.078125 -10.84375 C 16.421875 -11.34375 15.566406 -11.785156 14.515625 -12.171875 C 13.472656 -12.554688 12.363281 -13.019531 11.1875 -13.5625 C 10.457031 -13.882812 9.613281 -14.289062 8.65625 -14.78125 C 7.707031 -15.28125 6.785156 -15.867188 5.890625 -16.546875 C 4.992188 -17.234375 4.25 -18.039062 3.65625 -18.96875 C 3.070312 -19.894531 2.78125 -20.960938 2.78125 -22.171875 C 2.78125 -23.773438 3.109375 -25.117188 3.765625 -26.203125 C 4.421875 -27.296875 5.285156 -28.15625 6.359375 -28.78125 C 7.429688 -29.414062 8.582031 -29.875 9.8125 -30.15625 C 11.050781 -30.4375 12.242188 -30.578125 13.390625 -30.578125 C 15.160156 -30.578125 16.84375 -30.367188 18.4375 -29.953125 C 20.039062 -29.535156 21.5 -28.972656 22.8125 -28.265625 C 24.125 -27.554688 25.210938 -26.769531 26.078125 -25.90625 L 21.609375 -21.046875 C 21.253906 -21.304688 20.664062 -21.6875 19.84375 -22.1875 C 19.03125 -22.6875 18.082031 -23.132812 17 -23.53125 C 15.914062 -23.9375 14.804688 -24.140625 13.671875 -24.140625 C 13.703125 -24.140625 13.554688 -24.144531 13.234375 -24.15625 C 12.910156 -24.175781 12.535156 -24.144531 12.109375 -24.0625 C 11.679688 -23.976562 11.304688 -23.785156 10.984375 -23.484375 C 10.660156 -23.191406 10.5 -22.726562 10.5 -22.09375 C 10.5 -21.90625 10.546875 -21.65625 10.640625 -21.34375 C 10.734375 -21.03125 11.082031 -20.664062 11.6875 -20.25 C 12.289062 -19.84375 13.359375 -19.359375 14.890625 -18.796875 Z M 14.890625 -18.796875 "/></g></g></g><g fill="#ffffff" fill-opacity="1"><g transform="translate(255.898433, 41.504406)"><g><path d="M 17.625 -30.375 C 19.90625 -30.375 22.007812 -30.023438 23.9375 -29.328125 C 25.875 -28.628906 27.566406 -27.613281 29.015625 -26.28125 C 30.460938 -24.957031 31.585938 -23.347656 32.390625 -21.453125 C 33.191406 -19.566406 33.59375 -17.445312 33.59375 -15.09375 C 33.59375 -12.726562 33.191406 -10.597656 32.390625 -8.703125 C 31.585938 -6.816406 30.460938 -5.207031 29.015625 -3.875 C 27.566406 -2.550781 25.875 -1.539062 23.9375 -0.84375 C 22.007812 -0.144531 19.90625 0.203125 17.625 0.203125 C 14.59375 0.203125 11.863281 -0.410156 9.4375 -1.640625 C 7.007812 -2.878906 5.097656 -4.644531 3.703125 -6.9375 C 2.304688 -9.226562 1.609375 -11.945312 1.609375 -15.09375 C 1.609375 -18.25 2.304688 -20.96875 3.703125 -23.25 C 5.097656 -25.53125 7.007812 -27.285156 9.4375 -28.515625 C 11.863281 -29.753906 14.59375 -30.375 17.625 -30.375 Z M 17.625 -23.9375 C 15.101562 -23.9375 13.097656 -23.140625 11.609375 -21.546875 C 10.117188 -19.953125 9.375 -17.800781 9.375 -15.09375 C 9.375 -12.351562 10.117188 -10.191406 11.609375 -8.609375 C 13.097656 -7.023438 15.101562 -6.234375 17.625 -6.234375 C 20.144531 -6.234375 22.148438 -7.023438 23.640625 -8.609375 C 25.128906 -10.191406 25.875 -12.351562 25.875 -15.09375 C 25.875 -17.800781 25.117188 -19.953125 23.609375 -21.546875 C 22.109375 -23.140625 20.113281 -23.9375 17.625 -23.9375 Z M 17.625 -23.9375 "/></g></g></g><g fill="#ffffff" fill-opacity="1"><g transform="translate(294.688071, 41.504406)"><g><path d="M 17.625 -30.375 C 19.90625 -30.375 22.007812 -30.023438 23.9375 -29.328125 C 25.875 -28.628906 27.566406 -27.613281 29.015625 -26.28125 C 30.460938 -24.957031 31.585938 -23.347656 32.390625 -21.453125 C 33.191406 -19.566406 33.59375 -17.445312 33.59375 -15.09375 C 33.59375 -12.726562 33.191406 -10.597656 32.390625 -8.703125 C 31.585938 -6.816406 30.460938 -5.207031 29.015625 -3.875 C 27.566406 -2.550781 25.875 -1.539062 23.9375 -0.84375 C 22.007812 -0.144531 19.90625 0.203125 17.625 0.203125 C 14.59375 0.203125 11.863281 -0.410156 9.4375 -1.640625 C 7.007812 -2.878906 5.097656 -4.644531 3.703125 -6.9375 C 2.304688 -9.226562 1.609375 -11.945312 1.609375 -15.09375 C 1.609375 -18.25 2.304688 -20.96875 3.703125 -23.25 C 5.097656 -25.53125 7.007812 -27.285156 9.4375 -28.515625 C 11.863281 -29.753906 14.59375 -30.375 17.625 -30.375 Z M 17.625 -23.9375 C 15.101562 -23.9375 13.097656 -23.140625 11.609375 -21.546875 C 10.117188 -19.953125 9.375 -17.800781 9.375 -15.09375 C 9.375 -12.351562 10.117188 -10.191406 11.609375 -8.609375 C 13.097656 -7.023438 15.101562 -6.234375 17.625 -6.234375 C 20.144531 -6.234375 22.148438 -7.023438 23.640625 -8.609375 C 25.128906 -10.191406 25.875 -12.351562 25.875 -15.09375 C 25.875 -17.800781 25.117188 -19.953125 23.609375 -21.546875 C 22.109375 -23.140625 20.113281 -23.9375 17.625 -23.9375 Z M 17.625 -23.9375 "/></g></g></g><g fill="#ffffff" fill-opacity="1"><g transform="translate(333.477709, 41.504406)"><g><path d="M 29.578125 0 L 22.046875 0 L 10.171875 -17.1875 L 10.171875 0 L 2.40625 0 L 2.40625 -30.171875 L 9.890625 -30.171875 L 21.84375 -13 L 21.84375 -30.171875 L 29.578125 -30.171875 Z M 29.578125 0 "/></g></g></g></g></g></svg>