<svg xmlns="http://www.w3.org/2000/svg" xmlns:xlink="http://www.w3.org/1999/xlink" width="3000" zoomAndPan="magnify" viewBox="0 0 2250 502.499985" height="670" preserveAspectRatio="xMidYMid meet" version="1.2"><defs><clipPath id="ee0efb4a2d"><path d="M 1138.835938 257.042969 L 2248.878906 257.042969 L 2248.878906 484.289062 L 1138.835938 484.289062 Z M 1138.835938 257.042969 "/></clipPath><clipPath id="13df372199"><path d="M 1168.671875 316.808594 L 1287.804688 316.808594 L 1287.804688 435.9375 L 1168.671875 435.9375 Z M 1168.671875 316.808594 "/></clipPath><clipPath id="b1259a05a8"><path d="M 1.117188 257.042969 L 1111.164062 257.042969 L 1111.164062 484.289062 L 1.117188 484.289062 Z M 1.117188 257.042969 "/></clipPath><clipPath id="872457f946"><path d="M 30.953125 316.808594 L 150.085938 316.808594 L 150.085938 435.9375 L 30.953125 435.9375 Z M 30.953125 316.808594 "/></clipPath><clipPath id="f8513c653f"><path d="M 1.117188 0 L 1111.164062 0 L 1111.164062 227.246094 L 1.117188 227.246094 Z M 1.117188 0 "/></clipPath><clipPath id="132e23e1fe"><path d="M 30.953125 59.765625 L 150.085938 59.765625 L 150.085938 178.898438 L 30.953125 178.898438 Z M 30.953125 59.765625 "/></clipPath><clipPath id="3ec473e8a3"><path d="M 1138.835938 0 L 2248.878906 0 L 2248.878906 227.246094 L 1138.835938 227.246094 Z M 1138.835938 0 "/></clipPath><clipPath id="973a10f8cf"><path d="M 1168.671875 59.765625 L 1287.804688 59.765625 L 1287.804688 178.898438 L 1168.671875 178.898438 Z M 1168.671875 59.765625 "/></clipPath></defs><g id="39cd3ee482"><g clip-rule="nonzero" clip-path="url(#ee0efb4a2d)"><path style=" stroke:none;fill-rule:nonzero;fill:#66aea7;fill-opacity:1;" d="M 1138.835938 257.042969 L 2249.320312 257.042969 L 2249.320312 484.289062 L 1138.835938 484.289062 Z M 1138.835938 257.042969 "/></g><g clip-rule="nonzero" clip-path="url(#13df372199)"><path style=" stroke:none;fill-rule:nonzero;fill:#ffffff;fill-opacity:1;" d="M 1287.78125 376.363281 C 1287.78125 378.3125 1287.683594 380.257812 1287.492188 382.199219 C 1287.300781 384.140625 1287.015625 386.066406 1286.636719 387.980469 C 1286.253906 389.894531 1285.78125 391.78125 1285.214844 393.648438 C 1284.648438 395.515625 1283.992188 397.351562 1283.246094 399.152344 C 1282.5 400.953125 1281.667969 402.714844 1280.75 404.433594 C 1279.828125 406.15625 1278.828125 407.828125 1277.742188 409.449219 C 1276.660156 411.070312 1275.5 412.636719 1274.261719 414.144531 C 1273.023438 415.648438 1271.714844 417.09375 1270.335938 418.472656 C 1268.957031 419.851562 1267.515625 421.160156 1266.007812 422.398438 C 1264.5 423.636719 1262.933594 424.796875 1261.3125 425.878906 C 1259.691406 426.964844 1258.019531 427.964844 1256.300781 428.882812 C 1254.578125 429.804688 1252.820312 430.636719 1251.015625 431.382812 C 1249.214844 432.128906 1247.378906 432.785156 1245.515625 433.351562 C 1243.648438 433.917969 1241.757812 434.390625 1239.84375 434.773438 C 1237.933594 435.152344 1236.003906 435.4375 1234.0625 435.628906 C 1232.121094 435.820312 1230.175781 435.914062 1228.226562 435.914062 C 1226.277344 435.914062 1224.332031 435.820312 1222.390625 435.628906 C 1220.449219 435.4375 1218.519531 435.152344 1216.609375 434.773438 C 1214.695312 434.390625 1212.804688 433.917969 1210.9375 433.351562 C 1209.074219 432.785156 1207.238281 432.128906 1205.4375 431.382812 C 1203.632812 430.636719 1201.875 429.804688 1200.152344 428.882812 C 1198.433594 427.964844 1196.761719 426.964844 1195.140625 425.878906 C 1193.519531 424.796875 1191.953125 423.636719 1190.445312 422.398438 C 1188.9375 421.160156 1187.496094 419.851562 1186.117188 418.472656 C 1184.734375 417.09375 1183.429688 415.648438 1182.191406 414.144531 C 1180.953125 412.636719 1179.792969 411.070312 1178.710938 409.449219 C 1177.625 407.828125 1176.625 406.15625 1175.703125 404.433594 C 1174.785156 402.714844 1173.953125 400.953125 1173.207031 399.152344 C 1172.460938 397.351562 1171.804688 395.515625 1171.238281 393.648438 C 1170.671875 391.78125 1170.199219 389.894531 1169.816406 387.980469 C 1169.4375 386.066406 1169.152344 384.140625 1168.960938 382.199219 C 1168.769531 380.257812 1168.671875 378.3125 1168.671875 376.363281 C 1168.671875 374.410156 1168.769531 372.464844 1168.960938 370.523438 C 1169.152344 368.582031 1169.4375 366.65625 1169.816406 364.742188 C 1170.199219 362.832031 1170.671875 360.941406 1171.238281 359.074219 C 1171.804688 357.207031 1172.460938 355.375 1173.207031 353.570312 C 1173.953125 351.769531 1174.785156 350.007812 1175.703125 348.289062 C 1176.625 346.566406 1177.625 344.898438 1178.710938 343.277344 C 1179.792969 341.652344 1180.953125 340.089844 1182.191406 338.582031 C 1183.429688 337.074219 1184.734375 335.628906 1186.117188 334.25 C 1187.496094 332.871094 1188.9375 331.5625 1190.445312 330.324219 C 1191.953125 329.089844 1193.519531 327.929688 1195.140625 326.84375 C 1196.761719 325.761719 1198.433594 324.757812 1200.152344 323.839844 C 1201.875 322.921875 1203.632812 322.085938 1205.4375 321.339844 C 1207.238281 320.59375 1209.074219 319.9375 1210.9375 319.371094 C 1212.804688 318.804688 1214.695312 318.332031 1216.609375 317.953125 C 1218.519531 317.570312 1220.449219 317.285156 1222.390625 317.09375 C 1224.332031 316.902344 1226.277344 316.808594 1228.226562 316.808594 C 1230.175781 316.808594 1232.121094 316.902344 1234.0625 317.09375 C 1236.003906 317.285156 1237.933594 317.570312 1239.84375 317.953125 C 1241.757812 318.332031 1243.648438 318.804688 1245.515625 319.371094 C 1247.378906 319.9375 1249.214844 320.59375 1251.015625 321.339844 C 1252.820312 322.085938 1254.578125 322.921875 1256.300781 323.839844 C 1258.019531 324.757812 1259.691406 325.761719 1261.3125 326.84375 C 1262.933594 327.929688 1264.5 329.089844 1266.007812 330.324219 C 1267.515625 331.5625 1268.957031 332.871094 1270.335938 334.25 C 1271.714844 335.628906 1273.023438 337.074219 1274.261719 338.582031 C 1275.5 340.089844 1276.660156 341.652344 1277.742188 343.277344 C 1278.828125 344.898438 1279.828125 346.566406 1280.75 348.289062 C 1281.667969 350.007812 1282.5 351.769531 1283.246094 353.570312 C 1283.992188 355.375 1284.648438 357.207031 1285.214844 359.074219 C 1285.78125 360.941406 1286.253906 362.832031 1286.636719 364.742188 C 1287.015625 366.65625 1287.300781 368.582031 1287.492188 370.523438 C 1287.683594 372.464844 1287.78125 374.410156 1287.78125 376.363281 Z M 1287.78125 376.363281 "/></g><path style=" stroke:none;fill-rule:nonzero;fill:#66aea7;fill-opacity:1;" d="M 1260.925781 365.113281 C 1264.113281 361.921875 1264.109375 356.753906 1260.921875 353.566406 C 1257.734375 350.378906 1252.5625 350.378906 1249.375 353.570312 L 1221.121094 381.835938 L 1207.019531 367.730469 C 1203.832031 364.542969 1198.660156 364.542969 1195.472656 367.730469 C 1192.285156 370.921875 1192.285156 376.089844 1195.472656 379.277344 L 1215.351562 399.15625 C 1216.882812 400.6875 1218.960938 401.546875 1221.125 401.546875 C 1223.289062 401.546875 1225.367188 400.6875 1226.898438 399.152344 Z M 1260.925781 365.113281 "/><g clip-rule="nonzero" clip-path="url(#b1259a05a8)"><path style=" stroke:none;fill-rule:nonzero;fill:#66aea7;fill-opacity:1;" d="M 1.117188 257.042969 L 1111.605469 257.042969 L 1111.605469 484.289062 L 1.117188 484.289062 Z M 1.117188 257.042969 "/></g><g clip-rule="nonzero" clip-path="url(#872457f946)"><path style=" stroke:none;fill-rule:nonzero;fill:#ffffff;fill-opacity:1;" d="M 150.0625 376.363281 C 150.0625 378.3125 149.96875 380.257812 149.777344 382.199219 C 149.585938 384.140625 149.300781 386.066406 148.917969 387.980469 C 148.539062 389.894531 148.066406 391.78125 147.5 393.648438 C 146.933594 395.515625 146.277344 397.351562 145.53125 399.152344 C 144.78125 400.953125 143.949219 402.714844 143.03125 404.433594 C 142.113281 406.15625 141.109375 407.828125 140.027344 409.449219 C 138.941406 411.070312 137.78125 412.636719 136.542969 414.144531 C 135.308594 415.648438 134 417.09375 132.621094 418.472656 C 131.242188 419.851562 129.796875 421.160156 128.289062 422.398438 C 126.78125 423.636719 125.21875 424.796875 123.59375 425.878906 C 121.972656 426.964844 120.300781 427.964844 118.582031 428.882812 C 116.863281 429.804688 115.101562 430.636719 113.300781 431.382812 C 111.496094 432.128906 109.664062 432.785156 107.796875 433.351562 C 105.929688 433.917969 104.039062 434.390625 102.128906 434.773438 C 100.214844 435.152344 98.289062 435.4375 96.347656 435.628906 C 94.40625 435.820312 92.460938 435.914062 90.507812 435.914062 C 88.558594 435.914062 86.613281 435.820312 84.671875 435.628906 C 82.730469 435.4375 80.804688 435.152344 78.890625 434.773438 C 76.976562 434.390625 75.085938 433.917969 73.222656 433.351562 C 71.355469 432.785156 69.519531 432.128906 67.71875 431.382812 C 65.917969 430.636719 64.15625 429.804688 62.433594 428.882812 C 60.714844 427.964844 59.042969 426.964844 57.421875 425.878906 C 55.800781 424.796875 54.234375 423.636719 52.726562 422.398438 C 51.21875 421.160156 49.777344 419.851562 48.398438 418.472656 C 47.019531 417.09375 45.710938 415.648438 44.472656 414.144531 C 43.234375 412.636719 42.074219 411.070312 40.992188 409.449219 C 39.90625 407.828125 38.90625 406.15625 37.988281 404.433594 C 37.066406 402.714844 36.234375 400.953125 35.488281 399.152344 C 34.742188 397.351562 34.085938 395.515625 33.519531 393.648438 C 32.953125 391.78125 32.480469 389.894531 32.097656 387.980469 C 31.71875 386.066406 31.433594 384.140625 31.242188 382.199219 C 31.050781 380.257812 30.953125 378.3125 30.953125 376.363281 C 30.953125 374.410156 31.050781 372.464844 31.242188 370.523438 C 31.433594 368.582031 31.71875 366.65625 32.097656 364.742188 C 32.480469 362.832031 32.953125 360.941406 33.519531 359.074219 C 34.085938 357.207031 34.742188 355.375 35.488281 353.570312 C 36.234375 351.769531 37.066406 350.007812 37.988281 348.289062 C 38.90625 346.566406 39.90625 344.898438 40.992188 343.277344 C 42.074219 341.652344 43.234375 340.089844 44.472656 338.582031 C 45.710938 337.074219 47.019531 335.628906 48.398438 334.25 C 49.777344 332.871094 51.21875 331.5625 52.726562 330.324219 C 54.234375 329.089844 55.800781 327.929688 57.421875 326.84375 C 59.042969 325.761719 60.714844 324.757812 62.433594 323.839844 C 64.15625 322.921875 65.917969 322.085938 67.71875 321.339844 C 69.519531 320.59375 71.355469 319.9375 73.222656 319.371094 C 75.085938 318.804688 76.976562 318.332031 78.890625 317.953125 C 80.804688 317.570312 82.730469 317.285156 84.671875 317.09375 C 86.613281 316.902344 88.558594 316.808594 90.507812 316.808594 C 92.460938 316.808594 94.40625 316.902344 96.347656 317.09375 C 98.289062 317.285156 100.214844 317.570312 102.128906 317.953125 C 104.039062 318.332031 105.929688 318.804688 107.796875 319.371094 C 109.664062 319.9375 111.496094 320.59375 113.300781 321.339844 C 115.101562 322.085938 116.863281 322.921875 118.582031 323.839844 C 120.300781 324.757812 121.972656 325.761719 123.59375 326.84375 C 125.21875 327.929688 126.78125 329.089844 128.289062 330.324219 C 129.796875 331.5625 131.242188 332.871094 132.621094 334.25 C 134 335.628906 135.308594 337.074219 136.542969 338.582031 C 137.78125 340.089844 138.941406 341.652344 140.027344 343.277344 C 141.109375 344.898438 142.113281 346.566406 143.03125 348.289062 C 143.949219 350.007812 144.78125 351.769531 145.53125 353.570312 C 146.277344 355.375 146.933594 357.207031 147.5 359.074219 C 148.066406 360.941406 148.539062 362.832031 148.917969 364.742188 C 149.300781 366.65625 149.585938 368.582031 149.777344 370.523438 C 149.96875 372.464844 150.0625 374.410156 150.0625 376.363281 Z M 150.0625 376.363281 "/></g><path style=" stroke:none;fill-rule:nonzero;fill:#66aea7;fill-opacity:1;" d="M 123.207031 365.113281 C 126.394531 361.921875 126.394531 356.753906 123.203125 353.566406 C 120.015625 350.378906 114.847656 350.378906 111.660156 353.570312 L 83.40625 381.835938 L 69.300781 367.730469 C 66.113281 364.542969 60.941406 364.542969 57.753906 367.730469 C 54.566406 370.921875 54.566406 376.089844 57.753906 379.277344 L 77.632812 399.15625 C 79.164062 400.6875 81.242188 401.546875 83.40625 401.546875 C 85.574219 401.546875 87.648438 400.6875 89.179688 399.152344 Z M 123.207031 365.113281 "/><g clip-rule="nonzero" clip-path="url(#f8513c653f)"><path style=" stroke:none;fill-rule:nonzero;fill:#66aea7;fill-opacity:1;" d="M 1.117188 0 L 1111.605469 0 L 1111.605469 227.246094 L 1.117188 227.246094 Z M 1.117188 0 "/></g><g clip-rule="nonzero" clip-path="url(#132e23e1fe)"><path style=" stroke:none;fill-rule:nonzero;fill:#ffffff;fill-opacity:1;" d="M 150.0625 119.320312 C 150.0625 121.269531 149.96875 123.214844 149.777344 125.15625 C 149.585938 127.097656 149.300781 129.023438 148.917969 130.9375 C 148.539062 132.851562 148.066406 134.742188 147.5 136.605469 C 146.933594 138.472656 146.277344 140.308594 145.53125 142.109375 C 144.78125 143.910156 143.949219 145.671875 143.03125 147.394531 C 142.113281 149.113281 141.109375 150.785156 140.027344 152.40625 C 138.941406 154.027344 137.78125 155.59375 136.542969 157.101562 C 135.308594 158.609375 134 160.050781 132.621094 161.429688 C 131.242188 162.808594 129.796875 164.117188 128.289062 165.355469 C 126.78125 166.59375 125.21875 167.753906 123.59375 168.835938 C 121.972656 169.921875 120.300781 170.921875 118.582031 171.839844 C 116.863281 172.761719 115.101562 173.59375 113.300781 174.339844 C 111.496094 175.085938 109.664062 175.742188 107.796875 176.308594 C 105.929688 176.875 104.039062 177.347656 102.128906 177.730469 C 100.214844 178.109375 98.289062 178.394531 96.347656 178.585938 C 94.40625 178.777344 92.460938 178.875 90.507812 178.875 C 88.558594 178.875 86.613281 178.777344 84.671875 178.585938 C 82.730469 178.394531 80.804688 178.109375 78.890625 177.730469 C 76.976562 177.347656 75.085938 176.875 73.222656 176.308594 C 71.355469 175.742188 69.519531 175.085938 67.71875 174.339844 C 65.917969 173.59375 64.15625 172.761719 62.433594 171.839844 C 60.714844 170.921875 59.042969 169.921875 57.421875 168.835938 C 55.800781 167.753906 54.234375 166.59375 52.726562 165.355469 C 51.21875 164.117188 49.777344 162.808594 48.398438 161.429688 C 47.019531 160.050781 45.710938 158.609375 44.472656 157.101562 C 43.234375 155.59375 42.074219 154.027344 40.992188 152.40625 C 39.90625 150.785156 38.90625 149.113281 37.988281 147.394531 C 37.066406 145.671875 36.234375 143.910156 35.488281 142.109375 C 34.742188 140.308594 34.085938 138.472656 33.519531 136.605469 C 32.953125 134.742188 32.480469 132.851562 32.097656 130.9375 C 31.71875 129.023438 31.433594 127.097656 31.242188 125.15625 C 31.050781 123.214844 30.953125 121.269531 30.953125 119.320312 C 30.953125 117.367188 31.050781 115.421875 31.242188 113.480469 C 31.433594 111.539062 31.71875 109.613281 32.097656 107.699219 C 32.480469 105.789062 32.953125 103.898438 33.519531 102.03125 C 34.085938 100.164062 34.742188 98.332031 35.488281 96.527344 C 36.234375 94.726562 37.066406 92.964844 37.988281 91.246094 C 38.90625 89.527344 39.90625 87.855469 40.992188 86.234375 C 42.074219 84.609375 43.234375 83.046875 44.472656 81.539062 C 45.710938 80.03125 47.019531 78.585938 48.398438 77.207031 C 49.777344 75.828125 51.21875 74.519531 52.726562 73.285156 C 54.234375 72.046875 55.800781 70.886719 57.421875 69.800781 C 59.042969 68.71875 60.714844 67.71875 62.433594 66.796875 C 64.15625 65.878906 65.917969 65.046875 67.71875 64.296875 C 69.519531 63.550781 71.355469 62.894531 73.222656 62.328125 C 75.085938 61.761719 76.976562 61.289062 78.890625 60.910156 C 80.804688 60.527344 82.730469 60.242188 84.671875 60.050781 C 86.613281 59.859375 88.558594 59.765625 90.507812 59.765625 C 92.460938 59.765625 94.40625 59.859375 96.347656 60.050781 C 98.289062 60.242188 100.214844 60.527344 102.128906 60.910156 C 104.039062 61.289062 105.929688 61.761719 107.796875 62.328125 C 109.664062 62.894531 111.496094 63.550781 113.300781 64.296875 C 115.101562 65.046875 116.863281 65.878906 118.582031 66.796875 C 120.300781 67.71875 121.972656 68.71875 123.59375 69.800781 C 125.21875 70.886719 126.78125 72.046875 128.289062 73.285156 C 129.796875 74.519531 131.242188 75.828125 132.621094 77.207031 C 134 78.585938 135.308594 80.03125 136.542969 81.539062 C 137.78125 83.046875 138.941406 84.609375 140.027344 86.234375 C 141.109375 87.855469 142.113281 89.527344 143.03125 91.246094 C 143.949219 92.964844 144.78125 94.726562 145.53125 96.527344 C 146.277344 98.332031 146.933594 100.164062 147.5 102.03125 C 148.066406 103.898438 148.539062 105.789062 148.917969 107.699219 C 149.300781 109.613281 149.585938 111.539062 149.777344 113.480469 C 149.96875 115.421875 150.0625 117.367188 150.0625 119.320312 Z M 150.0625 119.320312 "/></g><path style=" stroke:none;fill-rule:nonzero;fill:#66aea7;fill-opacity:1;" d="M 123.207031 108.070312 C 126.394531 104.878906 126.394531 99.710938 123.203125 96.523438 C 120.015625 93.335938 114.847656 93.335938 111.660156 96.527344 L 83.40625 124.792969 L 69.300781 110.691406 C 66.113281 107.5 60.941406 107.5 57.753906 110.691406 C 54.566406 113.878906 54.566406 119.046875 57.753906 122.234375 L 77.632812 142.113281 C 79.164062 143.644531 81.242188 144.503906 83.40625 144.503906 C 85.574219 144.503906 87.648438 143.644531 89.179688 142.113281 Z M 123.207031 108.070312 "/><g clip-rule="nonzero" clip-path="url(#3ec473e8a3)"><path style=" stroke:none;fill-rule:nonzero;fill:#66aea7;fill-opacity:1;" d="M 1138.835938 0 L 2249.320312 0 L 2249.320312 227.246094 L 1138.835938 227.246094 Z M 1138.835938 0 "/></g><g clip-rule="nonzero" clip-path="url(#973a10f8cf)"><path style=" stroke:none;fill-rule:nonzero;fill:#ffffff;fill-opacity:1;" d="M 1287.78125 119.320312 C 1287.78125 121.269531 1287.683594 123.214844 1287.492188 125.15625 C 1287.300781 127.097656 1287.015625 129.023438 1286.636719 130.9375 C 1286.253906 132.851562 1285.78125 134.742188 1285.214844 136.605469 C 1284.648438 138.472656 1283.992188 140.308594 1283.246094 142.109375 C 1282.5 143.910156 1281.667969 145.671875 1280.75 147.394531 C 1279.828125 149.113281 1278.828125 150.785156 1277.742188 152.40625 C 1276.660156 154.027344 1275.5 155.59375 1274.261719 157.101562 C 1273.023438 158.609375 1271.714844 160.050781 1270.335938 161.429688 C 1268.957031 162.808594 1267.515625 164.117188 1266.007812 165.355469 C 1264.5 166.59375 1262.933594 167.753906 1261.3125 168.835938 C 1259.691406 169.921875 1258.019531 170.921875 1256.300781 171.839844 C 1254.578125 172.761719 1252.820312 173.59375 1251.015625 174.339844 C 1249.214844 175.085938 1247.378906 175.742188 1245.515625 176.308594 C 1243.648438 176.875 1241.757812 177.347656 1239.84375 177.730469 C 1237.933594 178.109375 1236.003906 178.394531 1234.0625 178.585938 C 1232.121094 178.777344 1230.175781 178.875 1228.226562 178.875 C 1226.277344 178.875 1224.332031 178.777344 1222.390625 178.585938 C 1220.449219 178.394531 1218.519531 178.109375 1216.609375 177.730469 C 1214.695312 177.347656 1212.804688 176.875 1210.9375 176.308594 C 1209.074219 175.742188 1207.238281 175.085938 1205.4375 174.339844 C 1203.632812 173.59375 1201.875 172.761719 1200.152344 171.839844 C 1198.433594 170.921875 1196.761719 169.921875 1195.140625 168.835938 C 1193.519531 167.753906 1191.953125 166.59375 1190.445312 165.355469 C 1188.9375 164.117188 1187.496094 162.808594 1186.117188 161.429688 C 1184.734375 160.050781 1183.429688 158.609375 1182.191406 157.101562 C 1180.953125 155.59375 1179.792969 154.027344 1178.710938 152.40625 C 1177.625 150.785156 1176.625 149.113281 1175.703125 147.394531 C 1174.785156 145.671875 1173.953125 143.910156 1173.207031 142.109375 C 1172.460938 140.308594 1171.804688 138.472656 1171.238281 136.605469 C 1170.671875 134.742188 1170.199219 132.851562 1169.816406 130.9375 C 1169.4375 129.023438 1169.152344 127.097656 1168.960938 125.15625 C 1168.769531 123.214844 1168.671875 121.269531 1168.671875 119.320312 C 1168.671875 117.367188 1168.769531 115.421875 1168.960938 113.480469 C 1169.152344 111.539062 1169.4375 109.613281 1169.816406 107.699219 C 1170.199219 105.789062 1170.671875 103.898438 1171.238281 102.03125 C 1171.804688 100.164062 1172.460938 98.332031 1173.207031 96.527344 C 1173.953125 94.726562 1174.785156 92.964844 1175.703125 91.246094 C 1176.625 89.527344 1177.625 87.855469 1178.710938 86.234375 C 1179.792969 84.609375 1180.953125 83.046875 1182.191406 81.539062 C 1183.429688 80.03125 1184.734375 78.585938 1186.117188 77.207031 C 1187.496094 75.828125 1188.9375 74.519531 1190.445312 73.285156 C 1191.953125 72.046875 1193.519531 70.886719 1195.140625 69.800781 C 1196.761719 68.71875 1198.433594 67.71875 1200.152344 66.796875 C 1201.875 65.878906 1203.632812 65.046875 1205.4375 64.296875 C 1207.238281 63.550781 1209.074219 62.894531 1210.9375 62.328125 C 1212.804688 61.761719 1214.695312 61.289062 1216.609375 60.910156 C 1218.519531 60.527344 1220.449219 60.242188 1222.390625 60.050781 C 1224.332031 59.859375 1226.277344 59.765625 1228.226562 59.765625 C 1230.175781 59.765625 1232.121094 59.859375 1234.0625 60.050781 C 1236.003906 60.242188 1237.933594 60.527344 1239.84375 60.910156 C 1241.757812 61.289062 1243.648438 61.761719 1245.515625 62.328125 C 1247.378906 62.894531 1249.214844 63.550781 1251.015625 64.296875 C 1252.820312 65.046875 1254.578125 65.878906 1256.300781 66.796875 C 1258.019531 67.71875 1259.691406 68.71875 1261.3125 69.800781 C 1262.933594 70.886719 1264.5 72.046875 1266.007812 73.285156 C 1267.515625 74.519531 1268.957031 75.828125 1270.335938 77.207031 C 1271.714844 78.585938 1273.023438 80.03125 1274.261719 81.539062 C 1275.5 83.046875 1276.660156 84.609375 1277.742188 86.234375 C 1278.828125 87.855469 1279.828125 89.527344 1280.75 91.246094 C 1281.667969 92.964844 1282.5 94.726562 1283.246094 96.527344 C 1283.992188 98.332031 1284.648438 100.164062 1285.214844 102.03125 C 1285.78125 103.898438 1286.253906 105.789062 1286.636719 107.699219 C 1287.015625 109.613281 1287.300781 111.539062 1287.492188 113.480469 C 1287.683594 115.421875 1287.78125 117.367188 1287.78125 119.320312 Z M 1287.78125 119.320312 "/></g><path style=" stroke:none;fill-rule:nonzero;fill:#66aea7;fill-opacity:1;" d="M 1260.925781 108.070312 C 1264.113281 104.878906 1264.109375 99.710938 1260.921875 96.523438 C 1257.734375 93.335938 1252.5625 93.335938 1249.375 96.527344 L 1221.121094 124.792969 L 1207.019531 110.691406 C 1203.832031 107.5 1198.660156 107.5 1195.472656 110.691406 C 1192.285156 113.878906 1192.285156 119.046875 1195.472656 122.234375 L 1215.351562 142.113281 C 1216.882812 143.644531 1218.960938 144.503906 1221.125 144.503906 C 1223.289062 144.503906 1225.367188 143.644531 1226.898438 142.113281 Z M 1260.925781 108.070312 "/><g style="fill:#ffffff;fill-opacity:1;"><g transform="translate(1313.466115, 410.296498)"><path style="stroke:none" d="M 39.703125 -38.34375 C 43.160156 -38.34375 46.078125 -39.207031 48.453125 -40.9375 C 50.828125 -42.675781 52.632812 -44.898438 53.875 -47.609375 C 55.125 -50.328125 55.75 -53.117188 55.75 -55.984375 C 55.75 -59.753906 54.46875 -62.9375 51.90625 -65.53125 C 49.34375 -68.132812 45.6875 -69.4375 40.9375 -69.4375 L 38.796875 -69.4375 L 32.453125 -39.359375 C 35.097656 -38.679688 37.515625 -38.34375 39.703125 -38.34375 Z M -3.390625 -0.671875 L 1.015625 -1.125 C 2.972656 -1.28125 4.382812 -1.523438 5.25 -1.859375 C 6.125 -2.203125 6.597656 -2.5625 6.671875 -2.9375 L 20.46875 -68.078125 C 20.46875 -68.453125 20.144531 -68.734375 19.5 -68.921875 C 18.863281 -69.117188 17.148438 -69.367188 14.359375 -69.671875 L 11.421875 -70 L 11.3125 -70.6875 L 45.125 -70.6875 C 50.25 -70.6875 55.035156 -70.023438 59.484375 -68.703125 C 63.929688 -67.378906 67.507812 -65.414062 70.21875 -62.8125 C 72.9375 -60.21875 74.296875 -57 74.296875 -53.15625 C 74.296875 -48.476562 72.429688 -44.6875 68.703125 -41.78125 C 64.972656 -38.882812 59.410156 -37.4375 52.015625 -37.4375 L 60.84375 -15.046875 C 62.28125 -11.421875 63.429688 -8.664062 64.296875 -6.78125 C 65.160156 -4.894531 66.15625 -3.554688 67.28125 -2.765625 C 68.414062 -1.972656 69.960938 -1.351562 71.921875 -0.90625 L 72.828125 -0.671875 L 72.953125 0 L 46.484375 0 L 34.609375 -37.09375 C 34.234375 -37.25 33.835938 -37.4375 33.421875 -37.65625 C 33.003906 -37.882812 32.609375 -38.070312 32.234375 -38.21875 L 24.65625 -2.59375 C 24.582031 -2.21875 24.84375 -1.914062 25.4375 -1.6875 C 26.039062 -1.46875 27.773438 -1.242188 30.640625 -1.015625 L 34.71875 -0.796875 L 34.828125 0 L -3.734375 0 Z M -3.390625 -0.671875 "/></g></g><g style="fill:#ffffff;fill-opacity:1;"><g transform="translate(1389.352873, 410.296498)"><path style="stroke:none" d="M -3.390625 -0.671875 L 1.015625 -1.125 C 3.054688 -1.351562 4.488281 -1.617188 5.3125 -1.921875 C 6.144531 -2.222656 6.597656 -2.5625 6.671875 -2.9375 L 20.46875 -68.078125 C 20.46875 -68.453125 20.144531 -68.734375 19.5 -68.921875 C 18.863281 -69.117188 17.148438 -69.367188 14.359375 -69.671875 L 11.421875 -70 L 11.3125 -70.6875 L 68.640625 -70.6875 L 68.53125 -46.703125 L 67.625 -46.703125 L 67.296875 -47.953125 C 65.785156 -54.128906 63.785156 -58.78125 61.296875 -61.90625 C 58.804688 -65.039062 55.898438 -67.132812 52.578125 -68.1875 C 49.265625 -69.25 45.648438 -69.664062 41.734375 -69.4375 L 38.796875 -69.21875 L 31.890625 -36.75 L 36.53125 -36.875 C 40.519531 -37.09375 43.890625 -38.109375 46.640625 -39.921875 C 49.398438 -41.734375 51.457031 -44.410156 52.8125 -47.953125 L 53.828125 -50.4375 L 54.625 -50.4375 L 47.84375 -20.578125 L 47.046875 -20.578125 L 47.265625 -23.078125 C 47.265625 -25.710938 46.960938 -27.914062 46.359375 -29.6875 C 45.765625 -31.457031 44.597656 -32.832031 42.859375 -33.8125 C 41.128906 -34.789062 38.53125 -35.359375 35.0625 -35.515625 L 31.671875 -35.734375 L 24.421875 -1.578125 L 32.796875 -1.015625 C 39.429688 -1.171875 45.59375 -2.941406 51.28125 -6.328125 C 56.976562 -9.722656 61.710938 -15.226562 65.484375 -22.84375 L 66.15625 -24.09375 L 67.0625 -24.09375 L 59.71875 0 L -3.734375 0 Z M -3.390625 -0.671875 "/></g></g><g style="fill:#ffffff;fill-opacity:1;"><g transform="translate(1460.150354, 410.296498)"><path style="stroke:none" d="M 43.421875 1.125 C 37.316406 1.125 31.925781 0.179688 27.25 -1.703125 C 22.582031 -3.585938 18.664062 -6.148438 15.5 -9.390625 C 12.332031 -12.628906 9.9375 -16.265625 8.3125 -20.296875 C 6.6875 -24.328125 5.875 -28.492188 5.875 -32.796875 C 5.875 -37.773438 6.757812 -42.597656 8.53125 -47.265625 C 10.3125 -51.941406 12.972656 -56.144531 16.515625 -59.875 C 20.054688 -63.613281 24.460938 -66.578125 29.734375 -68.765625 C 35.015625 -70.953125 41.125 -72.046875 48.0625 -72.046875 C 53.488281 -72.046875 57.898438 -71.457031 61.296875 -70.28125 C 64.691406 -69.113281 67.519531 -67.738281 69.78125 -66.15625 L 78.265625 -68.984375 L 76.109375 -46.9375 L 75.328125 -47.046875 L 67.40625 -65.03125 C 65.519531 -66.757812 63.144531 -68.078125 60.28125 -68.984375 C 57.414062 -69.890625 54.925781 -70.34375 52.8125 -70.34375 C 48.289062 -70.34375 44.296875 -68.984375 40.828125 -66.265625 C 37.359375 -63.554688 34.453125 -60.015625 32.109375 -55.640625 C 29.773438 -51.265625 28.003906 -46.515625 26.796875 -41.390625 C 25.597656 -36.265625 25 -31.289062 25 -26.46875 C 25 -17.945312 26.769531 -11.421875 30.3125 -6.890625 C 33.851562 -2.367188 39.015625 -0.109375 45.796875 -0.109375 C 50.328125 -0.109375 54.378906 -1.410156 57.953125 -4.015625 C 61.535156 -6.617188 64.6875 -10.367188 67.40625 -15.265625 L 72.375 -24.203125 L 72.953125 -23.96875 L 67.515625 -1.359375 L 63.671875 -1.25 C 62.460938 -0.945312 60.726562 -0.601562 58.46875 -0.21875 C 56.207031 0.15625 53.738281 0.472656 51.0625 0.734375 C 48.382812 0.992188 45.835938 1.125 43.421875 1.125 Z M 43.421875 1.125 "/></g></g><g style="fill:#ffffff;fill-opacity:1;"><g transform="translate(1537.84661, 410.296498)"><path style="stroke:none" d="M 40.140625 0.21875 C 43.765625 0.21875 47.101562 -1.15625 50.15625 -3.90625 C 53.207031 -6.65625 55.84375 -10.382812 58.0625 -15.09375 C 60.289062 -19.8125 62.023438 -25.1875 63.265625 -31.21875 C 64.515625 -37.25 65.140625 -43.503906 65.140625 -49.984375 C 65.140625 -56.316406 63.800781 -61.332031 61.125 -65.03125 C 58.445312 -68.726562 54.507812 -70.578125 49.3125 -70.578125 C 45.914062 -70.578125 42.894531 -69.390625 40.25 -67.015625 C 37.613281 -64.640625 35.332031 -61.507812 33.40625 -57.625 C 31.488281 -53.738281 29.90625 -49.492188 28.65625 -44.890625 C 27.414062 -40.296875 26.492188 -35.695312 25.890625 -31.09375 C 25.296875 -26.5 25 -22.351562 25 -18.65625 C 25 -12.851562 26.238281 -8.253906 28.71875 -4.859375 C 31.207031 -1.472656 35.015625 0.21875 40.140625 0.21875 Z M 42.1875 1.46875 C 35.019531 1.46875 28.78125 -0.09375 23.46875 -3.21875 C 18.15625 -6.351562 14.046875 -10.554688 11.140625 -15.828125 C 8.234375 -21.109375 6.78125 -26.953125 6.78125 -33.359375 C 6.78125 -38.265625 7.757812 -43.015625 9.71875 -47.609375 C 11.6875 -52.210938 14.457031 -56.359375 18.03125 -60.046875 C 21.613281 -63.742188 25.875 -66.664062 30.8125 -68.8125 C 35.75 -70.96875 41.234375 -72.046875 47.265625 -72.046875 C 52.703125 -72.046875 57.644531 -71.117188 62.09375 -69.265625 C 66.539062 -67.421875 70.347656 -64.859375 73.515625 -61.578125 C 76.679688 -58.296875 79.128906 -54.523438 80.859375 -50.265625 C 82.597656 -46.003906 83.46875 -41.425781 83.46875 -36.53125 C 83.46875 -31.625 82.484375 -26.910156 80.515625 -22.390625 C 78.554688 -17.867188 75.765625 -13.816406 72.140625 -10.234375 C 68.523438 -6.648438 64.191406 -3.800781 59.140625 -1.6875 C 54.097656 0.414062 48.445312 1.46875 42.1875 1.46875 Z M 42.1875 1.46875 "/></g></g><g style="fill:#ffffff;fill-opacity:1;"><g transform="translate(1622.328607, 410.296498)"><path style="stroke:none" d="M -3.734375 -0.671875 L -1.578125 -0.796875 C 1.054688 -1.015625 3.050781 -1.441406 4.40625 -2.078125 C 5.769531 -2.722656 6.734375 -3.460938 7.296875 -4.296875 C 7.859375 -5.128906 8.253906 -5.921875 8.484375 -6.671875 L 22.171875 -63.890625 C 21.566406 -65.703125 20.488281 -67.078125 18.9375 -68.015625 C 17.394531 -68.960938 15.796875 -69.515625 14.140625 -69.671875 L 10.96875 -69.890625 L 10.75 -70.6875 L 39.703125 -70.6875 L 47.609375 -24.09375 L 47.84375 -23.96875 L 75.328125 -70.6875 L 103.140625 -70.6875 L 102.6875 -70 L 98.390625 -69.546875 C 96.359375 -69.328125 94.925781 -69.066406 94.09375 -68.765625 C 93.257812 -68.460938 92.804688 -68.125 92.734375 -67.75 L 78.9375 -2.59375 C 78.9375 -2.21875 79.253906 -1.9375 79.890625 -1.75 C 80.535156 -1.5625 82.253906 -1.316406 85.046875 -1.015625 L 87.984375 -0.671875 L 88.09375 0 L 50.09375 0 L 50.4375 -0.671875 L 55.984375 -1.125 C 57.941406 -1.28125 59.238281 -1.523438 59.875 -1.859375 C 60.519531 -2.203125 60.878906 -2.5625 60.953125 -2.9375 L 74.078125 -65.703125 L 73.84375 -65.703125 L 35.171875 0 L 33.46875 0 L 23.078125 -61.40625 L 22.84375 -61.40625 L 9.84375 -5.3125 C 9.757812 -4.707031 9.90625 -4.082031 10.28125 -3.4375 C 10.664062 -2.800781 11.570312 -2.253906 13 -1.796875 C 14.4375 -1.347656 16.625 -1.015625 19.5625 -0.796875 L 21.484375 -0.671875 L 21.59375 0 L -4.078125 0 Z M -3.734375 -0.671875 "/></g></g><g style="fill:#ffffff;fill-opacity:1;"><g transform="translate(1720.042693, 410.296498)"><path style="stroke:none" d="M -3.734375 -0.671875 L -1.578125 -0.796875 C 1.054688 -1.015625 3.050781 -1.441406 4.40625 -2.078125 C 5.769531 -2.722656 6.734375 -3.460938 7.296875 -4.296875 C 7.859375 -5.128906 8.253906 -5.921875 8.484375 -6.671875 L 22.171875 -63.890625 C 21.566406 -65.703125 20.488281 -67.078125 18.9375 -68.015625 C 17.394531 -68.960938 15.796875 -69.515625 14.140625 -69.671875 L 10.96875 -69.890625 L 10.75 -70.6875 L 39.703125 -70.6875 L 47.609375 -24.09375 L 47.84375 -23.96875 L 75.328125 -70.6875 L 103.140625 -70.6875 L 102.6875 -70 L 98.390625 -69.546875 C 96.359375 -69.328125 94.925781 -69.066406 94.09375 -68.765625 C 93.257812 -68.460938 92.804688 -68.125 92.734375 -67.75 L 78.9375 -2.59375 C 78.9375 -2.21875 79.253906 -1.9375 79.890625 -1.75 C 80.535156 -1.5625 82.253906 -1.316406 85.046875 -1.015625 L 87.984375 -0.671875 L 88.09375 0 L 50.09375 0 L 50.4375 -0.671875 L 55.984375 -1.125 C 57.941406 -1.28125 59.238281 -1.523438 59.875 -1.859375 C 60.519531 -2.203125 60.878906 -2.5625 60.953125 -2.9375 L 74.078125 -65.703125 L 73.84375 -65.703125 L 35.171875 0 L 33.46875 0 L 23.078125 -61.40625 L 22.84375 -61.40625 L 9.84375 -5.3125 C 9.757812 -4.707031 9.90625 -4.082031 10.28125 -3.4375 C 10.664062 -2.800781 11.570312 -2.253906 13 -1.796875 C 14.4375 -1.347656 16.625 -1.015625 19.5625 -0.796875 L 21.484375 -0.671875 L 21.59375 0 L -4.078125 0 Z M -3.734375 -0.671875 "/></g></g><g style="fill:#ffffff;fill-opacity:1;"><g transform="translate(1817.756779, 410.296498)"><path style="stroke:none" d="M -3.390625 -0.671875 L 1.015625 -1.125 C 3.054688 -1.351562 4.488281 -1.617188 5.3125 -1.921875 C 6.144531 -2.222656 6.597656 -2.5625 6.671875 -2.9375 L 20.46875 -68.078125 C 20.46875 -68.453125 20.144531 -68.734375 19.5 -68.921875 C 18.863281 -69.117188 17.148438 -69.367188 14.359375 -69.671875 L 11.421875 -70 L 11.3125 -70.6875 L 68.640625 -70.6875 L 68.53125 -46.703125 L 67.625 -46.703125 L 67.296875 -47.953125 C 65.785156 -54.128906 63.785156 -58.78125 61.296875 -61.90625 C 58.804688 -65.039062 55.898438 -67.132812 52.578125 -68.1875 C 49.265625 -69.25 45.648438 -69.664062 41.734375 -69.4375 L 38.796875 -69.21875 L 31.890625 -36.75 L 36.53125 -36.875 C 40.519531 -37.09375 43.890625 -38.109375 46.640625 -39.921875 C 49.398438 -41.734375 51.457031 -44.410156 52.8125 -47.953125 L 53.828125 -50.4375 L 54.625 -50.4375 L 47.84375 -20.578125 L 47.046875 -20.578125 L 47.265625 -23.078125 C 47.265625 -25.710938 46.960938 -27.914062 46.359375 -29.6875 C 45.765625 -31.457031 44.597656 -32.832031 42.859375 -33.8125 C 41.128906 -34.789062 38.53125 -35.359375 35.0625 -35.515625 L 31.671875 -35.734375 L 24.421875 -1.578125 L 32.796875 -1.015625 C 39.429688 -1.171875 45.59375 -2.941406 51.28125 -6.328125 C 56.976562 -9.722656 61.710938 -15.226562 65.484375 -22.84375 L 66.15625 -24.09375 L 67.0625 -24.09375 L 59.71875 0 L -3.734375 0 Z M -3.390625 -0.671875 "/></g></g><g style="fill:#ffffff;fill-opacity:1;"><g transform="translate(1888.554247, 410.296498)"><path style="stroke:none" d="M 23.296875 -59.140625 L 23.078125 -59.140625 L 11.53125 -5.09375 C 11.382812 -4.113281 11.910156 -3.226562 13.109375 -2.4375 C 14.316406 -1.644531 17.109375 -1.097656 21.484375 -0.796875 L 23.40625 -0.671875 L 23.53125 0 L -2.15625 0 L -1.8125 -0.671875 L 0.34375 -0.796875 C 4.332031 -1.097656 6.929688 -1.8125 8.140625 -2.9375 C 9.347656 -4.070312 10.023438 -5.242188 10.171875 -6.453125 L 22.171875 -60.5 C 20.585938 -63.59375 18.609375 -65.835938 16.234375 -67.234375 C 13.859375 -68.628906 11.800781 -69.398438 10.0625 -69.546875 L 9.15625 -69.671875 L 9.046875 -70.6875 L 39.125 -70.6875 L 65.484375 -27.375 L 65.703125 -27.484375 L 73.84375 -65.59375 C 74.144531 -66.5 73.632812 -67.40625 72.3125 -68.3125 C 71 -69.21875 68.191406 -69.742188 63.890625 -69.890625 L 61.96875 -70 L 61.859375 -70.6875 L 87.53125 -70.6875 L 87.078125 -70 L 85.046875 -69.890625 C 82.410156 -69.816406 80.410156 -69.457031 79.046875 -68.8125 C 77.691406 -68.175781 76.769531 -67.441406 76.28125 -66.609375 C 75.789062 -65.785156 75.429688 -64.992188 75.203125 -64.234375 L 60.84375 0.671875 L 59.59375 0.671875 Z M 23.296875 -59.140625 "/></g></g><g style="fill:#ffffff;fill-opacity:1;"><g transform="translate(1967.381518, 410.296498)"><path style="stroke:none" d="M 32.234375 -1.25 C 36.679688 -1.25 40.675781 -2.53125 44.21875 -5.09375 C 47.757812 -7.65625 50.753906 -11.160156 53.203125 -15.609375 C 55.660156 -20.054688 57.53125 -25.085938 58.8125 -30.703125 C 60.09375 -36.316406 60.734375 -42.179688 60.734375 -48.296875 C 60.734375 -55.003906 59.351562 -60.1875 56.59375 -63.84375 C 53.84375 -67.5 49.414062 -69.328125 43.3125 -69.328125 L 38.796875 -69.328125 L 24.765625 -3.046875 Z M -3.390625 -0.671875 L 1.015625 -1.125 C 3.054688 -1.351562 4.488281 -1.617188 5.3125 -1.921875 C 6.144531 -2.222656 6.597656 -2.5625 6.671875 -2.9375 L 20.46875 -68.078125 C 20.539062 -68.453125 20.21875 -68.734375 19.5 -68.921875 C 18.789062 -69.117188 17.078125 -69.367188 14.359375 -69.671875 L 11.421875 -70 L 11.3125 -70.6875 L 43.203125 -70.6875 C 51.046875 -70.6875 57.679688 -69.304688 63.109375 -66.546875 C 68.535156 -63.796875 72.644531 -60.082031 75.4375 -55.40625 C 78.226562 -50.738281 79.625 -45.425781 79.625 -39.46875 C 79.625 -34.269531 78.566406 -29.3125 76.453125 -24.59375 C 74.335938 -19.882812 71.28125 -15.679688 67.28125 -11.984375 C 63.289062 -8.296875 58.410156 -5.375 52.640625 -3.21875 C 46.878906 -1.070312 40.335938 0 33.015625 0 L -3.734375 0 Z M -3.390625 -0.671875 "/></g></g><g style="fill:#ffffff;fill-opacity:1;"><g transform="translate(2047.678929, 410.296498)"><path style="stroke:none" d="M -3.390625 -0.671875 L 1.015625 -1.125 C 3.054688 -1.351562 4.488281 -1.617188 5.3125 -1.921875 C 6.144531 -2.222656 6.597656 -2.5625 6.671875 -2.9375 L 20.46875 -68.078125 C 20.46875 -68.453125 20.144531 -68.734375 19.5 -68.921875 C 18.863281 -69.117188 17.148438 -69.367188 14.359375 -69.671875 L 11.421875 -70 L 11.3125 -70.6875 L 68.640625 -70.6875 L 68.53125 -46.703125 L 67.625 -46.703125 L 67.296875 -47.953125 C 65.785156 -54.128906 63.785156 -58.78125 61.296875 -61.90625 C 58.804688 -65.039062 55.898438 -67.132812 52.578125 -68.1875 C 49.265625 -69.25 45.648438 -69.664062 41.734375 -69.4375 L 38.796875 -69.21875 L 31.890625 -36.75 L 36.53125 -36.875 C 40.519531 -37.09375 43.890625 -38.109375 46.640625 -39.921875 C 49.398438 -41.734375 51.457031 -44.410156 52.8125 -47.953125 L 53.828125 -50.4375 L 54.625 -50.4375 L 47.84375 -20.578125 L 47.046875 -20.578125 L 47.265625 -23.078125 C 47.265625 -25.710938 46.960938 -27.914062 46.359375 -29.6875 C 45.765625 -31.457031 44.597656 -32.832031 42.859375 -33.8125 C 41.128906 -34.789062 38.53125 -35.359375 35.0625 -35.515625 L 31.671875 -35.734375 L 24.421875 -1.578125 L 32.796875 -1.015625 C 39.429688 -1.171875 45.59375 -2.941406 51.28125 -6.328125 C 56.976562 -9.722656 61.710938 -15.226562 65.484375 -22.84375 L 66.15625 -24.09375 L 67.0625 -24.09375 L 59.71875 0 L -3.734375 0 Z M -3.390625 -0.671875 "/></g></g><g style="fill:#ffffff;fill-opacity:1;"><g transform="translate(2118.476449, 410.296498)"><path style="stroke:none" d="M 32.234375 -1.25 C 36.679688 -1.25 40.675781 -2.53125 44.21875 -5.09375 C 47.757812 -7.65625 50.753906 -11.160156 53.203125 -15.609375 C 55.660156 -20.054688 57.53125 -25.085938 58.8125 -30.703125 C 60.09375 -36.316406 60.734375 -42.179688 60.734375 -48.296875 C 60.734375 -55.003906 59.351562 -60.1875 56.59375 -63.84375 C 53.84375 -67.5 49.414062 -69.328125 43.3125 -69.328125 L 38.796875 -69.328125 L 24.765625 -3.046875 Z M -3.390625 -0.671875 L 1.015625 -1.125 C 3.054688 -1.351562 4.488281 -1.617188 5.3125 -1.921875 C 6.144531 -2.222656 6.597656 -2.5625 6.671875 -2.9375 L 20.46875 -68.078125 C 20.539062 -68.453125 20.21875 -68.734375 19.5 -68.921875 C 18.789062 -69.117188 17.078125 -69.367188 14.359375 -69.671875 L 11.421875 -70 L 11.3125 -70.6875 L 43.203125 -70.6875 C 51.046875 -70.6875 57.679688 -69.304688 63.109375 -66.546875 C 68.535156 -63.796875 72.644531 -60.082031 75.4375 -55.40625 C 78.226562 -50.738281 79.625 -45.425781 79.625 -39.46875 C 79.625 -34.269531 78.566406 -29.3125 76.453125 -24.59375 C 74.335938 -19.882812 71.28125 -15.679688 67.28125 -11.984375 C 63.289062 -8.296875 58.410156 -5.375 52.640625 -3.21875 C 46.878906 -1.070312 40.335938 0 33.015625 0 L -3.734375 0 Z M -3.390625 -0.671875 "/></g></g><g style="fill:#ffffff;fill-opacity:1;"><g transform="translate(191.011311, 410.296498)"><path style="stroke:none" d="M 21.59375 -55.875 C 20.695312 -60.019531 19.890625 -63.050781 19.171875 -64.96875 C 18.453125 -66.894531 17.640625 -68.160156 16.734375 -68.765625 C 15.828125 -69.367188 14.625 -69.707031 13.125 -69.78125 L 10.171875 -70 L 10.171875 -70.6875 L 47.15625 -70.6875 L 46.828125 -70 L 43.875 -69.890625 C 41.539062 -69.816406 39.921875 -69.535156 39.015625 -69.046875 C 38.109375 -68.554688 37.691406 -67.671875 37.765625 -66.390625 C 37.847656 -65.109375 38.191406 -63.1875 38.796875 -60.625 L 46.375 -22.5 L 46.703125 -22.5 L 64.234375 -51.34375 C 66.722656 -55.414062 68.664062 -58.640625 70.0625 -61.015625 C 71.457031 -63.390625 72.25 -65.140625 72.4375 -66.265625 C 72.625 -67.398438 72.132812 -68.191406 70.96875 -68.640625 C 69.800781 -69.097656 67.859375 -69.476562 65.140625 -69.78125 L 63.21875 -70 L 63.109375 -70.6875 L 86.96875 -70.6875 L 86.515625 -70 L 84.484375 -69.78125 C 82.523438 -69.550781 80.882812 -69.207031 79.5625 -68.75 C 78.238281 -68.300781 76.972656 -67.453125 75.765625 -66.203125 C 74.566406 -64.960938 73.15625 -63.132812 71.53125 -60.71875 C 69.90625 -58.3125 67.851562 -55 65.375 -50.78125 L 34.15625 0.5625 L 33.015625 0.5625 Z M 21.59375 -55.875 "/></g></g><g style="fill:#ffffff;fill-opacity:1;"><g transform="translate(267.689727, 410.296498)"><path style="stroke:none" d="M -3.390625 -0.671875 L 1.015625 -1.125 C 3.054688 -1.351562 4.488281 -1.617188 5.3125 -1.921875 C 6.144531 -2.222656 6.597656 -2.5625 6.671875 -2.9375 L 20.46875 -68.078125 C 20.46875 -68.453125 20.144531 -68.734375 19.5 -68.921875 C 18.863281 -69.117188 17.148438 -69.367188 14.359375 -69.671875 L 11.421875 -70 L 11.3125 -70.6875 L 68.640625 -70.6875 L 68.53125 -46.703125 L 67.625 -46.703125 L 67.296875 -47.953125 C 65.785156 -54.128906 63.785156 -58.78125 61.296875 -61.90625 C 58.804688 -65.039062 55.898438 -67.132812 52.578125 -68.1875 C 49.265625 -69.25 45.648438 -69.664062 41.734375 -69.4375 L 38.796875 -69.21875 L 31.890625 -36.75 L 36.53125 -36.875 C 40.519531 -37.09375 43.890625 -38.109375 46.640625 -39.921875 C 49.398438 -41.734375 51.457031 -44.410156 52.8125 -47.953125 L 53.828125 -50.4375 L 54.625 -50.4375 L 47.84375 -20.578125 L 47.046875 -20.578125 L 47.265625 -23.078125 C 47.265625 -25.710938 46.960938 -27.914062 46.359375 -29.6875 C 45.765625 -31.457031 44.597656 -32.832031 42.859375 -33.8125 C 41.128906 -34.789062 38.53125 -35.359375 35.0625 -35.515625 L 31.671875 -35.734375 L 24.421875 -1.578125 L 32.796875 -1.015625 C 39.429688 -1.171875 45.59375 -2.941406 51.28125 -6.328125 C 56.976562 -9.722656 61.710938 -15.226562 65.484375 -22.84375 L 66.15625 -24.09375 L 67.0625 -24.09375 L 59.71875 0 L -3.734375 0 Z M -3.390625 -0.671875 "/></g></g><g style="fill:#ffffff;fill-opacity:1;"><g transform="translate(338.487207, 410.296498)"><path style="stroke:none" d="M 15.5 -0.671875 L 20.125 -1.125 C 22.09375 -1.28125 23.507812 -1.523438 24.375 -1.859375 C 25.238281 -2.203125 25.707031 -2.5625 25.78125 -2.9375 L 39.8125 -69.78125 L 38.34375 -69.78125 C 35.695312 -69.625 33.054688 -68.773438 30.421875 -67.234375 C 27.785156 -65.691406 25.28125 -63.785156 22.90625 -61.515625 C 20.53125 -59.253906 18.378906 -56.957031 16.453125 -54.625 C 14.535156 -52.289062 12.9375 -50.253906 11.65625 -48.515625 L 10.296875 -46.703125 L 9.609375 -46.703125 L 17.75 -70.6875 L 80.96875 -70.6875 L 77.703125 -46.828125 L 77.25 -46.828125 L 76.671875 -48.515625 C 75.992188 -50.554688 75.203125 -52.78125 74.296875 -55.1875 C 73.398438 -57.601562 72.269531 -59.90625 70.90625 -62.09375 C 69.550781 -64.28125 67.945312 -66.085938 66.09375 -67.515625 C 64.25 -68.953125 62.082031 -69.707031 59.59375 -69.78125 L 57.90625 -69.78125 L 43.65625 -2.59375 C 43.582031 -2.21875 43.882812 -1.9375 44.5625 -1.75 C 45.238281 -1.5625 46.972656 -1.316406 49.765625 -1.015625 L 52.921875 -0.671875 L 53.046875 0 L 15.15625 0 Z M 15.5 -0.671875 "/></g></g><g style="fill:#ffffff;fill-opacity:1;"><g transform="translate(416.296587, 410.296498)"><path style="stroke:none" d="M 15.5 -0.671875 L 20.125 -1.125 C 22.09375 -1.28125 23.507812 -1.523438 24.375 -1.859375 C 25.238281 -2.203125 25.707031 -2.5625 25.78125 -2.9375 L 39.8125 -69.78125 L 38.34375 -69.78125 C 35.695312 -69.625 33.054688 -68.773438 30.421875 -67.234375 C 27.785156 -65.691406 25.28125 -63.785156 22.90625 -61.515625 C 20.53125 -59.253906 18.378906 -56.957031 16.453125 -54.625 C 14.535156 -52.289062 12.9375 -50.253906 11.65625 -48.515625 L 10.296875 -46.703125 L 9.609375 -46.703125 L 17.75 -70.6875 L 80.96875 -70.6875 L 77.703125 -46.828125 L 77.25 -46.828125 L 76.671875 -48.515625 C 75.992188 -50.554688 75.203125 -52.78125 74.296875 -55.1875 C 73.398438 -57.601562 72.269531 -59.90625 70.90625 -62.09375 C 69.550781 -64.28125 67.945312 -66.085938 66.09375 -67.515625 C 64.25 -68.953125 62.082031 -69.707031 59.59375 -69.78125 L 57.90625 -69.78125 L 43.65625 -2.59375 C 43.582031 -2.21875 43.882812 -1.9375 44.5625 -1.75 C 45.238281 -1.5625 46.972656 -1.316406 49.765625 -1.015625 L 52.921875 -0.671875 L 53.046875 0 L 15.15625 0 Z M 15.5 -0.671875 "/></g></g><g style="fill:#ffffff;fill-opacity:1;"><g transform="translate(494.105953, 410.296498)"><path style="stroke:none" d="M -3.390625 -0.671875 L 1.015625 -1.125 C 3.054688 -1.351562 4.488281 -1.617188 5.3125 -1.921875 C 6.144531 -2.222656 6.597656 -2.5625 6.671875 -2.9375 L 20.46875 -68.078125 C 20.46875 -68.453125 20.144531 -68.734375 19.5 -68.921875 C 18.863281 -69.117188 17.148438 -69.367188 14.359375 -69.671875 L 11.421875 -70 L 11.3125 -70.6875 L 68.640625 -70.6875 L 68.53125 -46.703125 L 67.625 -46.703125 L 67.296875 -47.953125 C 65.785156 -54.128906 63.785156 -58.78125 61.296875 -61.90625 C 58.804688 -65.039062 55.898438 -67.132812 52.578125 -68.1875 C 49.265625 -69.25 45.648438 -69.664062 41.734375 -69.4375 L 38.796875 -69.21875 L 31.890625 -36.75 L 36.53125 -36.875 C 40.519531 -37.09375 43.890625 -38.109375 46.640625 -39.921875 C 49.398438 -41.734375 51.457031 -44.410156 52.8125 -47.953125 L 53.828125 -50.4375 L 54.625 -50.4375 L 47.84375 -20.578125 L 47.046875 -20.578125 L 47.265625 -23.078125 C 47.265625 -25.710938 46.960938 -27.914062 46.359375 -29.6875 C 45.765625 -31.457031 44.597656 -32.832031 42.859375 -33.8125 C 41.128906 -34.789062 38.53125 -35.359375 35.0625 -35.515625 L 31.671875 -35.734375 L 24.421875 -1.578125 L 32.796875 -1.015625 C 39.429688 -1.171875 45.59375 -2.941406 51.28125 -6.328125 C 56.976562 -9.722656 61.710938 -15.226562 65.484375 -22.84375 L 66.15625 -24.09375 L 67.0625 -24.09375 L 59.71875 0 L -3.734375 0 Z M -3.390625 -0.671875 "/></g></g><g style="fill:#ffffff;fill-opacity:1;"><g transform="translate(564.903421, 410.296498)"><path style="stroke:none" d="M 32.234375 -1.25 C 36.679688 -1.25 40.675781 -2.53125 44.21875 -5.09375 C 47.757812 -7.65625 50.753906 -11.160156 53.203125 -15.609375 C 55.660156 -20.054688 57.53125 -25.085938 58.8125 -30.703125 C 60.09375 -36.316406 60.734375 -42.179688 60.734375 -48.296875 C 60.734375 -55.003906 59.351562 -60.1875 56.59375 -63.84375 C 53.84375 -67.5 49.414062 -69.328125 43.3125 -69.328125 L 38.796875 -69.328125 L 24.765625 -3.046875 Z M -3.390625 -0.671875 L 1.015625 -1.125 C 3.054688 -1.351562 4.488281 -1.617188 5.3125 -1.921875 C 6.144531 -2.222656 6.597656 -2.5625 6.671875 -2.9375 L 20.46875 -68.078125 C 20.539062 -68.453125 20.21875 -68.734375 19.5 -68.921875 C 18.789062 -69.117188 17.078125 -69.367188 14.359375 -69.671875 L 11.421875 -70 L 11.3125 -70.6875 L 43.203125 -70.6875 C 51.046875 -70.6875 57.679688 -69.304688 63.109375 -66.546875 C 68.535156 -63.796875 72.644531 -60.082031 75.4375 -55.40625 C 78.226562 -50.738281 79.625 -45.425781 79.625 -39.46875 C 79.625 -34.269531 78.566406 -29.3125 76.453125 -24.59375 C 74.335938 -19.882812 71.28125 -15.679688 67.28125 -11.984375 C 63.289062 -8.296875 58.410156 -5.375 52.640625 -3.21875 C 46.878906 -1.070312 40.335938 0 33.015625 0 L -3.734375 0 Z M -3.390625 -0.671875 "/></g></g><g style="fill:#ffffff;fill-opacity:1;"><g transform="translate(191.011311, 147.552033)"><path style="stroke:none" d="M 15.5 -0.671875 L 20.125 -1.125 C 22.09375 -1.28125 23.507812 -1.523438 24.375 -1.859375 C 25.238281 -2.203125 25.707031 -2.5625 25.78125 -2.9375 L 39.8125 -69.78125 L 38.34375 -69.78125 C 35.695312 -69.625 33.054688 -68.773438 30.421875 -67.234375 C 27.785156 -65.691406 25.28125 -63.785156 22.90625 -61.515625 C 20.53125 -59.253906 18.378906 -56.957031 16.453125 -54.625 C 14.535156 -52.289062 12.9375 -50.253906 11.65625 -48.515625 L 10.296875 -46.703125 L 9.609375 -46.703125 L 17.75 -70.6875 L 80.96875 -70.6875 L 77.703125 -46.828125 L 77.25 -46.828125 L 76.671875 -48.515625 C 75.992188 -50.554688 75.203125 -52.78125 74.296875 -55.1875 C 73.398438 -57.601562 72.269531 -59.90625 70.90625 -62.09375 C 69.550781 -64.28125 67.945312 -66.085938 66.09375 -67.515625 C 64.25 -68.953125 62.082031 -69.707031 59.59375 -69.78125 L 57.90625 -69.78125 L 43.65625 -2.59375 C 43.582031 -2.21875 43.882812 -1.9375 44.5625 -1.75 C 45.238281 -1.5625 46.972656 -1.316406 49.765625 -1.015625 L 52.921875 -0.671875 L 53.046875 0 L 15.15625 0 Z M 15.5 -0.671875 "/></g></g><g style="fill:#ffffff;fill-opacity:1;"><g transform="translate(268.820677, 147.552033)"><path style="stroke:none" d="M 39.703125 -38.34375 C 43.160156 -38.34375 46.078125 -39.207031 48.453125 -40.9375 C 50.828125 -42.675781 52.632812 -44.898438 53.875 -47.609375 C 55.125 -50.328125 55.75 -53.117188 55.75 -55.984375 C 55.75 -59.753906 54.46875 -62.9375 51.90625 -65.53125 C 49.34375 -68.132812 45.6875 -69.4375 40.9375 -69.4375 L 38.796875 -69.4375 L 32.453125 -39.359375 C 35.097656 -38.679688 37.515625 -38.34375 39.703125 -38.34375 Z M -3.390625 -0.671875 L 1.015625 -1.125 C 2.972656 -1.28125 4.382812 -1.523438 5.25 -1.859375 C 6.125 -2.203125 6.597656 -2.5625 6.671875 -2.9375 L 20.46875 -68.078125 C 20.46875 -68.453125 20.144531 -68.734375 19.5 -68.921875 C 18.863281 -69.117188 17.148438 -69.367188 14.359375 -69.671875 L 11.421875 -70 L 11.3125 -70.6875 L 45.125 -70.6875 C 50.25 -70.6875 55.035156 -70.023438 59.484375 -68.703125 C 63.929688 -67.378906 67.507812 -65.414062 70.21875 -62.8125 C 72.9375 -60.21875 74.296875 -57 74.296875 -53.15625 C 74.296875 -48.476562 72.429688 -44.6875 68.703125 -41.78125 C 64.972656 -38.882812 59.410156 -37.4375 52.015625 -37.4375 L 60.84375 -15.046875 C 62.28125 -11.421875 63.429688 -8.664062 64.296875 -6.78125 C 65.160156 -4.894531 66.15625 -3.554688 67.28125 -2.765625 C 68.414062 -1.972656 69.960938 -1.351562 71.921875 -0.90625 L 72.828125 -0.671875 L 72.953125 0 L 46.484375 0 L 34.609375 -37.09375 C 34.234375 -37.25 33.835938 -37.4375 33.421875 -37.65625 C 33.003906 -37.882812 32.609375 -38.070312 32.234375 -38.21875 L 24.65625 -2.59375 C 24.582031 -2.21875 24.84375 -1.914062 25.4375 -1.6875 C 26.039062 -1.46875 27.773438 -1.242188 30.640625 -1.015625 L 34.71875 -0.796875 L 34.828125 0 L -3.734375 0 Z M -3.390625 -0.671875 "/></g></g><g style="fill:#ffffff;fill-opacity:1;"><g transform="translate(344.707435, 147.552033)"><path style="stroke:none" d="M 41.625 1.921875 C 31.894531 1.921875 24.390625 0.0546875 19.109375 -3.671875 C 13.835938 -7.410156 11.203125 -12.9375 11.203125 -20.25 C 11.203125 -21.832031 11.3125 -23.46875 11.53125 -25.15625 C 11.757812 -26.851562 12.0625 -28.679688 12.4375 -30.640625 C 13.195312 -34.191406 13.914062 -37.53125 14.59375 -40.65625 C 15.269531 -43.78125 15.875 -46.738281 16.40625 -49.53125 C 17 -52.695312 17.597656 -55.710938 18.203125 -58.578125 C 18.804688 -61.441406 19.296875 -63.78125 19.671875 -65.59375 C 20.054688 -67.40625 20.25 -68.234375 20.25 -68.078125 C 20.25 -68.453125 19.984375 -68.734375 19.453125 -68.921875 C 18.921875 -69.117188 17.257812 -69.367188 14.46875 -69.671875 L 11.3125 -70 L 11.203125 -70.6875 L 48.859375 -70.6875 L 48.40625 -70 L 44.109375 -69.546875 C 41.992188 -69.328125 40.539062 -69.066406 39.75 -68.765625 C 38.957031 -68.460938 38.523438 -68.125 38.453125 -67.75 L 30.765625 -31.09375 C 29.859375 -26.800781 29.40625 -23.070312 29.40625 -19.90625 C 29.40625 -13.945312 30.96875 -9.742188 34.09375 -7.296875 C 37.226562 -4.847656 41.769531 -3.625 47.71875 -3.625 C 58.125 -3.625 64.609375 -9.726562 67.171875 -21.9375 L 76.453125 -65.59375 C 76.753906 -66.5 76.222656 -67.421875 74.859375 -68.359375 C 73.503906 -69.304688 70.640625 -69.851562 66.265625 -70 L 64.234375 -70 L 64.015625 -70.6875 L 90.015625 -70.6875 L 89.578125 -70 L 87.421875 -70 C 84.859375 -69.925781 82.914062 -69.550781 81.59375 -68.875 C 80.28125 -68.195312 79.375 -67.441406 78.875 -66.609375 C 78.382812 -65.785156 78.03125 -64.992188 77.8125 -64.234375 L 68.421875 -21.71875 C 66.765625 -14.175781 63.75 -8.347656 59.375 -4.234375 C 55 -0.128906 49.082031 1.921875 41.625 1.921875 Z M 41.625 1.921875 "/></g></g><g style="fill:#ffffff;fill-opacity:1;"><g transform="translate(424.778702, 147.552033)"><path style="stroke:none" d="M 29.171875 1.46875 C 23.671875 1.46875 18.753906 0.695312 14.421875 -0.84375 C 10.085938 -2.394531 6.488281 -4.035156 3.625 -5.765625 L 5.09375 -25 L 5.546875 -24.875 L 9.609375 -13.578125 C 11.191406 -9.046875 13.472656 -5.570312 16.453125 -3.15625 C 19.429688 -0.75 23.5625 0.453125 28.84375 0.453125 C 31.925781 0.453125 34.503906 -0.222656 36.578125 -1.578125 C 38.660156 -2.941406 40.242188 -4.710938 41.328125 -6.890625 C 42.421875 -9.078125 42.96875 -11.378906 42.96875 -13.796875 C 42.96875 -16.585938 42.234375 -18.90625 40.765625 -20.75 C 39.296875 -22.601562 37.410156 -24.242188 35.109375 -25.671875 C 32.816406 -27.109375 30.347656 -28.503906 27.703125 -29.859375 C 25.066406 -31.367188 22.425781 -33.046875 19.78125 -34.890625 C 17.144531 -36.734375 14.976562 -38.914062 13.28125 -41.4375 C 11.59375 -43.96875 10.75 -46.894531 10.75 -50.21875 C 10.75 -53.988281 11.820312 -57.53125 13.96875 -60.84375 C 16.113281 -64.164062 19.035156 -66.84375 22.734375 -68.875 C 26.429688 -70.90625 30.578125 -71.921875 35.171875 -71.921875 C 38.710938 -71.921875 42.03125 -71.375 45.125 -70.28125 C 48.21875 -69.1875 50.707031 -68.113281 52.59375 -67.0625 L 60.171875 -68.53125 L 56.765625 -48.0625 L 56.4375 -48.0625 L 47.953125 -66.84375 C 47.046875 -67.75 45.554688 -68.613281 43.484375 -69.4375 C 41.410156 -70.269531 39.164062 -70.6875 36.75 -70.6875 C 34.34375 -70.6875 32.195312 -70.097656 30.3125 -68.921875 C 28.425781 -67.753906 26.9375 -66.265625 25.84375 -64.453125 C 24.75 -62.648438 24.203125 -60.769531 24.203125 -58.8125 C 24.203125 -56.550781 24.859375 -54.570312 26.171875 -52.875 C 27.492188 -51.175781 29.265625 -49.628906 31.484375 -48.234375 C 33.710938 -46.835938 36.109375 -45.5 38.671875 -44.21875 C 41.390625 -42.863281 44.101562 -41.222656 46.8125 -39.296875 C 49.53125 -37.378906 51.773438 -35.0625 53.546875 -32.34375 C 55.316406 -29.632812 56.203125 -26.351562 56.203125 -22.5 C 56.203125 -18.4375 55.050781 -14.570312 52.75 -10.90625 C 50.457031 -7.25 47.289062 -4.269531 43.25 -1.96875 C 39.21875 0.320312 34.523438 1.46875 29.171875 1.46875 Z M 29.171875 1.46875 "/></g></g><g style="fill:#ffffff;fill-opacity:1;"><g transform="translate(485.171446, 147.552033)"><path style="stroke:none" d="M 15.5 -0.671875 L 20.125 -1.125 C 22.09375 -1.28125 23.507812 -1.523438 24.375 -1.859375 C 25.238281 -2.203125 25.707031 -2.5625 25.78125 -2.9375 L 39.8125 -69.78125 L 38.34375 -69.78125 C 35.695312 -69.625 33.054688 -68.773438 30.421875 -67.234375 C 27.785156 -65.691406 25.28125 -63.785156 22.90625 -61.515625 C 20.53125 -59.253906 18.378906 -56.957031 16.453125 -54.625 C 14.535156 -52.289062 12.9375 -50.253906 11.65625 -48.515625 L 10.296875 -46.703125 L 9.609375 -46.703125 L 17.75 -70.6875 L 80.96875 -70.6875 L 77.703125 -46.828125 L 77.25 -46.828125 L 76.671875 -48.515625 C 75.992188 -50.554688 75.203125 -52.78125 74.296875 -55.1875 C 73.398438 -57.601562 72.269531 -59.90625 70.90625 -62.09375 C 69.550781 -64.28125 67.945312 -66.085938 66.09375 -67.515625 C 64.25 -68.953125 62.082031 -69.707031 59.59375 -69.78125 L 57.90625 -69.78125 L 43.65625 -2.59375 C 43.582031 -2.21875 43.882812 -1.9375 44.5625 -1.75 C 45.238281 -1.5625 46.972656 -1.316406 49.765625 -1.015625 L 52.921875 -0.671875 L 53.046875 0 L 15.15625 0 Z M 15.5 -0.671875 "/></g></g><g style="fill:#ffffff;fill-opacity:1;"><g transform="translate(562.980812, 147.552033)"><path style="stroke:none" d="M -3.390625 -0.671875 L 1.015625 -1.125 C 3.054688 -1.351562 4.488281 -1.617188 5.3125 -1.921875 C 6.144531 -2.222656 6.597656 -2.5625 6.671875 -2.9375 L 20.46875 -68.078125 C 20.46875 -68.453125 20.144531 -68.734375 19.5 -68.921875 C 18.863281 -69.117188 17.148438 -69.367188 14.359375 -69.671875 L 11.421875 -70 L 11.3125 -70.6875 L 68.640625 -70.6875 L 68.53125 -46.703125 L 67.625 -46.703125 L 67.296875 -47.953125 C 65.785156 -54.128906 63.785156 -58.78125 61.296875 -61.90625 C 58.804688 -65.039062 55.898438 -67.132812 52.578125 -68.1875 C 49.265625 -69.25 45.648438 -69.664062 41.734375 -69.4375 L 38.796875 -69.21875 L 31.890625 -36.75 L 36.53125 -36.875 C 40.519531 -37.09375 43.890625 -38.109375 46.640625 -39.921875 C 49.398438 -41.734375 51.457031 -44.410156 52.8125 -47.953125 L 53.828125 -50.4375 L 54.625 -50.4375 L 47.84375 -20.578125 L 47.046875 -20.578125 L 47.265625 -23.078125 C 47.265625 -25.710938 46.960938 -27.914062 46.359375 -29.6875 C 45.765625 -31.457031 44.597656 -32.832031 42.859375 -33.8125 C 41.128906 -34.789062 38.53125 -35.359375 35.0625 -35.515625 L 31.671875 -35.734375 L 24.421875 -1.578125 L 32.796875 -1.015625 C 39.429688 -1.171875 45.59375 -2.941406 51.28125 -6.328125 C 56.976562 -9.722656 61.710938 -15.226562 65.484375 -22.84375 L 66.15625 -24.09375 L 67.0625 -24.09375 L 59.71875 0 L -3.734375 0 Z M -3.390625 -0.671875 "/></g></g><g style="fill:#ffffff;fill-opacity:1;"><g transform="translate(633.778305, 147.552033)"><path style="stroke:none" d="M 32.234375 -1.25 C 36.679688 -1.25 40.675781 -2.53125 44.21875 -5.09375 C 47.757812 -7.65625 50.753906 -11.160156 53.203125 -15.609375 C 55.660156 -20.054688 57.53125 -25.085938 58.8125 -30.703125 C 60.09375 -36.316406 60.734375 -42.179688 60.734375 -48.296875 C 60.734375 -55.003906 59.351562 -60.1875 56.59375 -63.84375 C 53.84375 -67.5 49.414062 -69.328125 43.3125 -69.328125 L 38.796875 -69.328125 L 24.765625 -3.046875 Z M -3.390625 -0.671875 L 1.015625 -1.125 C 3.054688 -1.351562 4.488281 -1.617188 5.3125 -1.921875 C 6.144531 -2.222656 6.597656 -2.5625 6.671875 -2.9375 L 20.46875 -68.078125 C 20.539062 -68.453125 20.21875 -68.734375 19.5 -68.921875 C 18.789062 -69.117188 17.078125 -69.367188 14.359375 -69.671875 L 11.421875 -70 L 11.3125 -70.6875 L 43.203125 -70.6875 C 51.046875 -70.6875 57.679688 -69.304688 63.109375 -66.546875 C 68.535156 -63.796875 72.644531 -60.082031 75.4375 -55.40625 C 78.226562 -50.738281 79.625 -45.425781 79.625 -39.46875 C 79.625 -34.269531 78.566406 -29.3125 76.453125 -24.59375 C 74.335938 -19.882812 71.28125 -15.679688 67.28125 -11.984375 C 63.289062 -8.296875 58.410156 -5.375 52.640625 -3.21875 C 46.878906 -1.070312 40.335938 0 33.015625 0 L -3.734375 0 Z M -3.390625 -0.671875 "/></g></g><g style="fill:#ffffff;fill-opacity:1;"><g transform="translate(1313.466115, 147.552033)"><path style="stroke:none" d="M 20.578125 -29.515625 L 15.15625 -19.34375 C 12.820312 -15.269531 10.992188 -12.046875 9.671875 -9.671875 C 8.347656 -7.296875 7.628906 -5.539062 7.515625 -4.40625 C 7.398438 -3.28125 7.960938 -2.488281 9.203125 -2.03125 C 10.453125 -1.582031 12.4375 -1.207031 15.15625 -0.90625 L 17.078125 -0.671875 L 17.1875 0 L -6.671875 0 L -6.328125 -0.671875 L -4.1875 -0.90625 C -2.226562 -1.132812 -0.609375 -1.472656 0.671875 -1.921875 C 1.953125 -2.367188 3.160156 -3.175781 4.296875 -4.34375 C 5.429688 -5.519531 6.734375 -7.351562 8.203125 -9.84375 C 9.671875 -12.332031 11.570312 -15.722656 13.90625 -20.015625 L 33.59375 -56.765625 L 33.359375 -62.09375 C 36.679688 -62.46875 39.378906 -63.578125 41.453125 -65.421875 C 43.523438 -67.273438 45.65625 -69.742188 47.84375 -72.828125 L 50.546875 -72.828125 L 56.546875 -15.953125 C 57.148438 -11.722656 57.863281 -8.550781 58.6875 -6.4375 C 59.519531 -4.332031 60.5 -2.921875 61.625 -2.203125 C 62.757812 -1.484375 64.082031 -1.050781 65.59375 -0.90625 L 68.53125 -0.671875 L 68.53125 0 L 30.078125 0 L 30.53125 -0.671875 L 33.140625 -0.90625 C 35.929688 -1.207031 37.625 -1.957031 38.21875 -3.15625 C 38.820312 -4.363281 38.898438 -6.664062 38.453125 -10.0625 L 36.640625 -29.515625 Z M 36.53125 -30.984375 L 34.375 -54.96875 L 34.15625 -54.96875 L 21.375 -30.984375 Z M 36.53125 -30.984375 "/></g></g><g style="fill:#ffffff;fill-opacity:1;"><g transform="translate(1387.20407, 147.552033)"><path style="stroke:none" d="M -3.390625 -0.671875 L 1.015625 -1.125 C 3.054688 -1.351562 4.488281 -1.617188 5.3125 -1.921875 C 6.144531 -2.222656 6.597656 -2.5625 6.671875 -2.9375 L 20.46875 -68.078125 C 20.46875 -68.453125 20.144531 -68.734375 19.5 -68.921875 C 18.863281 -69.117188 17.148438 -69.367188 14.359375 -69.671875 L 11.421875 -70 L 11.3125 -70.6875 L 49.984375 -70.6875 L 49.53125 -70 L 44.109375 -69.546875 C 42.972656 -69.398438 41.765625 -69.15625 40.484375 -68.8125 C 39.203125 -68.476562 38.523438 -68.125 38.453125 -67.75 L 24.421875 -1.578125 L 32.6875 -1.015625 C 35.925781 -1.015625 39.128906 -1.726562 42.296875 -3.15625 C 45.460938 -4.59375 48.78125 -7.140625 52.25 -10.796875 C 55.71875 -14.453125 59.453125 -19.523438 63.453125 -26.015625 L 64.234375 -27.484375 L 65.03125 -27.484375 L 58.359375 0 L -3.734375 0 Z M -3.390625 -0.671875 "/></g></g><g style="fill:#ffffff;fill-opacity:1;"><g transform="translate(1456.870601, 147.552033)"><path style="stroke:none" d="M -1.703125 -0.671875 L 2.71875 -1.125 C 4.675781 -1.28125 6.085938 -1.523438 6.953125 -1.859375 C 7.816406 -2.203125 8.289062 -2.5625 8.375 -2.9375 L 22.171875 -68.078125 C 22.171875 -68.453125 21.847656 -68.734375 21.203125 -68.921875 C 20.566406 -69.117188 18.851562 -69.367188 16.0625 -69.671875 L 12.890625 -70 L 12.78125 -70.6875 L 50.4375 -70.6875 L 49.984375 -70 L 45.6875 -69.546875 C 43.726562 -69.398438 42.3125 -69.15625 41.4375 -68.8125 C 40.570312 -68.476562 40.101562 -68.125 40.03125 -67.75 L 26.234375 -2.59375 C 26.234375 -2.21875 26.550781 -1.9375 27.1875 -1.75 C 27.832031 -1.5625 29.550781 -1.316406 32.34375 -1.015625 L 35.28125 -0.671875 L 35.390625 0 L -2.03125 0 Z M -1.703125 -0.671875 "/></g></g><g style="fill:#ffffff;fill-opacity:1;"><g transform="translate(1500.412184, 147.552033)"><path style="stroke:none" d="M 43.421875 1.8125 C 36.109375 1.8125 29.601562 0.34375 23.90625 -2.59375 C 18.21875 -5.539062 13.769531 -9.578125 10.5625 -14.703125 C 7.363281 -19.828125 5.765625 -25.707031 5.765625 -32.34375 C 5.765625 -38.144531 6.800781 -43.457031 8.875 -48.28125 C 10.945312 -53.113281 13.90625 -57.300781 17.75 -60.84375 C 21.601562 -64.382812 26.128906 -67.132812 31.328125 -69.09375 C 36.523438 -71.0625 42.253906 -72.046875 48.515625 -72.046875 C 53.722656 -72.046875 58.207031 -71.550781 61.96875 -70.5625 C 65.738281 -69.582031 68.945312 -68.226562 71.59375 -66.5 L 79.84375 -68.984375 L 77.125 -45.921875 L 76.34375 -46.03125 L 68.3125 -65.484375 C 66.875 -66.992188 64.890625 -68.21875 62.359375 -69.15625 C 59.835938 -70.101562 57.296875 -70.578125 54.734375 -70.578125 C 50.585938 -70.578125 46.703125 -69.441406 43.078125 -67.171875 C 39.460938 -64.910156 36.296875 -61.722656 33.578125 -57.609375 C 30.867188 -53.503906 28.757812 -48.71875 27.25 -43.25 C 25.75 -37.789062 25 -31.894531 25 -25.5625 C 25 -17.34375 26.597656 -10.929688 29.796875 -6.328125 C 33.003906 -1.734375 37.394531 0.5625 42.96875 0.5625 C 44.851562 0.5625 46.457031 0.375 47.78125 0 C 49.101562 -0.375 49.953125 -0.675781 50.328125 -0.90625 L 55.875 -28.15625 C 55.945312 -28.832031 53.15625 -29.363281 47.5 -29.75 L 44.453125 -30.078125 L 44.328125 -30.765625 L 83.125 -30.765625 L 82.671875 -30.078125 L 77.25 -29.75 C 75.207031 -29.59375 74.015625 -29.363281 73.671875 -29.0625 C 73.335938 -28.757812 73.132812 -28.421875 73.0625 -28.046875 L 68.203125 -5.3125 L 74.984375 -6.78125 L 74.984375 -6.21875 C 72.566406 -5.007812 69.601562 -3.78125 66.09375 -2.53125 C 62.59375 -1.289062 58.878906 -0.257812 54.953125 0.5625 C 51.035156 1.394531 47.191406 1.8125 43.421875 1.8125 Z M 43.421875 1.8125 "/></g></g><g style="fill:#ffffff;fill-opacity:1;"><g transform="translate(1583.084632, 147.552033)"><path style="stroke:none" d="M 23.296875 -59.140625 L 23.078125 -59.140625 L 11.53125 -5.09375 C 11.382812 -4.113281 11.910156 -3.226562 13.109375 -2.4375 C 14.316406 -1.644531 17.109375 -1.097656 21.484375 -0.796875 L 23.40625 -0.671875 L 23.53125 0 L -2.15625 0 L -1.8125 -0.671875 L 0.34375 -0.796875 C 4.332031 -1.097656 6.929688 -1.8125 8.140625 -2.9375 C 9.347656 -4.070312 10.023438 -5.242188 10.171875 -6.453125 L 22.171875 -60.5 C 20.585938 -63.59375 18.609375 -65.835938 16.234375 -67.234375 C 13.859375 -68.628906 11.800781 -69.398438 10.0625 -69.546875 L 9.15625 -69.671875 L 9.046875 -70.6875 L 39.125 -70.6875 L 65.484375 -27.375 L 65.703125 -27.484375 L 73.84375 -65.59375 C 74.144531 -66.5 73.632812 -67.40625 72.3125 -68.3125 C 71 -69.21875 68.191406 -69.742188 63.890625 -69.890625 L 61.96875 -70 L 61.859375 -70.6875 L 87.53125 -70.6875 L 87.078125 -70 L 85.046875 -69.890625 C 82.410156 -69.816406 80.410156 -69.457031 79.046875 -68.8125 C 77.691406 -68.175781 76.769531 -67.441406 76.28125 -66.609375 C 75.789062 -65.785156 75.429688 -64.992188 75.203125 -64.234375 L 60.84375 0.671875 L 59.59375 0.671875 Z M 23.296875 -59.140625 "/></g></g><g style="fill:#ffffff;fill-opacity:1;"><g transform="translate(1661.911852, 147.552033)"><path style="stroke:none" d="M -3.390625 -0.671875 L 1.015625 -1.125 C 3.054688 -1.351562 4.488281 -1.617188 5.3125 -1.921875 C 6.144531 -2.222656 6.597656 -2.5625 6.671875 -2.9375 L 20.46875 -68.078125 C 20.46875 -68.453125 20.144531 -68.734375 19.5 -68.921875 C 18.863281 -69.117188 17.148438 -69.367188 14.359375 -69.671875 L 11.421875 -70 L 11.3125 -70.6875 L 68.640625 -70.6875 L 68.53125 -46.703125 L 67.625 -46.703125 L 67.296875 -47.953125 C 65.785156 -54.128906 63.785156 -58.78125 61.296875 -61.90625 C 58.804688 -65.039062 55.898438 -67.132812 52.578125 -68.1875 C 49.265625 -69.25 45.648438 -69.664062 41.734375 -69.4375 L 38.796875 -69.21875 L 31.890625 -36.75 L 36.53125 -36.875 C 40.519531 -37.09375 43.890625 -38.109375 46.640625 -39.921875 C 49.398438 -41.734375 51.457031 -44.410156 52.8125 -47.953125 L 53.828125 -50.4375 L 54.625 -50.4375 L 47.84375 -20.578125 L 47.046875 -20.578125 L 47.265625 -23.078125 C 47.265625 -25.710938 46.960938 -27.914062 46.359375 -29.6875 C 45.765625 -31.457031 44.597656 -32.832031 42.859375 -33.8125 C 41.128906 -34.789062 38.53125 -35.359375 35.0625 -35.515625 L 31.671875 -35.734375 L 24.421875 -1.578125 L 32.796875 -1.015625 C 39.429688 -1.171875 45.59375 -2.941406 51.28125 -6.328125 C 56.976562 -9.722656 61.710938 -15.226562 65.484375 -22.84375 L 66.15625 -24.09375 L 67.0625 -24.09375 L 59.71875 0 L -3.734375 0 Z M -3.390625 -0.671875 "/></g></g><g style="fill:#ffffff;fill-opacity:1;"><g transform="translate(1732.709345, 147.552033)"><path style="stroke:none" d="M 32.234375 -1.25 C 36.679688 -1.25 40.675781 -2.53125 44.21875 -5.09375 C 47.757812 -7.65625 50.753906 -11.160156 53.203125 -15.609375 C 55.660156 -20.054688 57.53125 -25.085938 58.8125 -30.703125 C 60.09375 -36.316406 60.734375 -42.179688 60.734375 -48.296875 C 60.734375 -55.003906 59.351562 -60.1875 56.59375 -63.84375 C 53.84375 -67.5 49.414062 -69.328125 43.3125 -69.328125 L 38.796875 -69.328125 L 24.765625 -3.046875 Z M -3.390625 -0.671875 L 1.015625 -1.125 C 3.054688 -1.351562 4.488281 -1.617188 5.3125 -1.921875 C 6.144531 -2.222656 6.597656 -2.5625 6.671875 -2.9375 L 20.46875 -68.078125 C 20.539062 -68.453125 20.21875 -68.734375 19.5 -68.921875 C 18.789062 -69.117188 17.078125 -69.367188 14.359375 -69.671875 L 11.421875 -70 L 11.3125 -70.6875 L 43.203125 -70.6875 C 51.046875 -70.6875 57.679688 -69.304688 63.109375 -66.546875 C 68.535156 -63.796875 72.644531 -60.082031 75.4375 -55.40625 C 78.226562 -50.738281 79.625 -45.425781 79.625 -39.46875 C 79.625 -34.269531 78.566406 -29.3125 76.453125 -24.59375 C 74.335938 -19.882812 71.28125 -15.679688 67.28125 -11.984375 C 63.289062 -8.296875 58.410156 -5.375 52.640625 -3.21875 C 46.878906 -1.070312 40.335938 0 33.015625 0 L -3.734375 0 Z M -3.390625 -0.671875 "/></g></g></g></svg>